<?xml version="1.0" standalone="no"?>
<!DOCTYPE svg PUBLIC "-//W3C//DTD SVG 1.1//EN" "http://www.w3.org/Graphics/SVG/1.1/DTD/svg11.dtd" >
<svg xmlns="http://www.w3.org/2000/svg" xmlns:xlink="http://www.w3.org/1999/xlink" version="1.1">
<metadata>
Created by FontForge 20170731 at Tue Mar 28 14:56:07 2017
 By Aleksey,,,
Copyright (c) 2017 by TipografiaRamis. All rights reserved.
</metadata>
<defs>
<font id="DecimaMonoCyrLt" horiz-adv-x="600" >
  <font-face 
    font-family="Decima Mono Cyr Light"
    font-weight="400"
    font-stretch="normal"
    units-per-em="1000"
    panose-1="2 0 5 9 0 0 0 2 0 4"
    ascent="789"
    descent="-211"
    x-height="500"
    cap-height="700"
    bbox="0 -210 632 904"
    underline-thickness="50"
    underline-position="-200"
    unicode-range="U+0020-FB02"
  />
<missing-glyph 
 />
    <glyph glyph-name="fi" unicode="fi" 
d="M184 0h-49v457h-72v43h72v66q0 65 40 104.5t103 39.5q49 0 85 -17l-27 -36q-20 11 -58 11q-43 0 -68.5 -27t-25.5 -71v-70h271v-457h80v-43h-222v43h92v414h-221v-457zM394 620v70h66v-70h-66z" />
    <glyph glyph-name="fl" unicode="fl" 
d="M135 500v64q0 63 39.5 99.5t103.5 36.5h176v-657h81v-43h-222v43h91v614h-126q-44 0 -69 -23t-25 -67v-67h132v-43h-132v-457h-49v457h-71v43h71z" />
    <glyph glyph-name=".notdef" 
 />
    <glyph glyph-name=".null" horiz-adv-x="0" 
 />
    <glyph glyph-name="nonmarkingreturn" horiz-adv-x="333" 
 />
    <glyph glyph-name="space" unicode=" " 
 />
    <glyph glyph-name="exclam" unicode="!" 
d="M265 0v70h70v-70h-70zM325 700v-550h-52v550h52z" />
    <glyph glyph-name="quotedbl" unicode="&#x22;" 
d="M195 483v227h68l-33 -227h-35zM336 483v227h68l-34 -227h-34z" />
    <glyph glyph-name="numbersign" unicode="#" 
d="M104 455v45h107l28 200h45l-28 -200h132l28 200h45l-28 -200h97v-45h-103l-29 -204h98v-45h-104l-29 -206h-45l29 206h-132l-29 -206h-45l29 206h-100v45h106l29 204h-101zM250 455l-29 -204h132l29 204h-132z" />
    <glyph glyph-name="dollar" unicode="$" 
d="M275 -61v61q-71 8 -115.5 57t-44.5 117v24h52v-24q0 -54 37.5 -90.5t95.5 -36.5t95 35.5t37 89.5q0 41 -17 71.5t-44 49.5t-59.5 35t-65.5 33t-60 37t-44 53.5t-17 77.5q0 66 43 114t107 56v62h49v-62q65 -8 108.5 -55t44.5 -118h-51q-2 54 -37.5 90.5t-88.5 36.5
q-51 0 -87 -35t-36 -86q0 -35 17 -62t44 -44.5t59.5 -33.5t65.5 -34t60 -40t44 -58t17 -83q0 -70 -45 -119.5t-115 -57.5v-61h-49z" />
    <glyph glyph-name="percent" unicode="%" 
d="M301 610v-101q0 -43 -31.5 -73t-76.5 -30q-44 0 -75 30t-31 73v101q0 43 31 71t75 28q46 0 77 -28t31 -71zM256 512v90q0 27 -18 45.5t-45 18.5t-44.5 -18.5t-17.5 -45.5v-89q0 -27 18 -45.5t46 -18.5q25 0 43 18.5t18 44.5zM517 194v-101q0 -43 -31.5 -73t-76.5 -30
q-44 0 -75 30t-31 73v101q0 43 31 71t75 28q46 0 77 -28t31 -71zM472 96v90q0 27 -18 45.5t-45 18.5t-44.5 -18.5t-17.5 -45.5v-89q0 -27 18 -45.5t46 -18.5q25 0 43 18.5t18 44.5zM50 276l500 195v-47l-500 -195v47z" />
    <glyph glyph-name="ampersand" unicode="&#x26;" 
d="M297 706q75 0 122.5 -48t47.5 -109h-48q0 36 -31.5 72.5t-87.5 36.5q-57 0 -92 -34t-35 -88v-23q0 -45 26.5 -82t83.5 -37h276v-48h-90v-178q0 -75 -48.5 -124.5t-124.5 -49.5q-79 0 -130 50t-51 124v80q0 26 7.5 48.5t18.5 36.5t22 24t19 15l7 4q-3 2 -7.5 5.5
t-16.5 15.5t-21 26.5t-16.5 38t-7.5 49.5v24q0 74 50 122.5t127 48.5zM294 41q57 0 90.5 35t33.5 90v180h-142q-51 0 -79.5 -29.5t-28.5 -75.5v-74q0 -55 34.5 -90.5t91.5 -35.5z" />
    <glyph glyph-name="quotesingle" unicode="'" 
d="M266 483v227h68l-33 -227h-35z" />
    <glyph glyph-name="parenleft" unicode="(" 
d="M385 -147v-48q-72 1 -121 53t-49 125v556q0 69 50.5 120.5t119.5 56.5v-50q-51 -2 -84 -38.5t-33 -89.5v-557q0 -52 33 -89t84 -39z" />
    <glyph glyph-name="parenright" unicode=")" 
d="M215 -195v48q51 2 84.5 39t33.5 89v557q0 53 -33.5 89.5t-84.5 38.5v50q72 -1 121 -52.5t49 -124.5v-556q0 -69 -50.5 -121t-119.5 -57z" />
    <glyph glyph-name="asterisk" unicode="*" 
d="M282 710h35v-85l83 27l9 -31l-83 -32l50 -68l-26 -20l-51 69l-46 -69l-29 20l46 70l-80 24l10 33l82 -23v85z" />
    <glyph glyph-name="plus" unicode="+" 
d="M274 490h51v-182h182v-50h-182v-183h-51v183h-181v50h181v182z" />
    <glyph glyph-name="comma" unicode="," 
d="M267 0v70h69v-75l-37 -115h-36l36 120h-32z" />
    <glyph glyph-name="hyphen" unicode="-" 
d="M411 308v-50h-223v50h223z" />
    <glyph glyph-name="period" unicode="." 
d="M265 0v70h70v-70h-70z" />
    <glyph glyph-name="slash" unicode="/" 
d="M106 -181l338 881h49l-337 -881h-50z" />
    <glyph glyph-name="zero" unicode="0" 
d="M471 533v-366q0 -74 -49.5 -125.5t-121.5 -51.5t-122 52t-50 126v365q0 74 50 125.5t122 51.5t121.5 -51.5t49.5 -125.5zM420 166v366q0 54 -35 92t-85 38q-52 0 -86.5 -37.5t-34.5 -92.5v-365q0 -54 34.5 -91.5t86.5 -37.5q50 0 85 37t35 91z" />
    <glyph glyph-name="one" unicode="1" 
d="M153 681l113 19h55v-652h142v-48h-326v48h132v602l-116 -17v48z" />
    <glyph glyph-name="two" unicode="2" 
d="M178 533h-52q1 78 53.5 127.5t126.5 49.5t125 -50.5t51 -125.5q0 -50 -23 -95t-57.5 -76.5t-75 -67t-75 -66t-57.5 -73.5t-23 -90v-18h311v-48h-364v60q0 66 32 122t78 95.5t91.5 77.5t77.5 85t32 100q0 51 -36.5 86.5t-88.5 35.5q-53 0 -88.5 -37t-37.5 -92z" />
    <glyph glyph-name="three" unicode="3" 
d="M300 -10q-76 0 -128 51.5t-52 125.5v4h52v-5q0 -54 37 -91t91 -37t91 37.5t37 91.5v137q0 49 -27.5 78t-73.5 29h-59v55l137 185h-246v49h304v-55l-140 -186q65 0 111 -40.5t46 -114.5v-136q0 -74 -52.5 -126t-127.5 -52z" />
    <glyph glyph-name="four" unicode="4" 
d="M109 158v61l226 481h56l-229 -492h216v190h54v-190h59v-50h-59v-158h-54v158h-269z" />
    <glyph glyph-name="five" unicode="5" 
d="M120 167v4h52v-5q0 -54 37 -91t91 -37q55 0 91.5 37t36.5 94v114q0 59 -35 96.5t-91 37.5q-37 0 -65 -16.5t-40 -35.5l-53 15l29 320h283v-49h-235l-19 -224q4 4 13 10.5t37.5 17t59.5 10.5q73 0 120.5 -51t47.5 -130v-114q0 -75 -52 -127.5t-128 -52.5t-128 51.5
t-52 125.5z" />
    <glyph glyph-name="six" unicode="6" 
d="M298 710q74 0 123 -50.5t49 -112.5v-8h-51q0 5 -1 13q-4 42 -36.5 75.5t-82.5 33.5q-56 0 -91.5 -37.5t-35.5 -92.5v-136l5 7.5t15 16.5t26 21t37.5 16.5t49.5 7.5q72 0 123.5 -51t51.5 -126v-119q0 -74 -52 -126t-129 -52q-76 0 -128 51.5t-52 125.5v365
q0 75 50.5 126.5t128.5 51.5zM302 416q-54 0 -92 -36t-38 -94v-120q0 -54 36.5 -91t90.5 -37t91 37.5t37 91.5v119q0 58 -36 94t-89 36z" />
    <glyph glyph-name="seven" unicode="7" 
d="M302 0h-54q1 83 27 187.5t56.5 184.5t55.5 159.5t25 119.5h-276v49h328v-60q0 -37 -25 -117.5t-55 -162t-55.5 -183.5t-26.5 -177z" />
    <glyph glyph-name="eight" unicode="8" 
d="M470 544v-30q0 -44 -20 -80t-40 -50l-19 -13q4 -2 10 -5.5t21 -17.5t27 -30t21.5 -43.5t9.5 -57.5v-50q0 -74 -52 -125.5t-128 -51.5q-78 0 -129.5 51.5t-51.5 126.5v49q0 31 9.5 58t22.5 43.5t26 29t23 18.5l9 5q-3 2 -8.5 5.5t-19.5 16t-24.5 28t-19 41t-8.5 53.5v29
q0 70 48.5 118t122.5 48q72 0 121 -48t49 -118zM426 166v50q0 54 -36.5 91.5t-90.5 37.5q-53 0 -89.5 -37.5t-36.5 -91.5v-49q0 -55 36 -92t91 -37q53 0 89.5 37t36.5 91zM419 513v27q0 52 -34 87t-86 35q-50 0 -84.5 -35t-34.5 -87v-26q0 -49 33 -84.5t87 -35.5
q52 0 85.5 34t33.5 85z" />
    <glyph glyph-name="nine" unicode="9" 
d="M301 -10q-74 0 -123 50.5t-49 112.5v8h51q0 -5 1 -13q4 -42 36.5 -75.5t82.5 -33.5q56 0 91.5 37.5t35.5 92.5v136l-5 -7.5t-15 -16.5t-26 -21t-37.5 -16.5t-49.5 -7.5q-72 0 -123.5 51t-51.5 126v119q0 74 52 126t129 52q76 0 128 -51.5t52 -125.5v-365
q0 -75 -50.5 -126.5t-128.5 -51.5zM297 284q54 0 92 36t38 94v120q0 54 -36.5 91t-90.5 37t-91 -37.5t-37 -91.5v-119q0 -58 36 -94t89 -36z" />
    <glyph glyph-name="colon" unicode=":" 
d="M265 0v70h70v-70h-70zM265 430v70h70v-70h-70z" />
    <glyph glyph-name="semicolon" unicode=";" 
d="M267 430v70h70v-70h-70zM267 0v70h69v-75l-37 -115h-36l36 120h-32z" />
    <glyph glyph-name="less" unicode="&#x3c;" 
d="M96 254v58l408 184v-55l-356 -156v-4l356 -155v-56z" />
    <glyph glyph-name="equal" unicode="=" 
d="M506 229v-50h-413v50h413zM506 389v-50h-413v50h413z" />
    <glyph glyph-name="greater" unicode="&#x3e;" 
d="M504 312v-58l-408 -184v56l356 155v4l-356 156v55z" />
    <glyph glyph-name="question" unicode="?" 
d="M174 533h-52q1 78 52.5 127.5t125.5 49.5q76 0 127 -48.5t51 -127.5q0 -51 -17 -89.5t-41.5 -65t-49 -54.5t-41.5 -72t-18 -103h-51q1 66 18 115t41 78t48 55t41 61t17 80q0 51 -36.5 86t-88.5 35q-53 0 -88.5 -36.5t-37.5 -90.5zM251 0v70h70v-70h-70z" />
    <glyph glyph-name="at" unicode="@" 
d="M282 364v-235q0 -43 23 -69.5t60 -26.5q39 0 63.5 26.5t24.5 69.5v235q0 42 -24 65.5t-63 23.5q-38 0 -61 -23.5t-23 -65.5zM453 455v59q0 64 -43.5 107t-108.5 43q-67 0 -110.5 -43t-43.5 -107v-496q0 -65 43 -108.5t104 -43.5v-46q-82 1 -139.5 58.5t-57.5 139.5v496
q0 82 58 139t146 57q86 0 143.5 -57t57.5 -139v-514h-45l-2 42q-3 -6 -10 -14t-31.5 -22t-53.5 -14q-55 0 -91 37.5t-36 93.5v248q0 53 36.5 90.5t90.5 37.5q29 0 52 -11t32 -22z" />
    <glyph glyph-name="A" unicode="A" 
d="M246 700h108l125 -426v-274h-52v239h-254v-239h-52v274zM422 287l-104 365h-36l-104 -365h244z" />
    <glyph glyph-name="B" unicode="B" 
d="M312 700q65 0 108 -42.5t43 -103.5v-58q0 -24 -7.5 -45.5t-18.5 -35.5t-22.5 -24.5t-18.5 -14.5l-8 -5q3 -2 8.5 -5t20 -15.5t25 -26.5t19.5 -38t9 -51v-76q0 -68 -48.5 -113.5t-113.5 -45.5h-166v700h170zM315 650h-121v-258h121q41 0 70.5 29.5t29.5 70.5v58
q0 41 -29.5 70.5t-70.5 29.5zM194 346v-298h114q48 0 79.5 33t31.5 78v76q0 38 -29 74.5t-82 36.5h-114z" />
    <glyph glyph-name="C" unicode="C" 
d="M483 169v-4q0 -73 -52 -124t-126 -51q-75 0 -127 51.5t-52 124.5v369q0 73 51 124t128 51q75 0 126 -51t51 -124h-51q-1 53 -38 90.5t-89 37.5q-54 0 -90 -37.5t-36 -91.5v-367q0 -53 38 -91t89 -38q53 0 89.5 36.5t36.5 89.5v5h52z" />
    <glyph glyph-name="D" unicode="D" 
d="M478 524v-348q0 -74 -50.5 -125t-125.5 -51h-171v700h171q75 0 125.5 -50.5t50.5 -125.5zM426 174v349q0 55 -36 91t-91 36h-116v-602h116q55 0 91 35.5t36 90.5z" />
    <glyph glyph-name="E" unicode="E" 
d="M147 700h314v-48h-262v-258h238v-48h-238v-298h271v-48h-323v700z" />
    <glyph glyph-name="F" unicode="F" 
d="M156 700h314v-48h-262v-258h249v-48h-249v-346h-52v700z" />
    <glyph glyph-name="G" unicode="G" 
d="M489 343v-178q0 -74 -51.5 -124.5t-131.5 -50.5q-82 0 -134 51t-52 125v369q0 74 52 124.5t134 50.5q80 0 129 -50t49 -125h-52q-1 53 -36 89t-90 36q-60 0 -97 -36t-37 -90v-369q0 -54 37 -90.5t97 -36.5q58 0 94.5 36t36.5 90v131h-104v48h156z" />
    <glyph glyph-name="H" unicode="H" 
d="M427 700h52v-700h-52v346h-254v-346h-52v700h52v-306h254v306z" />
    <glyph glyph-name="I" unicode="I" 
d="M119 652v48h362v-48h-154v-604h154v-48h-362v48h156v604h-156z" />
    <glyph glyph-name="J" unicode="J" 
d="M116 165v63h52v-64q0 -53 36.5 -89.5t89.5 -36.5q54 0 90.5 37t36.5 90v487h-271v48h323v-534q0 -73 -51.5 -124.5t-123.5 -51.5h-7q-73 0 -124 51t-51 124z" />
    <glyph glyph-name="K" unicode="K" 
d="M192 700v-324l247 324h60l-252 -328l267 -372h-62l-260 365v-365h-52v700h52z" />
    <glyph glyph-name="L" unicode="L" 
d="M155 700h52v-652h291v-48h-343v700z" />
    <glyph glyph-name="M" unicode="M" 
d="M300 364l148 336h52v-700h-50v359l5 255l-130 -296h-51l-129 296q4 -124 4 -254v-360h-49v700h53z" />
    <glyph glyph-name="N" unicode="N" 
d="M428 0l-262 596q4 -97 4 -232v-364h-48v700h50l263 -598q-5 96 -5 234v364h48v-700h-50z" />
    <glyph glyph-name="O" unicode="O" 
d="M484 535v-370q0 -74 -51.5 -124.5t-132.5 -50.5t-133 51t-52 125v369q0 74 52 124.5t133 50.5t132.5 -50.5t51.5 -124.5zM432 164v370q0 54 -36.5 91t-95.5 37q-60 0 -96.5 -37t-36.5 -91v-369q0 -54 36.5 -90.5t96.5 -36.5q59 0 95.5 36t36.5 90z" />
    <glyph glyph-name="P" unicode="P" 
d="M148 0v700h178q62 0 104 -41.5t42 -104.5v-152q0 -64 -42 -105.5t-104 -41.5h-126v-255h-52zM420 399v154q0 42 -27.5 69.5t-69.5 27.5h-123v-347h123q42 0 69.5 27t27.5 69z" />
    <glyph glyph-name="Q" unicode="Q" 
d="M475 535v-370q0 -68 -45 -118l62 -61l-31 -31l-66 64q-41 -27 -104 -27q-81 0 -133 50t-52 124v369q0 74 52 123.5t133 49.5t132.5 -49.5t51.5 -123.5zM291 122l32 31l71 -71q29 34 29 82v370q0 54 -36.5 90.5t-95.5 36.5q-60 0 -96.5 -36.5t-36.5 -90.5v-369
q0 -54 36.5 -90t96.5 -36q39 0 69 15z" />
    <glyph glyph-name="R" unicode="R" 
d="M428 0l-111 267h-120v-267h-52v700h168q71 0 113.5 -41t42.5 -105v-140q0 -48 -27.5 -86.5t-71.5 -52.5l114 -275h-56zM417 411v142q0 43 -28 70t-77 27h-115v-335h123q42 0 69.5 27t27.5 69z" />
    <glyph glyph-name="S" unicode="S" 
d="M477 535h-51q-2 54 -37.5 90.5t-88.5 36.5q-51 0 -87 -35t-36 -86q0 -41 22.5 -72.5t57 -50.5t74 -42.5t74 -47t57 -65t22.5 -95.5q0 -75 -52.5 -126.5t-131.5 -51.5q-81 0 -133 50.5t-52 124.5v24h52v-24q0 -54 37.5 -90.5t95.5 -36.5t95 35.5t37 89.5q0 55 -31.5 94.5
t-77 63t-90.5 48.5t-76.5 67t-31.5 102q0 72 51.5 122t123.5 50q73 0 124.5 -49t52.5 -126z" />
    <glyph glyph-name="T" unicode="T" 
d="M101 652v48h398v-48h-173v-652h-52v652h-173z" />
    <glyph glyph-name="U" unicode="U" 
d="M432 700h52v-535q0 -73 -51 -124t-124 -51h-19q-72 0 -123.5 51.5t-51.5 124.5v534h52v-535q0 -53 36.5 -90t90.5 -37h12q53 0 89.5 36.5t36.5 89.5v536z" />
    <glyph glyph-name="V" unicode="V" 
d="M173 700v-278l108 -374h38l108 374v278h52v-276l-125 -424h-108l-125 424v276h52z" />
    <glyph glyph-name="W" unicode="W" 
d="M452 425v275h52v-278l-42 -422h-96l-62 315h-9l-63 -315h-95l-42 422v278h52v-275l34 -377h14l69 332h72l68 -332h14z" />
    <glyph glyph-name="X" unicode="X" 
d="M167 700l132 -283l133 283h59l-161 -336l177 -364h-61l-147 312l-146 -312h-61l176 364l-160 336h59z" />
    <glyph glyph-name="Y" unicode="Y" 
d="M154 700l147 -309l145 309h57l-177 -367v-333h-52v333l-178 367h58z" />
    <glyph glyph-name="Z" unicode="Z" 
d="M480 647l-303 -599h302v-48h-359v53l303 599h-288v48h345v-53z" />
    <glyph glyph-name="bracketleft" unicode="[" 
d="M385 -132v-48h-170v880h170v-51h-117v-781h117z" />
    <glyph glyph-name="backslash" unicode="\" 
d="M155 700l338 -881h-50l-337 881h49z" />
    <glyph glyph-name="bracketright" unicode="]" 
d="M215 -180v48h118v781h-118v51h170v-880h-170z" />
    <glyph glyph-name="asciicircum" unicode="^" 
d="M276 700h49l152 -348h-46l-130 309l-131 -309h-45z" />
    <glyph glyph-name="underscore" unicode="_" horiz-adv-x="598" 
d="M0 -92h598v-37h-598v37z" />
    <glyph glyph-name="grave" unicode="`" 
d="M390 553h-54l-127 122h72z" />
    <glyph glyph-name="a" unicode="a" 
d="M420 0v53q-2 -3 -5.5 -7t-16 -15t-27.5 -19t-39.5 -15t-51.5 -7q-66 0 -112.5 42t-46.5 107q0 67 47 108.5t119 46.5l133 9v46q0 52 -30 85t-82 33q-42 0 -71 -24t-38 -62h-49q9 57 51.5 93t106.5 36q77 0 119 -45t42 -117v-348h-49zM286 32q53 0 93.5 32t40.5 74v122
l-121 -7q-60 -4 -94.5 -33.5t-34.5 -79.5q0 -46 32 -77t84 -31z" />
    <glyph glyph-name="b" unicode="b" 
d="M432 159v182q0 60 -33 93t-87 33q-58 0 -95.5 -35.5t-37.5 -90.5v-182q0 -54 38 -90t95 -36q52 0 86 33t34 93zM179 700v-252q2 3 5.5 7t15.5 14.5t26 19t37.5 15t48.5 6.5q78 0 123.5 -45t45.5 -114v-202q0 -68 -47 -113.5t-122 -45.5q-25 0 -47.5 6.5t-37.5 16
t-26.5 18.5t-16.5 15l-5 7v-53h-49v700h49z" />
    <glyph glyph-name="c" unicode="c" 
d="M173 349v-198q0 -51 36.5 -84.5t90.5 -33.5q52 0 88 31t38 82h47q-4 -67 -51.5 -111.5t-121.5 -44.5q-79 0 -127 46t-48 117v194q0 70 48 116.5t127 46.5q72 0 119 -44t51 -109h-49q-2 48 -36.5 79t-84.5 31q-54 0 -90.5 -33.5t-36.5 -84.5z" />
    <glyph glyph-name="d" unicode="d" 
d="M421 448v252h49v-700h-49v54q-5 -7 -15 -17.5t-44.5 -28.5t-73.5 -18q-75 0 -122 45.5t-47 113.5v202q0 66 46 112.5t123 46.5q41 0 74.5 -15.5t45.5 -30.5zM168 347v-194q0 -52 34.5 -86t88.5 -34q52 0 91 35.5t39 82.5v198q0 48 -38 83t-91 35q-55 0 -89.5 -34
t-34.5 -86z" />
    <glyph glyph-name="e" unicode="e" 
d="M426 146h48q-4 -68 -51.5 -112t-122.5 -44q-78 0 -126.5 44.5t-48.5 110.5v210q0 66 48.5 110.5t126.5 44.5q77 0 125.5 -45t48.5 -110v-119h-301v-83q0 -53 35.5 -86.5t90.5 -33.5t90 31t37 82zM173 346v-67h253v68q0 53 -36.5 86.5t-90.5 33.5t-90 -34t-36 -87z" />
    <glyph glyph-name="f" unicode="f" 
d="M286 0h-49v457h-102v43h102v66q0 65 40 104.5t103 39.5q49 0 85 -17l-27 -36q-20 11 -58 11q-43 0 -68.5 -27t-25.5 -71v-70h172v-43h-172v-457z" />
    <glyph glyph-name="g" unicode="g" 
d="M410 18h-220q-31 0 -52.5 -22t-21.5 -55t21.5 -54.5t52.5 -21.5h220q31 0 53.5 22t22.5 54q0 33 -22 55t-54 22zM392 296v68q0 43 -31.5 73t-74.5 30q-45 0 -76 -29.5t-31 -73.5v-68q0 -43 31.5 -72.5t75.5 -29.5q42 0 74 30t32 72zM480 513q-31 0 -45 -19l-27 -38
q35 -44 35 -91v-69q0 -59 -46.5 -102.5t-110.5 -43.5l-14 1v-88h149q48 0 82 -35.5t34 -86.5t-34 -86t-82 -35h-243q-48 0 -81.5 35t-33.5 86t33.5 86.5t81.5 35.5h40v102q-29 10 -59.5 44.5t-30.5 86.5v69q0 59 46.5 102t111.5 43q52 0 87 -26l38 46q23 27 69 27h11v-44
h-11z" />
    <glyph glyph-name="h" unicode="h" 
d="M480 350v-350h-49v340q0 60 -33 94t-87 34q-55 0 -94 -35t-39 -83v-350h-49v700h49v-256q5 7 14.5 18t44.5 29.5t76 18.5q76 0 121.5 -46t45.5 -114z" />
    <glyph glyph-name="i" unicode="i" 
d="M119 500h210v-457h142v-43h-352v43h160v414h-160v43zM268 597v70h66v-70h-66z" />
    <glyph glyph-name="j" unicode="j" 
d="M425 500v-540q0 -66 -40.5 -108t-110.5 -42q-67 0 -107 29l25 37q31 -23 82 -23q47 0 74 30t27 79v495h-237v43h287zM363 597v70h64v-70h-64z" />
    <glyph glyph-name="k" unicode="k" 
d="M433 0l-223 259v-259h-48v700h48v-427l206 227h64l-216 -233l232 -267h-63z" />
    <glyph glyph-name="l" unicode="l" 
d="M169 700h161v-657h152v-43h-344v43h142v614h-111v43z" />
    <glyph glyph-name="m" unicode="m" 
d="M143 500l2 -39q3 5 9.5 13t28.5 21t47 13q27 0 48 -12.5t28 -25.5l7 -12q3 6 10 14t32 22t53 14q41 0 67 -27.5t26 -74.5v-406h-48v399q0 33 -15 50t-40 17q-27 0 -50 -23t-23 -57v-386h-48v399q0 29 -16 48t-39 19q-30 0 -52.5 -24.5t-22.5 -56.5v-385h-48v500h44z" />
    <glyph glyph-name="n" unicode="n" 
d="M480 350v-350h-49v340q0 60 -33 94t-87 34q-55 0 -94 -35t-39 -83v-350h-49v500h47l2 -56q5 7 14.5 18t44.5 29.5t76 18.5q76 0 121.5 -46t45.5 -114z" />
    <glyph glyph-name="o" unicode="o" 
d="M474 355v-210q0 -65 -48.5 -110t-125.5 -45q-78 0 -126.5 44.5t-48.5 110.5v210q0 66 48.5 110.5t126.5 44.5q77 0 125.5 -45t48.5 -110zM426 151v198q0 50 -37 84t-90 34t-89.5 -34t-36.5 -84v-198q0 -50 36.5 -84t90.5 -34q53 0 89.5 34t36.5 84z" />
    <glyph glyph-name="p" unicode="p" 
d="M432 159v182q0 60 -34 93t-86 33q-57 0 -95 -36t-38 -90v-182q0 -54 38 -90t95 -36q51 0 85.5 33.5t34.5 92.5zM179 55v-235h-49v680h47l2 -55q5 7 14.5 18t44 29t74.5 18q75 0 122 -45.5t47 -113.5v-202q0 -68 -47 -113.5t-122 -45.5q-40 0 -73.5 16.5t-46.5 32.5z" />
    <glyph glyph-name="q" unicode="q" 
d="M168 341v-182q0 -59 34.5 -92.5t85.5 -33.5q57 0 95 36t38 90v182q0 54 -38 90t-95 36q-52 0 -86 -33t-34 -93zM421 -180v235q-5 -7 -14.5 -18t-44 -29t-74.5 -18q-75 0 -122 45.5t-47 113.5v202q0 68 47 113.5t122 45.5q40 0 73 -16t47 -32l13 -17l2 55h47v-680h-49z
" />
    <glyph glyph-name="r" unicode="r" 
d="M194 500h47l2 -57q2 3 5 7t14 15.5t24 20t35 15.5t46 7q67 0 102 -40t40 -91h-51q-2 39 -27.5 64.5t-67.5 25.5q-44 0 -81.5 -35t-37.5 -79v-310h199v-43h-353v43h104v457z" />
    <glyph glyph-name="s" unicode="s" 
d="M460 377h-51q-1 38 -32 64t-74 26q-38 0 -68.5 -23.5t-30.5 -57.5t26.5 -56.5t65 -37t76.5 -31t64.5 -50t26.5 -83.5q0 -58 -46 -98t-114 -40q-76 0 -121 44.5t-45 105.5h49q1 -45 34 -76t83 -31q48 0 79 27t31 68q0 36 -26.5 60t-64.5 38.5t-76 31t-64.5 47t-26.5 75.5
q0 58 44 94t108 36q67 0 108 -42t45 -91z" />
    <glyph glyph-name="t" unicode="t" 
d="M111 457v43h77v140h48v-140h242v-43h-242v-316q0 -45 28 -76t79 -31q43 0 71 28.5t29 62.5h44q-1 -53 -43 -94t-102 -41q-72 0 -113 42t-41 111v314h-77z" />
    <glyph glyph-name="u" unicode="u" 
d="M125 150v350h49v-340q0 -61 33 -94.5t87 -33.5q55 0 94 35t39 83v350h49v-500h-47l-2 56q-5 -7 -14.5 -18t-44.5 -29.5t-76 -18.5q-76 0 -121.5 45t-45.5 115z" />
    <glyph glyph-name="v" unicode="v" 
d="M180 500v-183l111 -275h18l111 275v183h49v-186l-126 -314h-86l-127 314v186h50z" />
    <glyph glyph-name="w" unicode="w" 
d="M460 318v182h48v-187l-61 -313h-89l-55 271h-7l-54 -271h-89l-61 313v187h48v-182l53 -276h14l58 280h71l59 -280h14z" />
    <glyph glyph-name="x" unicode="x" 
d="M184 500l116 -203l116 203h58l-145 -244l151 -256h-57l-123 214l-123 -214h-58l151 256l-144 244h58z" />
    <glyph glyph-name="y" unicode="y" 
d="M146 500l152 -425l154 425h55l-257 -680h-50l71 187l-180 493h55z" />
    <glyph glyph-name="z" unicode="z" 
d="M456 453l-265 -410h269v-43h-320v48l266 409h-250v43h300v-47z" />
    <glyph glyph-name="braceleft" unicode="{" 
d="M412 -142v-48q-71 1 -120 53t-49 125v189q0 25 -16 44.5t-40 20.5v48q24 1 40 20t16 44v179q0 69 50 120.5t119 56.5v-50q-51 -2 -84 -38.5t-33 -89.5v-170q0 -34 -19.5 -61t-41.5 -33v-4q22 -7 41.5 -34t19.5 -61v-183q0 -52 33 -89t84 -39z" />
    <glyph glyph-name="bar" unicode="|" 
d="M277 -180v880h46v-880h-46z" />
    <glyph glyph-name="braceright" unicode="}" 
d="M187 -190v48q51 2 84 39t33 89v183q0 34 19.5 61t41.5 34v4q-22 6 -41.5 33t-19.5 61v170q0 53 -33 89.5t-84 38.5v50q69 -5 119 -56.5t50 -120.5v-179q0 -25 16 -44t40 -20v-48q-24 -1 -40 -20.5t-16 -44.5v-189q0 -73 -49 -125t-120 -53z" />
    <glyph glyph-name="asciitilde" unicode="~" 
d="M203 348q38 0 103.5 -29.5t90.5 -29.5q31 0 48.5 15t17.5 36h45q0 -40 -31 -69t-80 -29q-38 0 -103.5 29.5t-90.5 29.5q-31 0 -48.5 -15t-17.5 -36h-45q0 40 31 69t80 29z" />
    <glyph glyph-name="exclamdown" unicode="&#xa1;" 
d="M265 430v70h70v-70h-70zM325 350v-549h-52v549h52z" />
    <glyph glyph-name="cent" unicode="&#xa2;" 
d="M277 -62v61q-70 7 -111 52t-41 110v180q0 65 41 110t111 52v59h46v-59q63 -7 103 -50t44 -102h-49q-2 48 -36.5 79t-84.5 31q-54 0 -90.5 -33.5t-36.5 -84.5v-184q0 -51 36.5 -84.5t90.5 -33.5q52 0 88 31t38 82h47q-4 -62 -44.5 -105t-105.5 -50v-61h-46z" />
    <glyph glyph-name="sterling" unicode="&#xa3;" 
d="M490 48v-48h-370v48h54v248h-54v48h54v204q0 71 45 116.5t112 45.5q66 0 111 -45t45 -108v-29h-50v34q0 41 -31 70.5t-73 29.5q-46 0 -76.5 -30t-30.5 -80v-208h142v-48h-142v-248h264z" />
    <glyph glyph-name="currency" unicode="&#xa4;" 
d="M478 81l-49 49q-64 -45 -129 -45t-129 45l-49 -49l-36 36l48 50q-43 60 -43 127q0 66 44 130l-49 49l36 36l49 -49q61 43 129 43t129 -43l49 49l36 -36l-49 -49q44 -64 44 -130q0 -65 -43 -127l48 -50zM187 182q47 -47 113 -47q64 0 111.5 47.5t47.5 112.5t-47 112.5
t-112 47.5t-112.5 -47.5t-47.5 -112.5q0 -66 47 -113z" />
    <glyph glyph-name="yen" unicode="&#xa5;" 
d="M488 214h-162v-214h-52v214h-163v48h163v71l-5 10h-158v48h135l-150 309h58l146 -305l146 305h58l-150 -309h134v-48h-157l-5 -10v-71h162v-48z" />
    <glyph glyph-name="brokenbar" unicode="&#xa6;" 
d="M277 355v345h46v-345h-46zM277 -180v346h46v-346h-46z" />
    <glyph glyph-name="section" unicode="&#xa7;" 
d="M427 303q0 41 -29.5 67t-91.5 55t-89 47q-45 -28 -45 -76q0 -41 29.5 -66.5t90 -53.5t90.5 -49q45 29 45 76zM297 -10q-72 0 -111.5 36.5t-39.5 99.5h52q0 -36 24 -61t75 -25q49 0 72.5 22.5t23.5 52.5q0 32 -28 56t-68.5 41.5t-81 37.5t-68.5 55t-28 83q0 71 61 117
q-29 40 -29 81q0 53 40 88.5t111 35.5q72 0 111.5 -36.5t39.5 -99.5h-52q0 36 -24 61t-75 25q-49 0 -72.5 -23t-23.5 -52q0 -27 20.5 -49t50.5 -35.5t66 -31.5t66 -35.5t50.5 -49t20.5 -72.5q0 -69 -60 -118q28 -40 28 -80q0 -53 -40 -88.5t-111 -35.5z" />
    <glyph glyph-name="dieresis" unicode="&#xa8;" 
d="M187 597v70h58v-70h-58zM354 597v70h58v-70h-58z" />
    <glyph glyph-name="copyright" unicode="&#xa9;" 
d="M91 439v-184q0 -95 60.5 -157t148.5 -62q87 0 146.5 62t59.5 157v184q0 99 -59.5 161.5t-146.5 62.5q-88 0 -148.5 -62.5t-60.5 -161.5zM42 257v180q0 119 74.5 195.5t183.5 76.5q108 0 182.5 -76.5t74.5 -195.5v-180q0 -115 -75 -191t-182 -76q-109 0 -183.5 75.5
t-74.5 191.5zM301 499q-38 0 -61 -25t-23 -64v-131q0 -37 24.5 -62t62.5 -25q34 0 56.5 18t22.5 45v11h42v-12q0 -40 -34.5 -73.5t-86.5 -33.5q-57 0 -93.5 36.5t-36.5 88.5v148q0 50 36.5 86t93.5 36q51 0 84 -34t33 -71v-12h-43v10q0 24 -22 44t-55 20z" />
    <glyph glyph-name="ordfeminine" unicode="&#xaa;" 
d="M365 400v19q-29 -25 -72 -25q-42 1 -73.5 28.5t-31.5 67.5q0 39 30 66.5t74 30.5l73 5v17q0 24 -16 43.5t-42 19.5q-21 0 -37 -14.5t-20 -35.5h-48q6 40 34.5 64t70.5 24q49 0 76.5 -28t27.5 -70v-212h-46zM295 434q29 0 49.5 16t20.5 36v66l-72 -4q-24 -2 -41.5 -18
t-17.5 -39q0 -22 19 -39.5t42 -17.5zM411 340v-40h-214v40h214z" />
    <glyph glyph-name="guillemotleft" unicode="&#xab;" 
d="M302 140h-53l-117 152l117 152h53l-118 -152zM467 140h-53l-118 152l118 152h53l-118 -152z" />
    <glyph glyph-name="logicalnot" unicode="&#xac;" 
d="M506 389v-210h-49v160h-364v50h413z" />
    <glyph glyph-name="uni00AD" unicode="&#xad;" 
 />
    <glyph glyph-name="registered" unicode="&#xae;" 
d="M363 260l-52 121h-67v-121h-35v319h111q28 0 50 -22t22 -51v-51q0 -21 -13 -40.5t-31 -27.5l54 -127h-39zM358 453v54q0 16 -12 27.5t-27 11.5h-75v-133h75q15 0 27 12t12 28zM122 485v-138q0 -79 51 -130.5t127 -51.5q75 0 125.5 51.5t50.5 130.5v138q0 82 -50.5 134
t-125.5 52q-76 0 -127 -52t-51 -134zM81 349v134q0 99 63 163t156 64t155.5 -64t62.5 -163v-134q0 -97 -63 -160t-155 -63q-93 0 -156 63t-63 160z" />
    <glyph glyph-name="macron" unicode="&#xaf;" 
d="M170 590v45h260v-45h-260z" />
    <glyph glyph-name="degree" unicode="&#xb0;" 
d="M161 571q0 58 40.5 98.5t98.5 40.5t98.5 -40.5t40.5 -98.5t-40.5 -98.5t-98.5 -40.5t-98.5 40.5t-40.5 98.5zM201 571q0 -41 29 -70t70 -29t70 29t29 70t-29 70t-70 29t-70 -29t-29 -70z" />
    <glyph glyph-name="plusminus" unicode="&#xb1;" 
d="M274 500h51v-157h181v-50h-181v-154h-51v154h-181v50h181v157zM507 95v-50h-414v50h414z" />
    <glyph glyph-name="twosuperior" unicode="&#xb2;" 
d="M411 331h-222v35q0 41 27.5 75.5t60 55t60 50t27.5 62.5q0 28 -17 44.5t-43 16.5q-27 0 -46 -19.5t-20 -48.5h-42q0 43 30 75.5t80 32.5q44 0 73.5 -29t29.5 -72q0 -34 -18 -62.5t-43.5 -48t-51 -37.5t-43.5 -40.5t-18 -47.5h176v-42z" />
    <glyph glyph-name="threesuperior" unicode="&#xb3;" 
d="M194 420h42q0 -23 17.5 -39.5t44.5 -16.5q32 0 49.5 18.5t17.5 49.5v49q0 22 -14 37.5t-35 15.5h-41v40l73 86h-135v40h186v-38l-73 -87q37 -6 60 -32.5t23 -61.5v-49q0 -47 -31.5 -77.5t-79.5 -30.5q-46 0 -75 27.5t-29 68.5z" />
    <glyph glyph-name="acute" unicode="&#xb4;" 
d="M263 553h-54l109 122h72z" />
    <glyph glyph-name="mu" unicode="&#xb5;" 
d="M113 -180v680h47v-338q0 -58 32.5 -93.5t80.5 -35.5q50 0 88.5 34t38.5 82v351h47v-410q0 -19 11.5 -34t28.5 -18v-43q-27 1 -49 18.5t-32 45.5q-29 -35 -57.5 -52t-71.5 -17q-72 0 -117 64v-234h-47z" />
    <glyph glyph-name="paragraph" unicode="&#xb6;" 
d="M315 -180v502q-77 7 -129 60t-52 128q0 79 55 134.5t133 55.5h144v-880h-45v836h-61v-836h-45z" />
    <glyph glyph-name="periodcentered" unicode="&#xb7;" 
d="M265 258v70h70v-70h-70z" />
    <glyph glyph-name="cedilla" unicode="&#xb8;" 
d="M233 -180v41h51q17 0 27 8.5t10 22.5q0 28 -32 28h-45v80h40v-40h8q34 0 54.5 -19t20.5 -50q0 -30 -22 -50.5t-56 -20.5h-56z" />
    <glyph glyph-name="onesuperior" unicode="&#xb9;" 
d="M242 684l73 16h47v-369h-47v330l-73 -15v38z" />
    <glyph glyph-name="ordmasculine" unicode="&#xba;" 
d="M412 612v-120q0 -41 -31.5 -69.5t-79.5 -28.5q-49 0 -81 28.5t-32 69.5v120q0 41 32 69.5t81 28.5q48 0 79.5 -28.5t31.5 -69.5zM366 492v120q0 23 -19.5 40.5t-46.5 17.5q-26 0 -45.5 -17.5t-19.5 -40.5v-120q0 -23 19.5 -40.5t46.5 -17.5q26 0 45.5 17.5t19.5 40.5z
M411 340v-40h-221v40h221z" />
    <glyph glyph-name="guillemotright" unicode="&#xbb;" 
d="M350 140h-53l118 152l-118 152h53l117 -152zM185 140h-53l118 152l-118 152h53l118 -152z" />
    <glyph glyph-name="onequarter" unicode="&#xbc;" 
d="M91 0l351 700h41l-351 -700h-41zM302 78v42l123 249h48l-125 -249h116v85h45v-85h37v-42h-37v-78h-45v78h-162zM66 684l73 16h47v-369h-47v330l-73 -15v38z" />
    <glyph glyph-name="onehalf" unicode="&#xbd;" 
d="M72 0l351 700h41l-351 -700h-41zM60 684l73 16h47v-369h-47v330l-73 -15v38zM536 0h-222v35q0 41 27.5 75.5t60 55t60 50t27.5 62.5q0 28 -17 44.5t-43 16.5q-27 0 -46 -19.5t-20 -48.5h-42q0 43 30 75.5t80 32.5q44 0 73.5 -29t29.5 -72q0 -34 -18 -62.5t-43.5 -48
t-51 -37.5t-43.5 -40.5t-18 -47.5h176v-42z" />
    <glyph glyph-name="threequarters" unicode="&#xbe;" 
d="M116 0l351 700h41l-351 -700h-41zM304 78v42l123 249h48l-125 -249h116v85h45v-85h37v-42h-37v-78h-45v78h-162zM39 420h42q0 -23 17.5 -39.5t44.5 -16.5q32 0 49.5 18.5t17.5 49.5v49q0 22 -14 37.5t-35 15.5h-41v40l73 86h-135v40h186v-38l-73 -87q37 -6 60 -32.5
t23 -61.5v-49q0 -47 -31.5 -77.5t-79.5 -30.5q-46 0 -75 27.5t-29 68.5z" />
    <glyph glyph-name="questiondown" unicode="&#xbf;" 
d="M426 -33h52q-1 -78 -52.5 -127.5t-125.5 -49.5q-76 0 -127 48.5t-51 127.5q0 51 17 89.5t41.5 65t49 54.5t41.5 72t18 103h51q-1 -66 -18 -115t-41 -78t-48 -55t-41 -61t-17 -80q0 -51 36.5 -86t88.5 -35q53 0 88.5 36.5t37.5 90.5zM349 500v-70h-70v70h70z" />
    <glyph glyph-name="Agrave" unicode="&#xc0;" 
d="M246 700h108l125 -426v-274h-52v239h-254v-239h-52v274zM422 287l-104 365h-36l-104 -365h244zM350 753h-54l-127 122h72z" />
    <glyph glyph-name="Aacute" unicode="&#xc1;" 
d="M246 700h108l125 -426v-274h-52v239h-254v-239h-52v274zM422 287l-104 365h-36l-104 -365h244zM314 753h-54l109 122h72z" />
    <glyph glyph-name="Acircumflex" unicode="&#xc2;" 
d="M246 700h108l125 -426v-274h-52v239h-254v-239h-52v274zM422 287l-104 365h-36l-104 -365h244zM229 753h-51l87 122h67l88 -122h-50l-71 87z" />
    <glyph glyph-name="Atilde" unicode="&#xc3;" 
d="M246 700h108l125 -426v-274h-52v239h-254v-239h-52v274zM422 287l-104 365h-36l-104 -365h244zM242 859q26 0 63 -21t54 -21q14 0 23 9.5t9 25.5v7h46v-7q0 -35 -22.5 -57t-55.5 -22q-26 0 -63 21t-54 21q-14 0 -23.5 -9.5t-9.5 -24.5v-8h-46v8q0 35 22.5 56.5t56.5 21.5
z" />
    <glyph glyph-name="Adieresis" unicode="&#xc4;" 
d="M246 700h108l125 -426v-274h-52v239h-254v-239h-52v274zM422 287l-104 365h-36l-104 -365h244zM187 797v70h58v-70h-58zM354 797v70h58v-70h-58z" />
    <glyph glyph-name="Aring" unicode="&#xc5;" 
d="M246 700h108l125 -426v-274h-52v239h-254v-239h-52v274zM422 287l-104 365h-36l-104 -365h244zM218 823q0 34 24 57.5t57 23.5t57.5 -24t24.5 -57t-24.5 -56.5t-57.5 -23.5t-57 23.5t-24 56.5zM256 823q0 -18 12.5 -31t30.5 -13t31 13t13 31q0 19 -12.5 32t-31.5 13
q-18 0 -30.5 -13t-12.5 -32z" />
    <glyph glyph-name="AE" unicode="&#xc6;" 
d="M215 700h305v-48h-176v-258h152v-48h-152v-298h183v-48h-235v239h-150v-239h-52v278zM249 652l-104 -365h147v365h-43z" />
    <glyph glyph-name="Ccedilla" unicode="&#xc7;" 
d="M483 169v-4q0 -73 -52 -124t-126 -51v-30h8q34 0 54.5 -19t20.5 -50q0 -30 -22 -50.5t-56 -20.5h-56v41h51q17 0 27 8.5t10 22.5q0 28 -32 28h-45v75q-61 13 -100 60.5t-39 110.5v369q0 73 51 124t128 51q75 0 126 -51t51 -124h-51q-1 53 -37.5 90t-88.5 37
q-54 0 -90.5 -37t-36.5 -91v-369q0 -53 36.5 -90t90.5 -37q53 0 89.5 36.5t36.5 89.5v5h52z" />
    <glyph glyph-name="Egrave" unicode="&#xc8;" 
d="M147 700h314v-48h-262v-258h238v-48h-238v-298h271v-48h-323v700zM367 753h-54l-127 122h72z" />
    <glyph glyph-name="Eacute" unicode="&#xc9;" 
d="M147 700h314v-48h-262v-258h238v-48h-238v-298h271v-48h-323v700zM295 753h-54l109 122h72z" />
    <glyph glyph-name="Ecircumflex" unicode="&#xca;" 
d="M147 700h314v-48h-262v-258h238v-48h-238v-298h271v-48h-323v700zM234 753h-51l87 122h67l88 -122h-50l-71 87z" />
    <glyph glyph-name="Edieresis" unicode="&#xcb;" 
d="M147 700h314v-48h-262v-258h238v-48h-238v-298h271v-48h-323v700zM192 797v70h58v-70h-58zM359 797v70h58v-70h-58z" />
    <glyph glyph-name="Igrave" unicode="&#xcc;" 
d="M119 652v48h362v-48h-154v-604h154v-48h-362v48h156v604h-156zM365 753h-54l-127 122h72z" />
    <glyph glyph-name="Iacute" unicode="&#xcd;" 
d="M119 652v48h362v-48h-154v-604h154v-48h-362v48h156v604h-156zM293 753h-54l109 122h72z" />
    <glyph glyph-name="Icircumflex" unicode="&#xce;" 
d="M119 652v48h362v-48h-154v-604h154v-48h-362v48h156v604h-156zM229 753h-51l87 122h67l88 -122h-50l-71 87z" />
    <glyph glyph-name="Idieresis" unicode="&#xcf;" 
d="M119 652v48h362v-48h-154v-604h154v-48h-362v48h156v604h-156zM187 797v70h58v-70h-58zM354 797v70h58v-70h-58z" />
    <glyph glyph-name="Eth" unicode="&#xd0;" 
d="M74 346v46h62v308h171q75 0 125.5 -50.5t50.5 -125.5v-348q0 -74 -50.5 -125t-125.5 -51h-171v346h-62zM431 174v349q0 55 -35.5 91t-91.5 36h-116v-258h114v-46h-114v-298h116q55 0 91 35.5t36 90.5z" />
    <glyph glyph-name="Ntilde" unicode="&#xd1;" 
d="M428 0l-262 596q4 -97 4 -232v-364h-48v700h50l263 -598q-5 96 -5 234v364h48v-700h-50zM245 859q26 0 63 -21t54 -21q14 0 23 9.5t9 25.5v7h46v-7q0 -35 -22.5 -57t-55.5 -22q-26 0 -63 21t-54 21q-15 0 -24 -9.5t-9 -24.5v-8h-46v8q0 35 22.5 56.5t56.5 21.5z" />
    <glyph glyph-name="Ograve" unicode="&#xd2;" 
d="M484 535v-370q0 -74 -51.5 -124.5t-132.5 -50.5t-133 51t-52 125v369q0 74 52 124.5t133 50.5t132.5 -50.5t51.5 -124.5zM432 164v370q0 54 -36.5 91t-95.5 37q-60 0 -96.5 -37t-36.5 -91v-369q0 -54 36.5 -90.5t96.5 -36.5q59 0 95.5 36t36.5 90zM346 753h-54l-127 122
h72z" />
    <glyph glyph-name="Oacute" unicode="&#xd3;" 
d="M484 535v-370q0 -74 -51.5 -124.5t-132.5 -50.5t-133 51t-52 125v369q0 74 52 124.5t133 50.5t132.5 -50.5t51.5 -124.5zM432 164v370q0 54 -36.5 91t-95.5 37q-60 0 -96.5 -37t-36.5 -91v-369q0 -54 36.5 -90.5t96.5 -36.5q59 0 95.5 36t36.5 90zM310 753h-54l109 122
h72z" />
    <glyph glyph-name="Ocircumflex" unicode="&#xd4;" 
d="M484 535v-370q0 -74 -51.5 -124.5t-132.5 -50.5t-133 51t-52 125v369q0 74 52 124.5t133 50.5t132.5 -50.5t51.5 -124.5zM432 164v370q0 54 -36.5 91t-95.5 37q-60 0 -96.5 -37t-36.5 -91v-369q0 -54 36.5 -90.5t96.5 -36.5q59 0 95.5 36t36.5 90zM229 753h-51l87 122h67
l88 -122h-50l-71 87z" />
    <glyph glyph-name="Otilde" unicode="&#xd5;" 
d="M484 535v-370q0 -74 -51.5 -124.5t-132.5 -50.5t-133 51t-52 125v369q0 74 52 124.5t133 50.5t132.5 -50.5t51.5 -124.5zM432 164v370q0 54 -36.5 91t-95.5 37q-60 0 -96.5 -37t-36.5 -91v-369q0 -54 36.5 -90.5t96.5 -36.5q59 0 95.5 36t36.5 90zM242 859q26 0 63 -21
t54 -21q14 0 23 9.5t9 25.5v7h46v-7q0 -35 -22.5 -57t-55.5 -22q-26 0 -63 21t-54 21q-14 0 -23.5 -9.5t-9.5 -24.5v-8h-46v8q0 35 22.5 56.5t56.5 21.5z" />
    <glyph glyph-name="Odieresis" unicode="&#xd6;" 
d="M484 535v-370q0 -74 -51.5 -124.5t-132.5 -50.5t-133 51t-52 125v369q0 74 52 124.5t133 50.5t132.5 -50.5t51.5 -124.5zM432 164v370q0 54 -36.5 91t-95.5 37q-60 0 -96.5 -37t-36.5 -91v-369q0 -54 36.5 -90.5t96.5 -36.5q59 0 95.5 36t36.5 90zM187 797v70h58v-70h-58
zM354 797v70h58v-70h-58z" />
    <glyph glyph-name="multiply" unicode="&#xd7;" 
d="M116 440l35 35l149 -147l147 147l36 -35l-148 -148l148 -147l-36 -36l-147 148l-148 -147l-36 35l148 147z" />
    <glyph glyph-name="Oslash" unicode="&#xd8;" 
d="M79 11l49 85q-13 30 -13 70v369q0 74 52 124.5t133 50.5q92 0 146 -66l39 67l38 -21l-52 -89q13 -33 13 -66v-370q0 -74 -51.5 -124.5t-132.5 -50.5q-92 0 -146 64l-38 -66zM167 162l250 433q-15 31 -46 49t-71 18q-60 0 -96.5 -37t-36.5 -91v-372zM432 164v369
l-250 -431q35 -64 118 -64q59 0 95.5 36t36.5 90z" />
    <glyph glyph-name="Ugrave" unicode="&#xd9;" 
d="M432 700h52v-535q0 -73 -51 -124t-124 -51h-19q-72 0 -123.5 51.5t-51.5 124.5v534h52v-535q0 -53 36.5 -90t90.5 -37h12q53 0 89.5 36.5t36.5 89.5v536zM345 753h-54l-127 122h72z" />
    <glyph glyph-name="Uacute" unicode="&#xda;" 
d="M432 700h52v-535q0 -73 -51 -124t-124 -51h-19q-72 0 -123.5 51.5t-51.5 124.5v534h52v-535q0 -53 36.5 -90t90.5 -37h12q53 0 89.5 36.5t36.5 89.5v536zM309 753h-54l109 122h72z" />
    <glyph glyph-name="Ucircumflex" unicode="&#xdb;" 
d="M432 700h52v-535q0 -73 -51 -124t-124 -51h-19q-72 0 -123.5 51.5t-51.5 124.5v534h52v-535q0 -53 36.5 -90t90.5 -37h12q53 0 89.5 36.5t36.5 89.5v536zM229 753h-51l87 122h67l88 -122h-50l-71 87z" />
    <glyph glyph-name="Udieresis" unicode="&#xdc;" 
d="M432 700h52v-535q0 -73 -51 -124t-124 -51h-19q-72 0 -123.5 51.5t-51.5 124.5v534h52v-535q0 -53 36.5 -90t90.5 -37h12q53 0 89.5 36.5t36.5 89.5v536zM187 797v70h58v-70h-58zM354 797v70h58v-70h-58z" />
    <glyph glyph-name="Yacute" unicode="&#xdd;" 
d="M154 700l147 -309l145 309h57l-177 -367v-333h-52v333l-178 367h58zM292 753h-54l109 122h72z" />
    <glyph glyph-name="Thorn" unicode="&#xde;" 
d="M148 0v700h52v-105h126q62 0 104 -41.5t42 -104.5v-152q0 -63 -42 -105t-104 -42h-126v-150h-52zM420 294v154q0 42 -27.5 69.5t-69.5 27.5h-123v-347h123q42 0 69.5 27t27.5 69z" />
    <glyph glyph-name="germandbls" unicode="&#xdf;" 
d="M241 122v12h48v-12q0 -37 26 -63t63 -26t62.5 26t25.5 63q0 33 -17 61t-41.5 49t-49 43t-41.5 53.5t-17 70.5q0 44 32.5 74t79.5 38v21q0 58 -35 96.5t-86 38.5q-52 0 -89 -38.5t-37 -96.5v-532h-49v533q0 74 50.5 125.5t124.5 51.5q72 0 120 -47.5t48 -112.5v-51
q0 -9 -7 -15t-13 -7q-40 -7 -65 -27t-25 -48q0 -29 17 -54.5t41.5 -47t49 -44.5t41.5 -56t17 -72q0 -58 -40 -98t-99 -40q-55 0 -95 39t-40 93z" />
    <glyph glyph-name="agrave" unicode="&#xe0;" 
d="M420 0v53q-2 -3 -5.5 -7t-16 -15t-27.5 -19t-39.5 -15t-51.5 -7q-66 0 -112.5 42t-46.5 107q0 67 47 108.5t119 46.5l133 9v46q0 52 -30 85t-82 33q-42 0 -71 -24t-38 -62h-49q9 57 51.5 93t106.5 36q77 0 119 -45t42 -117v-348h-49zM286 32q53 0 93.5 32t40.5 74v122
l-121 -7q-60 -4 -94.5 -33.5t-34.5 -79.5q0 -46 32 -77t84 -31zM373 553h-54l-127 122h72z" />
    <glyph glyph-name="aacute" unicode="&#xe1;" 
d="M420 0v53q-2 -3 -5.5 -7t-16 -15t-27.5 -19t-39.5 -15t-51.5 -7q-66 0 -112.5 42t-46.5 107q0 67 47 108.5t119 46.5l133 9v46q0 52 -30 85t-82 33q-42 0 -71 -24t-38 -62h-49q9 57 51.5 93t106.5 36q77 0 119 -45t42 -117v-348h-49zM286 32q53 0 93.5 32t40.5 74v122
l-121 -7q-60 -4 -94.5 -33.5t-34.5 -79.5q0 -46 32 -77t84 -31zM329 553h-54l109 122h72z" />
    <glyph glyph-name="acircumflex" unicode="&#xe2;" 
d="M420 0v53q-2 -3 -5.5 -7t-16 -15t-27.5 -19t-39.5 -15t-51.5 -7q-66 0 -112.5 42t-46.5 107q0 67 47 108.5t119 46.5l133 9v46q0 52 -30 85t-82 33q-42 0 -71 -24t-38 -62h-49q9 57 51.5 93t106.5 36q77 0 119 -45t42 -117v-348h-49zM286 32q53 0 93.5 32t40.5 74v122
l-121 -7q-60 -4 -94.5 -33.5t-34.5 -79.5q0 -46 32 -77t84 -31zM238 553h-51l87 122h67l88 -122h-50l-71 87z" />
    <glyph glyph-name="atilde" unicode="&#xe3;" 
d="M420 0v53q-2 -3 -5.5 -7t-16 -15t-27.5 -19t-39.5 -15t-51.5 -7q-66 0 -112.5 42t-46.5 107q0 67 47 108.5t119 46.5l133 9v46q0 52 -30 85t-82 33q-42 0 -71 -24t-38 -62h-49q9 57 51.5 93t106.5 36q77 0 119 -45t42 -117v-348h-49zM286 32q53 0 93.5 32t40.5 74v122
l-121 -7q-60 -4 -94.5 -33.5t-34.5 -79.5q0 -46 32 -77t84 -31zM249 659q26 0 63 -21t54 -21q14 0 23 9.5t9 25.5v7h46v-7q0 -35 -22.5 -57t-55.5 -22q-26 0 -63 21t-54 21q-15 0 -24 -9.5t-9 -24.5v-8h-46v8q0 35 22.5 56.5t56.5 21.5z" />
    <glyph glyph-name="adieresis" unicode="&#xe4;" 
d="M420 0v53q-2 -3 -5.5 -7t-16 -15t-27.5 -19t-39.5 -15t-51.5 -7q-66 0 -112.5 42t-46.5 107q0 67 47 108.5t119 46.5l133 9v46q0 52 -30 85t-82 33q-42 0 -71 -24t-38 -62h-49q9 57 51.5 93t106.5 36q77 0 119 -45t42 -117v-348h-49zM286 32q53 0 93.5 32t40.5 74v122
l-121 -7q-60 -4 -94.5 -33.5t-34.5 -79.5q0 -46 32 -77t84 -31zM197 597v70h58v-70h-58zM364 597v70h58v-70h-58z" />
    <glyph glyph-name="aring" unicode="&#xe5;" 
d="M420 0v53q-2 -3 -5.5 -7t-16 -15t-27.5 -19t-39.5 -15t-51.5 -7q-66 0 -112.5 42t-46.5 107q0 67 47 108.5t119 46.5l133 9v46q0 52 -30 85t-82 33q-42 0 -71 -24t-38 -62h-49q9 57 51.5 93t106.5 36q77 0 119 -45t42 -117v-348h-49zM286 32q53 0 93.5 32t40.5 74v122
l-121 -7q-60 -4 -94.5 -33.5t-34.5 -79.5q0 -46 32 -77t84 -31zM229 623q0 34 24 57.5t57 23.5t57.5 -24t24.5 -57t-24.5 -56.5t-57.5 -23.5t-57 23.5t-24 56.5zM267 623q0 -18 12.5 -31t30.5 -13t31 13t13 31q0 19 -12.5 32t-31.5 13q-18 0 -30.5 -13t-12.5 -32z" />
    <glyph glyph-name="ae" unicode="&#xe6;" 
d="M199 -10q-55 0 -88.5 34.5t-33.5 86.5v51q0 58 34 92.5t84 34.5h82v100q0 32 -21.5 55t-50.5 23q-32 0 -49 -23t-17 -63h-48q0 57 33 93t81 36q20 0 38 -6.5t28.5 -15t18.5 -17.5t12 -15l3 -7q1 2 3 6.5t10 15t18.5 18.5t29 14.5t40.5 6.5q50 0 83 -34.5t33 -85.5v-143
h-194v-131q0 -38 19.5 -60.5t58.5 -22.5q30 0 50 21t20 54v38h45v-38q0 -49 -34 -83.5t-84 -34.5q-22 0 -41 6t-29.5 14t-18.5 16t-10 14l-3 6q-3 -6 -10.5 -15.5t-33.5 -25t-58 -15.5zM406 467q-32 0 -55 -23t-23 -56v-99h149v95q0 36 -20.5 59.5t-50.5 23.5zM199 33
q34 0 56 23.5t22 59.5v131h-79q-31 0 -52 -23t-21 -62v-52q0 -33 20.5 -55t53.5 -22z" />
    <glyph glyph-name="ccedilla" unicode="&#xe7;" 
d="M173 349v-198q0 -51 36.5 -84.5t90.5 -33.5q52 0 88 31t38 82h47q-4 -67 -50 -111t-118 -45v-30h8q34 0 54.5 -19t20.5 -50q0 -30 -22 -50.5t-56 -20.5h-56v41h51q17 0 27 8.5t10 22.5q0 28 -32 28h-45v73q-65 10 -102.5 53.5t-37.5 106.5v194q0 70 48 116.5t127 46.5
q72 0 119 -44t51 -109h-49q-2 48 -36.5 79t-84.5 31q-54 0 -90.5 -33.5t-36.5 -84.5z" />
    <glyph glyph-name="egrave" unicode="&#xe8;" 
d="M426 146h48q-4 -68 -51.5 -112t-122.5 -44q-78 0 -126.5 44.5t-48.5 110.5v210q0 66 48.5 110.5t126.5 44.5q77 0 125.5 -45t48.5 -110v-119h-301v-83q0 -53 35.5 -86.5t90.5 -33.5t90 31t37 82zM173 346v-67h253v68q0 53 -36.5 86.5t-90.5 33.5t-90 -34t-36 -87z
M350 553h-54l-127 122h72z" />
    <glyph glyph-name="eacute" unicode="&#xe9;" 
d="M426 146h48q-4 -68 -51.5 -112t-122.5 -44q-78 0 -126.5 44.5t-48.5 110.5v210q0 66 48.5 110.5t126.5 44.5q77 0 125.5 -45t48.5 -110v-119h-301v-83q0 -53 35.5 -86.5t90.5 -33.5t90 31t37 82zM173 346v-67h253v68q0 53 -36.5 86.5t-90.5 33.5t-90 -34t-36 -87z
M295 553h-54l109 122h72z" />
    <glyph glyph-name="ecircumflex" unicode="&#xea;" 
d="M426 146h48q-4 -68 -51.5 -112t-122.5 -44q-78 0 -126.5 44.5t-48.5 110.5v210q0 66 48.5 110.5t126.5 44.5q77 0 125.5 -45t48.5 -110v-119h-301v-83q0 -53 35.5 -86.5t90.5 -33.5t90 31t37 82zM173 346v-67h253v68q0 53 -36.5 86.5t-90.5 33.5t-90 -34t-36 -87z
M229 553h-51l87 122h67l88 -122h-50l-71 87z" />
    <glyph glyph-name="edieresis" unicode="&#xeb;" 
d="M426 146h48q-4 -68 -51.5 -112t-122.5 -44q-78 0 -126.5 44.5t-48.5 110.5v210q0 66 48.5 110.5t126.5 44.5q77 0 125.5 -45t48.5 -110v-119h-301v-83q0 -53 35.5 -86.5t90.5 -33.5t90 31t37 82zM173 346v-67h253v68q0 53 -36.5 86.5t-90.5 33.5t-90 -34t-36 -87z
M187 597v70h58v-70h-58zM354 597v70h58v-70h-58z" />
    <glyph glyph-name="igrave" unicode="&#xec;" 
d="M119 500h210v-457h142v-43h-352v43h160v414h-160v43zM346 553h-54l-127 122h72z" />
    <glyph glyph-name="iacute" unicode="&#xed;" 
d="M119 500h210v-457h142v-43h-352v43h160v414h-160v43zM293 553h-54l109 122h72z" />
    <glyph glyph-name="icircumflex" unicode="&#xee;" 
d="M119 500h210v-457h142v-43h-352v43h160v414h-160v43zM230 553h-51l87 122h67l88 -122h-50l-71 87z" />
    <glyph glyph-name="idieresis" unicode="&#xef;" 
d="M119 500h210v-457h142v-43h-352v43h160v414h-160v43zM187 597v70h58v-70h-58zM354 597v70h58v-70h-58z" />
    <glyph glyph-name="eth" unicode="&#xf0;" 
d="M269 416q-54 0 -90.5 -35t-36.5 -89v-131q0 -54 36.5 -91t90.5 -37t90 36.5t36 90.5v132q0 54 -36 89t-90 35zM510 592l-69 -25q2 -10 2 -21v-393q0 -72 -48.5 -117.5t-125.5 -45.5q-78 0 -126.5 45.5t-48.5 117.5v142q0 73 48.5 118.5t126.5 45.5q40 0 71.5 -15.5
t43.5 -30.5l11 -15v129l-1 22l-99 -36v45l87 32q-11 29 -41 48t-68 19h-51v43h54q55 0 94.5 -26.5t58.5 -66.5l81 30v-45z" />
    <glyph glyph-name="ntilde" unicode="&#xf1;" 
d="M480 350v-350h-49v340q0 60 -33 94t-87 34q-55 0 -94 -35t-39 -83v-350h-49v500h47l2 -56q5 7 14.5 18t44.5 29.5t76 18.5q76 0 121.5 -46t45.5 -114zM248 659q26 0 63 -21t54 -21q14 0 23 9.5t9 25.5v7h46v-7q0 -35 -22.5 -57t-55.5 -22q-26 0 -63 21t-54 21
q-14 0 -23.5 -9.5t-9.5 -24.5v-8h-46v8q0 35 22.5 56.5t56.5 21.5z" />
    <glyph glyph-name="ograve" unicode="&#xf2;" 
d="M474 145v210q0 65 -48.5 110t-125.5 45q-78 0 -126.5 -44.5t-48.5 -110.5v-210q0 -66 48.5 -110.5t126.5 -44.5q77 0 125.5 45t48.5 110zM426 349v-198q0 -50 -36.5 -84t-89.5 -34q-54 0 -90.5 34t-36.5 84v198q0 50 36.5 84t89.5 34t90 -34t37 -84zM362 553h-54
l-127 122h72z" />
    <glyph glyph-name="oacute" unicode="&#xf3;" 
d="M474 145v210q0 65 -48.5 110t-125.5 45q-78 0 -126.5 -44.5t-48.5 -110.5v-210q0 -66 48.5 -110.5t126.5 -44.5q77 0 125.5 45t48.5 110zM426 349v-198q0 -50 -36.5 -84t-89.5 -34q-54 0 -90.5 34t-36.5 84v198q0 50 36.5 84t89.5 34t90 -34t37 -84zM304 553h-54l109 122
h72z" />
    <glyph glyph-name="ocircumflex" unicode="&#xf4;" 
d="M474 145v210q0 65 -48.5 110t-125.5 45q-78 0 -126.5 -44.5t-48.5 -110.5v-210q0 -66 48.5 -110.5t126.5 -44.5q77 0 125.5 45t48.5 110zM426 349v-198q0 -50 -36.5 -84t-89.5 -34q-54 0 -90.5 34t-36.5 84v198q0 50 36.5 84t89.5 34t90 -34t37 -84zM229 553h-51l87 122
h67l88 -122h-50l-71 87z" />
    <glyph glyph-name="otilde" unicode="&#xf5;" 
d="M474 145v210q0 65 -48.5 110t-125.5 45q-78 0 -126.5 -44.5t-48.5 -110.5v-210q0 -66 48.5 -110.5t126.5 -44.5q77 0 125.5 45t48.5 110zM426 349v-198q0 -50 -36.5 -84t-89.5 -34q-54 0 -90.5 34t-36.5 84v198q0 50 36.5 84t89.5 34t90 -34t37 -84zM242 659q26 0 63 -21
t54 -21q14 0 23 9.5t9 25.5v7h46v-7q0 -35 -22.5 -57t-55.5 -22q-26 0 -63 21t-54 21q-14 0 -23.5 -9.5t-9.5 -24.5v-8h-46v8q0 35 22.5 56.5t56.5 21.5z" />
    <glyph glyph-name="odieresis" unicode="&#xf6;" 
d="M474 145v210q0 65 -48.5 110t-125.5 45q-78 0 -126.5 -44.5t-48.5 -110.5v-210q0 -66 48.5 -110.5t126.5 -44.5q77 0 125.5 45t48.5 110zM426 349v-198q0 -50 -36.5 -84t-89.5 -34q-54 0 -90.5 34t-36.5 84v198q0 50 36.5 84t89.5 34t90 -34t37 -84zM187 597v70h58v-70
h-58zM354 597v70h58v-70h-58z" />
    <glyph glyph-name="divide" unicode="&#xf7;" 
d="M93 307h414v-49h-414v49zM264 79v70h70v-70h-70zM264 417v70h70v-70h-70z" />
    <glyph glyph-name="oslash" unicode="&#xf8;" 
d="M474 355v-210q0 -65 -48.5 -110t-125.5 -45q-64 0 -112 33l-20 -36l-32 19l24 42q-35 41 -35 97v210q0 66 48.5 110.5t126.5 44.5q63 0 109 -32l20 35l33 -18l-24 -42q36 -42 36 -98zM426 151v198q0 33 -15 58l-199 -343q34 -31 88 -31q53 0 89.5 34t36.5 84zM173 151
q0 -31 14 -56l198 342q-35 30 -86 30q-53 0 -89.5 -34t-36.5 -84v-198z" />
    <glyph glyph-name="ugrave" unicode="&#xf9;" 
d="M125 150v350h49v-340q0 -61 33 -94.5t87 -33.5q55 0 94 35t39 83v350h49v-500h-47l-2 56q-5 -7 -14.5 -18t-44.5 -29.5t-76 -18.5q-76 0 -121.5 45t-45.5 115zM355 553h-54l-127 122h72z" />
    <glyph glyph-name="uacute" unicode="&#xfa;" 
d="M125 150v350h49v-340q0 -61 33 -94.5t87 -33.5q55 0 94 35t39 83v350h49v-500h-47l-2 56q-5 -7 -14.5 -18t-44.5 -29.5t-76 -18.5q-76 0 -121.5 45t-45.5 115zM296 553h-54l109 122h72z" />
    <glyph glyph-name="ucircumflex" unicode="&#xfb;" 
d="M125 150v350h49v-340q0 -61 33 -94.5t87 -33.5q55 0 94 35t39 83v350h49v-500h-47l-2 56q-5 -7 -14.5 -18t-44.5 -29.5t-76 -18.5q-76 0 -121.5 45t-45.5 115zM229 553h-51l87 122h67l88 -122h-50l-71 87z" />
    <glyph glyph-name="udieresis" unicode="&#xfc;" 
d="M125 150v350h49v-340q0 -61 33 -94.5t87 -33.5q55 0 94 35t39 83v350h49v-500h-47l-2 56q-5 -7 -14.5 -18t-44.5 -29.5t-76 -18.5q-76 0 -121.5 45t-45.5 115zM187 597v70h58v-70h-58zM354 597v70h58v-70h-58z" />
    <glyph glyph-name="yacute" unicode="&#xfd;" 
d="M146 500l152 -425l154 425h55l-257 -680h-50l71 187l-180 493h55zM299 553h-54l109 122h72z" />
    <glyph glyph-name="thorn" unicode="&#xfe;" 
d="M432 159v182q0 60 -34 93t-86 33q-57 0 -95 -36t-38 -90v-182q0 -54 38 -90t95 -36q51 0 85.5 33.5t34.5 92.5zM179 55v-235h-49v880h49v-255q5 7 14.5 18t44 29t74.5 18q75 0 122 -45.5t47 -113.5v-202q0 -68 -47 -113.5t-122 -45.5q-40 0 -73.5 16.5t-46.5 32.5z" />
    <glyph glyph-name="ydieresis" unicode="&#xff;" 
d="M146 500l152 -425l154 425h55l-257 -680h-50l71 187l-180 493h55zM187 597v70h58v-70h-58zM354 597v70h58v-70h-58z" />
    <glyph glyph-name="Amacron" unicode="&#x100;" 
d="M246 700h108l125 -426v-274h-52v239h-254v-239h-52v274zM422 287l-104 365h-36l-104 -365h244zM170 790v45h260v-45h-260z" />
    <glyph glyph-name="amacron" unicode="&#x101;" 
d="M420 0v53q-2 -3 -5.5 -7t-16 -15t-27.5 -19t-39.5 -15t-51.5 -7q-66 0 -112.5 42t-46.5 107q0 67 47 108.5t119 46.5l133 9v46q0 52 -30 85t-82 33q-42 0 -71 -24t-38 -62h-49q9 57 51.5 93t106.5 36q77 0 119 -45t42 -117v-348h-49zM286 32q53 0 93.5 32t40.5 74v122
l-121 -7q-60 -4 -94.5 -33.5t-34.5 -79.5q0 -46 32 -77t84 -31zM177 590v45h260v-45h-260z" />
    <glyph glyph-name="Abreve" unicode="&#x102;" 
d="M246 700h108l125 -426v-274h-52v239h-254v-239h-52v274zM422 287l-104 365h-36l-104 -365h244zM300 800q25 0 42 9.5t23.5 23.5t8.5 22.5t2 15.5h49q0 -11 -2.5 -23t-10.5 -29t-20.5 -30t-36.5 -22t-55 -9t-55 9t-36.5 22t-20.5 30t-10.5 29t-2.5 23h49q0 -7 2 -15.5
t8.5 -22.5t23.5 -23.5t42 -9.5z" />
    <glyph glyph-name="abreve" unicode="&#x103;" 
d="M420 0v53q-2 -3 -5.5 -7t-16 -15t-27.5 -19t-39.5 -15t-51.5 -7q-66 0 -112.5 42t-46.5 107q0 67 47 108.5t119 46.5l133 9v46q0 52 -30 85t-82 33q-42 0 -71 -24t-38 -62h-49q9 57 51.5 93t106.5 36q77 0 119 -45t42 -117v-348h-49zM286 32q53 0 93.5 32t40.5 74v122
l-121 -7q-60 -4 -94.5 -33.5t-34.5 -79.5q0 -46 32 -77t84 -31zM310 600q25 0 42 9.5t23.5 23.5t8.5 22.5t2 15.5h49q0 -11 -2.5 -23t-10.5 -29t-20.5 -30t-36.5 -22t-55 -9t-55 9t-36.5 22t-20.5 30t-10.5 29t-2.5 23h49q0 -7 2 -15.5t8.5 -22.5t23.5 -23.5t42 -9.5z" />
    <glyph glyph-name="Aogonek" unicode="&#x104;" 
d="M246 700h108l125 -426v-274q-8 -6 -20 -16.5t-32.5 -38t-20.5 -48.5q0 -18 11.5 -27.5t28.5 -9.5h45v-40h-51q-36 0 -58 19.5t-22 51.5q0 26 19 53t37 42l19 14h-8v239h-254v-239h-52v274zM422 287l-104 365h-36l-104 -365h244z" />
    <glyph glyph-name="aogonek" unicode="&#x105;" 
d="M420 0v53q-2 -3 -5.5 -7t-16 -15t-27.5 -19t-39.5 -15t-51.5 -7q-66 0 -112.5 42t-46.5 107q0 67 47 108.5t119 46.5l133 9v46q0 52 -30 85t-82 33q-42 0 -71 -24t-38 -62h-49q9 57 51.5 93t106.5 36q77 0 119 -45t42 -117v-348q-8 -6 -20 -16.5t-32.5 -38t-20.5 -48.5
q0 -18 11.5 -27.5t28.5 -9.5h45v-40h-51q-36 0 -58 19.5t-22 51.5q0 26 17.5 53t34.5 42zM286 32q53 0 93.5 32t40.5 74v122l-121 -7q-60 -4 -94.5 -33.5t-34.5 -79.5q0 -46 32 -77t84 -31z" />
    <glyph glyph-name="Cacute" unicode="&#x106;" 
d="M483 169v-4q0 -73 -52 -124t-126 -51q-75 0 -127 51.5t-52 124.5v369q0 73 51 124t128 51q75 0 126 -51t51 -124h-51q-1 53 -38 90.5t-89 37.5q-54 0 -90 -37.5t-36 -91.5v-367q0 -53 38 -91t89 -38q53 0 89.5 36.5t36.5 89.5v5h52zM303 753h-54l109 122h72z" />
    <glyph glyph-name="cacute" unicode="&#x107;" 
d="M173 349v-198q0 -51 36.5 -84.5t90.5 -33.5q52 0 88 31t38 82h47q-4 -67 -51.5 -111.5t-121.5 -44.5q-79 0 -127 46t-48 117v194q0 70 48 116.5t127 46.5q72 0 119 -44t51 -109h-49q-2 48 -36.5 79t-84.5 31q-54 0 -90.5 -33.5t-36.5 -84.5zM304 553h-54l109 122h72z" />
    <glyph glyph-name="Ccircumflex" unicode="&#x108;" 
d="M483 169v-4q0 -73 -52 -124t-126 -51q-75 0 -127 51.5t-52 124.5v369q0 73 51 124t128 51q75 0 126 -51t51 -124h-51q-1 53 -38 90.5t-89 37.5q-54 0 -90 -37.5t-36 -91.5v-367q0 -53 38 -91t89 -38q53 0 89.5 36.5t36.5 89.5v5h52zM234 753h-51l87 122h67l88 -122h-50
l-71 87z" />
    <glyph glyph-name="ccircumflex" unicode="&#x109;" 
d="M173 349v-198q0 -51 36.5 -84.5t90.5 -33.5q52 0 88 31t38 82h47q-4 -67 -51.5 -111.5t-121.5 -44.5q-79 0 -127 46t-48 117v194q0 70 48 116.5t127 46.5q72 0 119 -44t51 -109h-49q-2 48 -36.5 79t-84.5 31q-54 0 -90.5 -33.5t-36.5 -84.5zM230 553h-51l87 122h67
l88 -122h-50l-71 87z" />
    <glyph glyph-name="Cdotaccent" unicode="&#x10a;" 
d="M483 169v-4q0 -73 -52 -124t-126 -51q-75 0 -127 51.5t-52 124.5v369q0 73 51 124t128 51q75 0 126 -51t51 -124h-51q-1 53 -38 90.5t-89 37.5q-54 0 -90 -37.5t-36 -91.5v-367q0 -53 38 -91t89 -38q53 0 89.5 36.5t36.5 89.5v5h52zM272 797v70h66v-70h-66z" />
    <glyph glyph-name="cdotaccent" unicode="&#x10b;" 
d="M173 349v-198q0 -51 36.5 -84.5t90.5 -33.5q52 0 88 31t38 82h47q-4 -67 -51.5 -111.5t-121.5 -44.5q-79 0 -127 46t-48 117v194q0 70 48 116.5t127 46.5q72 0 119 -44t51 -109h-49q-2 48 -36.5 79t-84.5 31q-54 0 -90.5 -33.5t-36.5 -84.5zM267 597v70h66v-70h-66z" />
    <glyph glyph-name="Ccaron" unicode="&#x10c;" 
d="M483 169v-4q0 -73 -52 -124t-126 -51q-75 0 -127 51.5t-52 124.5v369q0 73 51 124t128 51q75 0 126 -51t51 -124h-51q-1 53 -38 90.5t-89 37.5q-54 0 -90 -37.5t-36 -91.5v-367q0 -53 38 -91t89 -38q53 0 89.5 36.5t36.5 89.5v5h52zM183 875h51l70 -87l71 87h50l-88 -122
h-67z" />
    <glyph glyph-name="ccaron" unicode="&#x10d;" 
d="M173 349v-198q0 -51 36.5 -84.5t90.5 -33.5q52 0 88 31t38 82h47q-4 -67 -51.5 -111.5t-121.5 -44.5q-79 0 -127 46t-48 117v194q0 70 48 116.5t127 46.5q72 0 119 -44t51 -109h-49q-2 48 -36.5 79t-84.5 31q-54 0 -90.5 -33.5t-36.5 -84.5zM179 675h51l70 -87l71 87h50
l-88 -122h-67z" />
    <glyph glyph-name="Dcaron" unicode="&#x10e;" 
d="M478 524v-348q0 -74 -50.5 -125t-125.5 -51h-171v700h171q75 0 125.5 -50.5t50.5 -125.5zM426 174v349q0 55 -36 91t-91 36h-116v-602h116q55 0 91 35.5t36 90.5zM178 875h51l70 -87l71 87h50l-88 -122h-67z" />
    <glyph glyph-name="dcaron" unicode="&#x10f;" 
d="M398 448v252h49v-700h-49v54q-5 -7 -15 -17.5t-44.5 -28.5t-73.5 -18q-75 0 -122 45.5t-47 113.5v202q0 66 46 112.5t123 46.5q41 0 74.5 -15.5t46.5 -30.5zM145 347v-194q0 -52 34.5 -86t88.5 -34q52 0 91 35.5t39 82.5v198q0 48 -38 83t-91 35q-55 0 -89.5 -34
t-34.5 -86zM549 577h-41l53 123h71z" />
    <glyph glyph-name="Dcroat" unicode="&#x110;" 
d="M74 346v46h62v308h171q75 0 125.5 -50.5t50.5 -125.5v-348q0 -74 -50.5 -125t-125.5 -51h-171v346h-62zM431 174v349q0 55 -35.5 91t-91.5 36h-116v-258h114v-46h-114v-298h116q55 0 91 35.5t36 90.5z" />
    <glyph glyph-name="dcroat" unicode="&#x111;" 
d="M421 448v126h-128v44h128v82h49v-82h60v-44h-60v-574h-49v54q-5 -7 -15 -17.5t-44.5 -28.5t-73.5 -18q-75 0 -122 45.5t-47 113.5v202q0 66 46 112.5t123 46.5q41 0 74.5 -15.5t45.5 -30.5zM168 347v-194q0 -52 34.5 -86t88.5 -34q52 0 91 35.5t39 82.5v198q0 48 -38 83
t-91 35q-55 0 -89.5 -34t-34.5 -86z" />
    <glyph glyph-name="Emacron" unicode="&#x112;" 
d="M147 700h314v-48h-262v-258h238v-48h-238v-298h271v-48h-323v700zM175 790v45h260v-45h-260z" />
    <glyph glyph-name="emacron" unicode="&#x113;" 
d="M426 146h48q-4 -68 -51.5 -112t-122.5 -44q-78 0 -126.5 44.5t-48.5 110.5v210q0 66 48.5 110.5t126.5 44.5q77 0 125.5 -45t48.5 -110v-119h-301v-83q0 -53 35.5 -86.5t90.5 -33.5t90 31t37 82zM173 346v-67h253v68q0 53 -36.5 86.5t-90.5 33.5t-90 -34t-36 -87z
M170 590v45h260v-45h-260z" />
    <glyph glyph-name="Ebreve" unicode="&#x114;" 
d="M147 700h314v-48h-262v-258h238v-48h-238v-298h271v-48h-323v700zM304 800q25 0 42 9.5t23.5 23.5t8.5 22.5t2 15.5h49q0 -11 -2.5 -23t-10.5 -29t-20.5 -30t-36.5 -22t-55 -9t-55 9t-36.5 22t-20.5 30t-10.5 29t-2.5 23h49q0 -7 2 -15.5t8.5 -22.5t23.5 -23.5t42 -9.5z
" />
    <glyph glyph-name="ebreve" unicode="&#x115;" 
d="M426 146h48q-4 -68 -51.5 -112t-122.5 -44q-78 0 -126.5 44.5t-48.5 110.5v210q0 66 48.5 110.5t126.5 44.5q77 0 125.5 -45t48.5 -110v-119h-301v-83q0 -53 35.5 -86.5t90.5 -33.5t90 31t37 82zM173 346v-67h253v68q0 53 -36.5 86.5t-90.5 33.5t-90 -34t-36 -87z
M300 600q25 0 42 9.5t23.5 23.5t8.5 22.5t2 15.5h49q0 -11 -2.5 -23t-10.5 -29t-20.5 -30t-36.5 -22t-55 -9t-55 9t-36.5 22t-20.5 30t-10.5 29t-2.5 23h49q0 -7 2 -15.5t8.5 -22.5t23.5 -23.5t42 -9.5z" />
    <glyph glyph-name="Edotaccent" unicode="&#x116;" 
d="M147 700h314v-48h-262v-258h238v-48h-238v-298h271v-48h-323v700zM272 797v70h66v-70h-66z" />
    <glyph glyph-name="edotaccent" unicode="&#x117;" 
d="M426 146h48q-4 -68 -51.5 -112t-122.5 -44q-78 0 -126.5 44.5t-48.5 110.5v210q0 66 48.5 110.5t126.5 44.5q77 0 125.5 -45t48.5 -110v-119h-301v-83q0 -53 35.5 -86.5t90.5 -33.5t90 31t37 82zM173 346v-67h253v68q0 53 -36.5 86.5t-90.5 33.5t-90 -34t-36 -87z
M267 597v70h66v-70h-66z" />
    <glyph glyph-name="Eogonek" unicode="&#x118;" 
d="M147 700h314v-48h-262v-258h238v-48h-238v-298h271v-48q-8 -6 -20 -16.5t-32.5 -38t-20.5 -48.5q0 -18 11.5 -27.5t28.5 -9.5h45v-40h-51q-36 0 -58 19.5t-22 51.5q0 26 17.5 53t34.5 42l17 14h-273v700z" />
    <glyph glyph-name="eogonek" unicode="&#x119;" 
d="M300 -10q-78 0 -126.5 44.5t-48.5 110.5v210q0 66 48.5 110.5t126.5 44.5q77 0 125.5 -45t48.5 -110v-119h-301v-85q0 -49 34.5 -83.5t91.5 -34.5q55 0 90 31t37 82h48q-3 -72 -58 -117q-20 -16 -50.5 -57.5t-30.5 -74.5q0 -18 11.5 -27.5t28.5 -9.5h45v-40h-51
q-36 0 -58 19.5t-22 51.5q0 55 58 105q-23 -6 -47 -6zM173 349v-70h253v70q0 48 -37 83t-90 35q-54 0 -90 -33.5t-36 -84.5z" />
    <glyph glyph-name="Ecaron" unicode="&#x11a;" 
d="M147 700h314v-48h-262v-258h238v-48h-238v-298h271v-48h-323v700zM183 875h51l70 -87l71 87h50l-88 -122h-67z" />
    <glyph glyph-name="ecaron" unicode="&#x11b;" 
d="M426 146h48q-4 -68 -51.5 -112t-122.5 -44q-78 0 -126.5 44.5t-48.5 110.5v210q0 66 48.5 110.5t126.5 44.5q77 0 125.5 -45t48.5 -110v-119h-301v-83q0 -53 35.5 -86.5t90.5 -33.5t90 31t37 82zM173 346v-67h253v68q0 53 -36.5 86.5t-90.5 33.5t-90 -34t-36 -87z
M179 675h51l70 -87l71 87h50l-88 -122h-67z" />
    <glyph glyph-name="Gcircumflex" unicode="&#x11c;" 
d="M489 343v-178q0 -74 -51.5 -124.5t-131.5 -50.5q-82 0 -134 51t-52 125v369q0 74 52 124.5t134 50.5q80 0 129 -50t49 -125h-52q-1 53 -36 89t-90 36q-60 0 -97 -36t-37 -90v-369q0 -54 37 -90.5t97 -36.5q58 0 94.5 36t36.5 90v131h-104v48h156zM234 753h-51l87 122h67
l88 -122h-50l-71 87z" />
    <glyph glyph-name="gcircumflex" unicode="&#x11d;" 
d="M410 18h-220q-31 0 -52.5 -22t-21.5 -55t21.5 -54.5t52.5 -21.5h220q31 0 53.5 22t22.5 54q0 33 -22 55t-54 22zM392 296v68q0 43 -31.5 73t-74.5 30q-45 0 -76 -29.5t-31 -73.5v-68q0 -43 31.5 -72.5t75.5 -29.5q42 0 74 30t32 72zM480 513q-31 0 -45 -19l-27 -38
q35 -44 35 -91v-69q0 -59 -46.5 -102.5t-110.5 -43.5l-14 1v-88h149q48 0 82 -35.5t34 -86.5t-34 -86t-82 -35h-243q-48 0 -81.5 35t-33.5 86t33.5 86.5t81.5 35.5h40v102q-29 10 -59.5 44.5t-30.5 86.5v69q0 59 46.5 102t111.5 43q52 0 87 -26l38 46q23 27 69 27h11v-44
h-11zM215 553h-51l87 122h67l88 -122h-50l-71 87z" />
    <glyph glyph-name="Gbreve" unicode="&#x11e;" 
d="M489 343v-178q0 -74 -51.5 -124.5t-131.5 -50.5q-82 0 -134 51t-52 125v369q0 74 52 124.5t134 50.5q80 0 129 -50t49 -125h-52q-1 53 -36 89t-90 36q-60 0 -97 -36t-37 -90v-369q0 -54 37 -90.5t97 -36.5q58 0 94.5 36t36.5 90v131h-104v48h156zM306 800q25 0 42 9.5
t23.5 23.5t8.5 22.5t2 15.5h49q0 -11 -2.5 -23t-10.5 -29t-20.5 -30t-36.5 -22t-55 -9t-55 9t-36.5 22t-20.5 30t-10.5 29t-2.5 23h49q0 -7 2 -15.5t8.5 -22.5t23.5 -23.5t42 -9.5z" />
    <glyph glyph-name="gbreve" unicode="&#x11f;" 
d="M410 18h-220q-31 0 -52.5 -22t-21.5 -55t21.5 -54.5t52.5 -21.5h220q31 0 53.5 22t22.5 54q0 33 -22 55t-54 22zM392 296v68q0 43 -31.5 73t-74.5 30q-45 0 -76 -29.5t-31 -73.5v-68q0 -43 31.5 -72.5t75.5 -29.5q42 0 74 30t32 72zM480 513q-31 0 -45 -19l-27 -38
q35 -44 35 -91v-69q0 -59 -46.5 -102.5t-110.5 -43.5l-14 1v-88h149q48 0 82 -35.5t34 -86.5t-34 -86t-82 -35h-243q-48 0 -81.5 35t-33.5 86t33.5 86.5t81.5 35.5h40v102q-29 10 -59.5 44.5t-30.5 86.5v69q0 59 46.5 102t111.5 43q52 0 87 -26l38 46q23 27 69 27h11v-44
h-11zM288 600q25 0 42 9.5t23.5 23.5t8.5 22.5t2 15.5h49q0 -11 -2.5 -23t-10.5 -29t-20.5 -30t-36.5 -22t-55 -9t-55 9t-36.5 22t-20.5 30t-10.5 29t-2.5 23h49q0 -7 2 -15.5t8.5 -22.5t23.5 -23.5t42 -9.5z" />
    <glyph glyph-name="Gdotaccent" unicode="&#x120;" 
d="M489 343v-178q0 -74 -51.5 -124.5t-131.5 -50.5q-82 0 -134 51t-52 125v369q0 74 52 124.5t134 50.5q80 0 129 -50t49 -125h-52q-1 53 -36 89t-90 36q-60 0 -97 -36t-37 -90v-369q0 -54 37 -90.5t97 -36.5q58 0 94.5 36t36.5 90v131h-104v48h156zM273 797v70h66v-70h-66z
" />
    <glyph glyph-name="gdotaccent" unicode="&#x121;" 
d="M410 18h-220q-31 0 -52.5 -22t-21.5 -55t21.5 -54.5t52.5 -21.5h220q31 0 53.5 22t22.5 54q0 33 -22 55t-54 22zM392 296v68q0 43 -31.5 73t-74.5 30q-45 0 -76 -29.5t-31 -73.5v-68q0 -43 31.5 -72.5t75.5 -29.5q42 0 74 30t32 72zM480 513q-31 0 -45 -19l-27 -38
q35 -44 35 -91v-69q0 -59 -46.5 -102.5t-110.5 -43.5l-14 1v-88h149q48 0 82 -35.5t34 -86.5t-34 -86t-82 -35h-243q-48 0 -81.5 35t-33.5 86t33.5 86.5t81.5 35.5h40v102q-29 10 -59.5 44.5t-30.5 86.5v69q0 59 46.5 102t111.5 43q52 0 87 -26l38 46q23 27 69 27h11v-44
h-11zM255 597v70h66v-70h-66z" />
    <glyph glyph-name="uni0122" unicode="&#x122;" 
d="M489 343v-178q0 -74 -51.5 -124.5t-131.5 -50.5q-82 0 -134 51t-52 125v369q0 74 52 124.5t134 50.5q80 0 129 -50t49 -125h-52q-1 53 -36 89t-90 36q-60 0 -97 -36t-37 -90v-369q0 -54 37 -90.5t97 -36.5q58 0 94.5 36t36.5 90v131h-104v48h156zM264 -173h-41l53 123h71
z" />
    <glyph glyph-name="uni0123" unicode="&#x123;" 
d="M410 18h-220q-31 0 -52.5 -22t-21.5 -55t21.5 -54.5t52.5 -21.5h220q31 0 53.5 22t22.5 54q0 33 -22 55t-54 22zM392 296v68q0 43 -31.5 73t-74.5 30q-45 0 -76 -29.5t-31 -73.5v-68q0 -43 31.5 -72.5t75.5 -29.5q42 0 74 30t32 72zM480 513q-31 0 -45 -19l-27 -38
q35 -44 35 -91v-69q0 -59 -46.5 -102.5t-110.5 -43.5l-14 1v-88h149q48 0 82 -35.5t34 -86.5t-34 -86t-82 -35h-243q-48 0 -81.5 35t-33.5 86t33.5 86.5t81.5 35.5h40v102q-29 10 -59.5 44.5t-30.5 86.5v69q0 59 46.5 102t111.5 43q52 0 87 -26l38 46q23 27 69 27h11v-44
h-11zM325 679h41l-53 -123h-71z" />
    <glyph glyph-name="Hcircumflex" unicode="&#x124;" 
d="M427 700h52v-700h-52v346h-254v-346h-52v700h52v-306h254v306zM229 753h-51l87 122h67l88 -122h-50l-71 87z" />
    <glyph glyph-name="hcircumflex" unicode="&#x125;" 
d="M480 350v-350h-49v340q0 60 -33 94t-87 34q-55 0 -94 -35t-39 -83v-350h-49v700h49v-256q5 7 14.5 18t44.5 29.5t76 18.5q76 0 121.5 -46t45.5 -114zM235 752h-51l87 122h67l88 -122h-50l-71 87z" />
    <glyph glyph-name="Hbar" unicode="&#x126;" 
d="M427 700h52v-133h51v-43h-51v-524h-52v346h-254v-346h-52v524h-51v43h51v133h52v-133h254v133zM173 394h254v130h-254v-130z" />
    <glyph glyph-name="hbar" unicode="&#x127;" 
d="M68 575v43h61v82h49v-82h128v-43h-128v-131q5 7 14.5 18t44.5 29.5t76 18.5q76 0 121.5 -46t45.5 -114v-350h-49v340q0 60 -33 94t-87 34q-55 0 -94 -35t-39 -83v-350h-49v575h-61z" />
    <glyph glyph-name="Itilde" unicode="&#x128;" 
d="M119 652v48h362v-48h-154v-604h154v-48h-362v48h156v604h-156zM242 859q26 0 63 -21t54 -21q14 0 23 9.5t9 25.5v7h46v-7q0 -35 -22.5 -57t-55.5 -22q-26 0 -63 21t-54 21q-14 0 -23.5 -9.5t-9.5 -24.5v-8h-46v8q0 35 22.5 56.5t56.5 21.5z" />
    <glyph glyph-name="itilde" unicode="&#x129;" 
d="M119 500h210v-457h142v-43h-352v43h160v414h-160v43zM242 659q26 0 63 -21t54 -21q14 0 23 9.5t9 25.5v7h46v-7q0 -35 -22.5 -57t-55.5 -22q-26 0 -63 21t-54 21q-14 0 -23.5 -9.5t-9.5 -24.5v-8h-46v8q0 35 22.5 56.5t56.5 21.5z" />
    <glyph glyph-name="Imacron" unicode="&#x12a;" 
d="M119 652v48h362v-48h-154v-604h154v-48h-362v48h156v604h-156zM170 790v45h260v-45h-260z" />
    <glyph glyph-name="imacron" unicode="&#x12b;" 
d="M119 500h210v-457h142v-43h-352v43h160v414h-160v43zM170 590v45h260v-45h-260z" />
    <glyph glyph-name="Iogonek" unicode="&#x12e;" 
d="M119 652v48h362v-48h-154v-604h154v-48q-8 -6 -20 -16.5t-32.5 -38t-20.5 -48.5q0 -18 11.5 -27.5t28.5 -9.5h45v-40h-51q-36 0 -58 19.5t-22 51.5q0 26 18.5 53t37.5 42l18 14h-317v48h156v604h-156z" />
    <glyph glyph-name="iogonek" unicode="&#x12f;" 
d="M119 500h210v-457h142v-43q-8 -6 -20 -16.5t-32.5 -38t-20.5 -48.5q0 -18 11.5 -27.5t28.5 -9.5h45v-40h-51q-36 0 -58 19.5t-22 51.5q0 26 17 53t35 42l17 14h-302v43h160v414h-160v43zM268 597v70h66v-70h-66z" />
    <glyph glyph-name="Idotaccent" unicode="&#x130;" 
d="M119 652v48h362v-48h-154v-604h154v-48h-362v48h156v604h-156zM267 797v70h66v-70h-66z" />
    <glyph glyph-name="dotlessi" unicode="&#x131;" 
d="M119 500h210v-457h142v-43h-352v43h160v414h-160v43z" />
    <glyph glyph-name="IJ" unicode="&#x132;" 
d="M245 0h-214v48h80v604h-80v48h214v-48h-82v-604h82v-48zM332 184v-59q0 -42 20.5 -64.5t53.5 -22.5q34 0 54.5 22.5t20.5 64.5v527h-111v48h163v-573q0 -62 -36 -99.5t-91 -37.5t-89.5 37t-34.5 99v58h50z" />
    <glyph glyph-name="ij" unicode="&#x133;" horiz-adv-x="601" 
d="M64 500h140v-457h88v-43h-228v43h90v414h-90v43zM143 597v70h66v-70h-66zM486 500v-540q0 -66 -40.5 -108t-110.5 -42q-67 0 -107 29l25 37q31 -23 82 -23q47 0 74 30t27 79v495h-90v43h140zM424 597v70h64v-70h-64z" />
    <glyph glyph-name="Jcircumflex" unicode="&#x134;" 
d="M116 165v63h52v-64q0 -53 36.5 -89.5t89.5 -36.5q54 0 90.5 37t36.5 90v487h-271v48h323v-534q0 -73 -51.5 -124.5t-123.5 -51.5h-7q-73 0 -124 51t-51 124zM246 753h-51l87 122h67l88 -122h-50l-71 87z" />
    <glyph glyph-name="jcircumflex" unicode="&#x135;" 
d="M425 500v-540q0 -66 -40.5 -108t-110.5 -42q-67 0 -107 29l25 37q31 -23 82 -23q47 0 74 30t27 79v495h-237v43h287zM272 553h-51l87 122h67l88 -122h-50l-71 87z" />
    <glyph glyph-name="uni0136" unicode="&#x136;" 
d="M192 700v-324l247 324h60l-252 -328l267 -372h-62l-260 365v-365h-52v700h52zM259 -173h-41l53 123h71z" />
    <glyph glyph-name="uni0137" unicode="&#x137;" 
d="M433 0l-223 259v-259h-48v700h48v-427l206 227h64l-216 -233l232 -267h-63z" />
    <glyph glyph-name="kgreenlandic" unicode="&#x138;" 
d="M433 0l-223 259v-259h-48v500h48v-227l206 227h64l-216 -233l232 -267h-63zM261 -173h-41l53 123h71z" />
    <glyph glyph-name="Lacute" unicode="&#x139;" 
d="M155 700h52v-652h291v-48h-343v700zM263 753h-54l109 122h72z" />
    <glyph glyph-name="lacute" unicode="&#x13a;" 
d="M169 700h161v-657h152v-43h-344v43h142v614h-111v43zM284 752h-54l109 122h72z" />
    <glyph glyph-name="uni013B" unicode="&#x13b;" 
d="M279 -173h-41l53 123h71zM155 700h52v-652h291v-48h-343v700z" />
    <glyph glyph-name="uni013C" unicode="&#x13c;" 
d="M169 700h161v-657h152v-43h-344v43h142v614h-111v43zM269 -173h-41l53 123h71z" />
    <glyph glyph-name="Lcaron" unicode="&#x13d;" 
d="M155 700h52v-652h291v-48h-343v700zM416 577h-41l53 123h71z" />
    <glyph glyph-name="lcaron" unicode="&#x13e;" 
d="M169 700h161v-657h152v-43h-344v43h142v614h-111v43zM481 577h-41l53 123h71z" />
    <glyph glyph-name="Ldot" unicode="&#x13f;" 
d="M155 700h52v-652h291v-48h-343v700zM410 328v70h70v-70h-70z" />
    <glyph glyph-name="ldot" unicode="&#x140;" 
d="M169 700h161v-657h152v-43h-344v43h142v614h-111v43zM475 258v70h70v-70h-70z" />
    <glyph glyph-name="Lslash" unicode="&#x141;" 
d="M373 456l-1 -52l-150 -88v-268h290v-48h-342v286l-62 -36v52l62 36v362h52v-332z" />
    <glyph glyph-name="lslash" unicode="&#x142;" 
d="M205 294v46l75 43v274h-111v43h161v-289l99 57v-46l-99 -56v-323h152v-43h-344v43h142v294z" />
    <glyph glyph-name="Nacute" unicode="&#x143;" 
d="M428 0l-262 596q4 -97 4 -232v-364h-48v700h50l263 -598q-5 96 -5 234v364h48v-700h-50zM322 753h-54l109 122h72z" />
    <glyph glyph-name="nacute" unicode="&#x144;" 
d="M480 350v-350h-49v340q0 60 -33 94t-87 34q-55 0 -94 -35t-39 -83v-350h-49v500h47l2 -56q5 7 14.5 18t44.5 29.5t76 18.5q76 0 121.5 -46t45.5 -114zM308 553h-54l109 122h72z" />
    <glyph glyph-name="uni0145" unicode="&#x145;" 
d="M263 -173h-41l53 123h71zM428 0l-262 596q4 -97 4 -232v-364h-48v700h50l263 -598q-5 96 -5 234v364h48v-700h-50z" />
    <glyph glyph-name="uni0146" unicode="&#x146;" 
d="M480 350v-350h-49v340q0 60 -33 94t-87 34q-55 0 -94 -35t-39 -83v-350h-49v500h47l2 -56q5 7 14.5 18t44.5 29.5t76 18.5q76 0 121.5 -46t45.5 -114zM264 -173h-41l53 123h71z" />
    <glyph glyph-name="Ncaron" unicode="&#x147;" 
d="M428 0l-262 596q4 -97 4 -232v-364h-48v700h50l263 -598q-5 96 -5 234v364h48v-700h-50zM178 875h51l70 -87l71 87h50l-88 -122h-67z" />
    <glyph glyph-name="ncaron" unicode="&#x148;" 
d="M480 350v-350h-49v340q0 60 -33 94t-87 34q-55 0 -94 -35t-39 -83v-350h-49v500h47l2 -56q5 7 14.5 18t44.5 29.5t76 18.5q76 0 121.5 -46t45.5 -114zM187 675h51l70 -87l71 87h50l-88 -122h-67z" />
    <glyph glyph-name="napostrophe" unicode="&#x149;" 
d="M480 350v-350h-49v340q0 60 -33 94t-87 34q-55 0 -94 -35t-39 -83v-350h-49v500h47l2 -56q5 7 14.5 18t44.5 29.5t76 18.5q76 0 121.5 -46t45.5 -114zM62 577h-41l53 123h71z" />
    <glyph glyph-name="Omacron" unicode="&#x14c;" 
d="M484 535v-370q0 -74 -51.5 -124.5t-132.5 -50.5t-133 51t-52 125v369q0 74 52 124.5t133 50.5t132.5 -50.5t51.5 -124.5zM432 164v370q0 54 -36.5 91t-95.5 37q-60 0 -96.5 -37t-36.5 -91v-369q0 -54 36.5 -90.5t96.5 -36.5q59 0 95.5 36t36.5 90zM170 790v45h260v-45
h-260z" />
    <glyph glyph-name="omacron" unicode="&#x14d;" 
d="M474 145v210q0 65 -48.5 110t-125.5 45q-78 0 -126.5 -44.5t-48.5 -110.5v-210q0 -66 48.5 -110.5t126.5 -44.5q77 0 125.5 45t48.5 110zM426 349v-198q0 -50 -36.5 -84t-89.5 -34q-54 0 -90.5 34t-36.5 84v198q0 50 36.5 84t89.5 34t90 -34t37 -84zM170 590v45h260v-45
h-260z" />
    <glyph glyph-name="Obreve" unicode="&#x14e;" 
d="M484 535v-370q0 -74 -51.5 -124.5t-132.5 -50.5t-133 51t-52 125v369q0 74 52 124.5t133 50.5t132.5 -50.5t51.5 -124.5zM432 164v370q0 54 -36.5 91t-95.5 37q-60 0 -96.5 -37t-36.5 -91v-369q0 -54 36.5 -90.5t96.5 -36.5q59 0 95.5 36t36.5 90zM300 800q25 0 42 9.5
t23.5 23.5t8.5 22.5t2 15.5h49q0 -11 -2.5 -23t-10.5 -29t-20.5 -30t-36.5 -22t-55 -9t-55 9t-36.5 22t-20.5 30t-10.5 29t-2.5 23h49q0 -7 2 -15.5t8.5 -22.5t23.5 -23.5t42 -9.5z" />
    <glyph glyph-name="obreve" unicode="&#x14f;" 
d="M474 145v210q0 65 -48.5 110t-125.5 45q-78 0 -126.5 -44.5t-48.5 -110.5v-210q0 -66 48.5 -110.5t126.5 -44.5q77 0 125.5 45t48.5 110zM426 349v-198q0 -50 -36.5 -84t-89.5 -34q-54 0 -90.5 34t-36.5 84v198q0 50 36.5 84t89.5 34t90 -34t37 -84zM300 600q25 0 42 9.5
t23.5 23.5t8.5 22.5t2 15.5h49q0 -11 -2.5 -23t-10.5 -29t-20.5 -30t-36.5 -22t-55 -9t-55 9t-36.5 22t-20.5 30t-10.5 29t-2.5 23h49q0 -7 2 -15.5t8.5 -22.5t23.5 -23.5t42 -9.5z" />
    <glyph glyph-name="Ohungarumlaut" unicode="&#x150;" 
d="M484 535v-370q0 -74 -51.5 -124.5t-132.5 -50.5t-133 51t-52 125v369q0 74 52 124.5t133 50.5t132.5 -50.5t51.5 -124.5zM432 164v370q0 54 -36.5 91t-95.5 37q-60 0 -96.5 -37t-36.5 -91v-369q0 -54 36.5 -90.5t96.5 -36.5q59 0 95.5 36t36.5 90zM251 753h-46l94 122h68
zM382 753h-46l94 122h68z" />
    <glyph glyph-name="ohungarumlaut" unicode="&#x151;" 
d="M474 145v210q0 65 -48.5 110t-125.5 45q-78 0 -126.5 -44.5t-48.5 -110.5v-210q0 -66 48.5 -110.5t126.5 -44.5q77 0 125.5 45t48.5 110zM426 349v-198q0 -50 -36.5 -84t-89.5 -34q-54 0 -90.5 34t-36.5 84v198q0 50 36.5 84t89.5 34t90 -34t37 -84zM250 553h-46l94 122
h68zM381 553h-46l94 122h68z" />
    <glyph glyph-name="OE" unicode="&#x152;" 
d="M261 700h273v-48h-178v-258h154v-48h-154v-298h183v-48h-278q-72 0 -121.5 52t-49.5 125v347q0 73 49.5 124.5t121.5 51.5zM142 176q0 -55 34.5 -91.5t87.5 -36.5h40v602h-40q-54 0 -88 -36t-34 -91v-347z" />
    <glyph glyph-name="oe" unicode="&#x153;" 
d="M472 146h45v-37q0 -50 -33 -84.5t-81 -34.5q-74 0 -104 59q-34 -59 -101 -59q-51 0 -86 35t-35 85v281q0 50 35 84.5t86 34.5q33 0 58.5 -14.5t34.5 -29.5l9 -14q3 6 10 16t33.5 26t59.5 16q50 0 82.5 -34t32.5 -85v-154h-195v-121q0 -37 21 -60t58 -23q32 0 51 20t19 56
v37zM273 116v273q0 33 -20.5 55.5t-54.5 22.5q-33 0 -53 -23t-20 -59v-269q0 -36 20.5 -59.5t52.5 -23.5q33 0 54 23.5t21 59.5zM323 389v-110h150v108q0 35 -20.5 57.5t-50.5 22.5q-32 0 -55.5 -23t-23.5 -55z" />
    <glyph glyph-name="Racute" unicode="&#x154;" 
d="M428 0l-111 267h-120v-267h-52v700h168q71 0 113.5 -41t42.5 -105v-140q0 -48 -27.5 -86.5t-71.5 -52.5l114 -275h-56zM417 411v142q0 43 -28 70t-77 27h-115v-335h123q42 0 69.5 27t27.5 69zM288 753h-54l109 122h72z" />
    <glyph glyph-name="racute" unicode="&#x155;" 
d="M194 500h47l2 -57q2 3 5 7t14 15.5t24 20t35 15.5t46 7q67 0 102 -40t40 -91h-51q-2 39 -27.5 64.5t-67.5 25.5q-44 0 -81.5 -35t-37.5 -79v-310h199v-43h-353v43h104v457zM352 553h-54l109 122h72z" />
    <glyph glyph-name="uni0156" unicode="&#x156;" 
d="M428 0l-111 267h-120v-267h-52v700h168q71 0 113.5 -41t42.5 -105v-140q0 -48 -27.5 -86.5t-71.5 -52.5l114 -275h-56zM417 411v142q0 43 -28 70t-77 27h-115v-335h123q42 0 69.5 27t27.5 69zM254 -173h-41l53 123h71z" />
    <glyph glyph-name="uni0157" unicode="&#x157;" 
d="M194 500h47l2 -57q2 3 5 7t14 15.5t24 20t35 15.5t46 7q67 0 102 -40t40 -91h-51q-2 39 -27.5 64.5t-67.5 25.5q-44 0 -81.5 -35t-37.5 -79v-310h199v-43h-353v43h104v457zM207 -173h-41l53 123h71z" />
    <glyph glyph-name="Rcaron" unicode="&#x158;" 
d="M428 0l-111 267h-120v-267h-52v700h168q71 0 113.5 -41t42.5 -105v-140q0 -48 -27.5 -86.5t-71.5 -52.5l114 -275h-56zM417 411v142q0 43 -28 70t-77 27h-115v-335h123q42 0 69.5 27t27.5 69zM178 875h51l70 -87l71 87h50l-88 -122h-67z" />
    <glyph glyph-name="rcaron" unicode="&#x159;" 
d="M194 500h47l2 -57q2 3 5 7t14 15.5t24 20t35 15.5t46 7q67 0 102 -40t40 -91h-51q-2 39 -27.5 64.5t-67.5 25.5q-44 0 -81.5 -35t-37.5 -79v-310h199v-43h-353v43h104v457zM229 675h51l70 -87l71 87h50l-88 -122h-67z" />
    <glyph glyph-name="Sacute" unicode="&#x15a;" 
d="M477 535h-51q-2 54 -37.5 90.5t-88.5 36.5q-51 0 -87 -35t-36 -86q0 -41 22.5 -72.5t57 -50.5t74 -42.5t74 -47t57 -65t22.5 -95.5q0 -75 -52.5 -126.5t-131.5 -51.5q-81 0 -133 50.5t-52 124.5v24h52v-24q0 -54 37.5 -90.5t95.5 -36.5t95 35.5t37 89.5q0 55 -31.5 94.5
t-77 63t-90.5 48.5t-76.5 67t-31.5 102q0 72 51.5 122t123.5 50q73 0 124.5 -49t52.5 -126zM305 753h-54l109 122h72z" />
    <glyph glyph-name="sacute" unicode="&#x15b;" 
d="M460 377h-51q-1 38 -32 64t-74 26q-38 0 -68.5 -23.5t-30.5 -57.5t26.5 -56.5t65 -37t76.5 -31t64.5 -50t26.5 -83.5q0 -58 -46 -98t-114 -40q-76 0 -121 44.5t-45 105.5h49q1 -45 34 -76t83 -31q48 0 79 27t31 68q0 36 -26.5 60t-64.5 38.5t-76 31t-64.5 47t-26.5 75.5
q0 58 44 94t108 36q67 0 108 -42t45 -91zM311 553h-54l109 122h72z" />
    <glyph glyph-name="Scircumflex" unicode="&#x15c;" 
d="M477 535h-51q-2 54 -37.5 90.5t-88.5 36.5q-51 0 -87 -35t-36 -86q0 -41 22.5 -72.5t57 -50.5t74 -42.5t74 -47t57 -65t22.5 -95.5q0 -75 -52.5 -126.5t-131.5 -51.5q-81 0 -133 50.5t-52 124.5v24h52v-24q0 -54 37.5 -90.5t95.5 -36.5t95 35.5t37 89.5q0 55 -31.5 94.5
t-77 63t-90.5 48.5t-76.5 67t-31.5 102q0 72 51.5 122t123.5 50q73 0 124.5 -49t52.5 -126zM235 753h-51l87 122h67l88 -122h-50l-71 87z" />
    <glyph glyph-name="scircumflex" unicode="&#x15d;" 
d="M460 377h-51q-1 38 -32 64t-74 26q-38 0 -68.5 -23.5t-30.5 -57.5t26.5 -56.5t65 -37t76.5 -31t64.5 -50t26.5 -83.5q0 -58 -46 -98t-114 -40q-76 0 -121 44.5t-45 105.5h49q1 -45 34 -76t83 -31q48 0 79 27t31 68q0 36 -26.5 60t-64.5 38.5t-76 31t-64.5 47t-26.5 75.5
q0 58 44 94t108 36q67 0 108 -42t45 -91zM233 553h-51l87 122h67l88 -122h-50l-71 87z" />
    <glyph glyph-name="Scedilla" unicode="&#x15e;" 
d="M477 535h-51q-2 54 -37.5 90.5t-88.5 36.5q-51 0 -87 -35t-36 -86q0 -41 22.5 -72.5t57 -50.5t74 -42.5t74 -47t57 -65t22.5 -95.5q0 -73 -50 -124t-125 -54v-30h8q34 0 54.5 -19t20.5 -50q0 -30 -22 -50.5t-56 -20.5h-56v41h51q17 0 27 8.5t10 22.5q0 28 -32 28h-45v73
q-69 9 -111.5 57t-42.5 115v24h52v-24q0 -54 37.5 -90.5t95.5 -36.5t95 35.5t37 89.5q0 55 -31.5 94.5t-77 63t-90.5 48.5t-76.5 67t-31.5 102q0 72 51.5 122t123.5 50q73 0 124.5 -49t52.5 -126z" />
    <glyph glyph-name="scedilla" unicode="&#x15f;" 
d="M460 377h-51q-1 38 -32 64t-74 26q-38 0 -68.5 -23.5t-30.5 -57.5t26.5 -56.5t65 -37t76.5 -31t64.5 -50t26.5 -83.5q0 -57 -43.5 -96t-108.5 -42v-30h8q34 0 54.5 -19t20.5 -50q0 -30 -22 -50.5t-56 -20.5h-56v41h51q17 0 27 8.5t10 22.5q0 28 -32 28h-45v73
q-62 9 -98 51t-36 96h49q1 -45 34 -76t83 -31q48 0 79 27t31 68q0 36 -26.5 60t-64.5 38.5t-76 31t-64.5 47t-26.5 75.5q0 58 44 94t108 36q67 0 108 -42t45 -91z" />
    <glyph glyph-name="Scaron" unicode="&#x160;" 
d="M477 535h-51q-2 54 -37.5 90.5t-88.5 36.5q-51 0 -87 -35t-36 -86q0 -41 22.5 -72.5t57 -50.5t74 -42.5t74 -47t57 -65t22.5 -95.5q0 -75 -52.5 -126.5t-131.5 -51.5q-81 0 -133 50.5t-52 124.5v24h52v-24q0 -54 37.5 -90.5t95.5 -36.5t95 35.5t37 89.5q0 55 -31.5 94.5
t-77 63t-90.5 48.5t-76.5 67t-31.5 102q0 72 51.5 122t123.5 50q73 0 124.5 -49t52.5 -126zM185 875h51l70 -87l71 87h50l-88 -122h-67z" />
    <glyph glyph-name="scaron" unicode="&#x161;" 
d="M460 377h-51q-1 38 -32 64t-74 26q-38 0 -68.5 -23.5t-30.5 -57.5t26.5 -56.5t65 -37t76.5 -31t64.5 -50t26.5 -83.5q0 -58 -46 -98t-114 -40q-76 0 -121 44.5t-45 105.5h49q1 -45 34 -76t83 -31q48 0 79 27t31 68q0 36 -26.5 60t-64.5 38.5t-76 31t-64.5 47t-26.5 75.5
q0 58 44 94t108 36q67 0 108 -42t45 -91zM182 675h51l70 -87l71 87h50l-88 -122h-67z" />
    <glyph glyph-name="uni0162" unicode="&#x162;" 
d="M101 652v48h398v-48h-173v-652h-52v652h-173zM259 -173h-41l53 123h71z" />
    <glyph glyph-name="uni0163" unicode="&#x163;" 
d="M111 457v43h77v140h48v-140h242v-43h-242v-316q0 -45 28 -76t79 -31q43 0 71 28.5t29 62.5h44q-1 -53 -43 -94t-102 -41q-72 0 -113 42t-41 111v314h-77zM279 -173h-41l53 123h71z" />
    <glyph glyph-name="Tcaron" unicode="&#x164;" 
d="M101 652v48h398v-48h-173v-652h-52v652h-173zM178 875h51l70 -87l71 87h50l-88 -122h-67z" />
    <glyph glyph-name="tcaron" unicode="&#x165;" 
d="M111 457v43h77v140h48v-140h242v-43h-242v-316q0 -45 28 -76t79 -31q43 0 71 28.5t29 62.5h44q-1 -53 -43 -94t-102 -41q-72 0 -113 42t-41 111v314h-77zM472 577h-41l53 123h71z" />
    <glyph glyph-name="Tbar" unicode="&#x166;" 
d="M101 652v48h398v-48h-173v-259h137v-46h-137v-347h-52v347h-135v46h135v259h-173z" />
    <glyph glyph-name="tbar" unicode="&#x167;" 
d="M111 457v43h77v140h48v-140h242v-43h-242v-154h130v-42h-130v-120q0 -45 28 -76t79 -31q43 0 71 28.5t29 62.5h44q-1 -53 -43 -94t-102 -41q-72 0 -113 42t-41 111v118h-73v42h73v154h-77z" />
    <glyph glyph-name="Utilde" unicode="&#x168;" 
d="M432 700h52v-535q0 -73 -51 -124t-124 -51h-19q-72 0 -123.5 51.5t-51.5 124.5v534h52v-535q0 -53 36.5 -90t90.5 -37h12q53 0 89.5 36.5t36.5 89.5v536zM242 859q26 0 63 -21t54 -21q14 0 23 9.5t9 25.5v7h46v-7q0 -35 -22.5 -57t-55.5 -22q-26 0 -63 21t-54 21
q-14 0 -23.5 -9.5t-9.5 -24.5v-8h-46v8q0 35 22.5 56.5t56.5 21.5z" />
    <glyph glyph-name="utilde" unicode="&#x169;" 
d="M125 150v350h49v-340q0 -61 33 -94.5t87 -33.5q55 0 94 35t39 83v350h49v-500h-47l-2 56q-5 -7 -14.5 -18t-44.5 -29.5t-76 -18.5q-76 0 -121.5 45t-45.5 115zM242 659q26 0 63 -21t54 -21q14 0 23 9.5t9 25.5v7h46v-7q0 -35 -22.5 -57t-55.5 -22q-26 0 -63 21t-54 21
q-14 0 -23.5 -9.5t-9.5 -24.5v-8h-46v8q0 35 22.5 56.5t56.5 21.5z" />
    <glyph glyph-name="Umacron" unicode="&#x16a;" 
d="M432 700h52v-535q0 -73 -51 -124t-124 -51h-19q-72 0 -123.5 51.5t-51.5 124.5v534h52v-535q0 -53 36.5 -90t90.5 -37h12q53 0 89.5 36.5t36.5 89.5v536zM170 790v45h260v-45h-260z" />
    <glyph glyph-name="umacron" unicode="&#x16b;" 
d="M125 150v350h49v-340q0 -61 33 -94.5t87 -33.5q55 0 94 35t39 83v350h49v-500h-47l-2 56q-5 -7 -14.5 -18t-44.5 -29.5t-76 -18.5q-76 0 -121.5 45t-45.5 115zM170 590v45h260v-45h-260z" />
    <glyph glyph-name="Ubreve" unicode="&#x16c;" 
d="M432 700h52v-535q0 -73 -51 -124t-124 -51h-19q-72 0 -123.5 51.5t-51.5 124.5v534h52v-535q0 -53 36.5 -90t90.5 -37h12q53 0 89.5 36.5t36.5 89.5v536zM300 800q25 0 42 9.5t23.5 23.5t8.5 22.5t2 15.5h49q0 -11 -2.5 -23t-10.5 -29t-20.5 -30t-36.5 -22t-55 -9t-55 9
t-36.5 22t-20.5 30t-10.5 29t-2.5 23h49q0 -7 2 -15.5t8.5 -22.5t23.5 -23.5t42 -9.5z" />
    <glyph glyph-name="ubreve" unicode="&#x16d;" 
d="M125 150v350h49v-340q0 -61 33 -94.5t87 -33.5q55 0 94 35t39 83v350h49v-500h-47l-2 56q-5 -7 -14.5 -18t-44.5 -29.5t-76 -18.5q-76 0 -121.5 45t-45.5 115zM300 600q25 0 42 9.5t23.5 23.5t8.5 22.5t2 15.5h49q0 -11 -2.5 -23t-10.5 -29t-20.5 -30t-36.5 -22t-55 -9
t-55 9t-36.5 22t-20.5 30t-10.5 29t-2.5 23h49q0 -7 2 -15.5t8.5 -22.5t23.5 -23.5t42 -9.5z" />
    <glyph glyph-name="Uring" unicode="&#x16e;" 
d="M432 700h52v-535q0 -73 -51 -124t-124 -51h-19q-72 0 -123.5 51.5t-51.5 124.5v534h52v-535q0 -53 36.5 -90t90.5 -37h12q53 0 89.5 36.5t36.5 89.5v536zM218 823q0 34 24 57.5t57 23.5t57.5 -24t24.5 -57t-24.5 -56.5t-57.5 -23.5t-57 23.5t-24 56.5zM256 823
q0 -18 12.5 -31t30.5 -13t31 13t13 31q0 19 -12.5 32t-31.5 13q-18 0 -30.5 -13t-12.5 -32z" />
    <glyph glyph-name="uring" unicode="&#x16f;" 
d="M125 150v350h49v-340q0 -61 33 -94.5t87 -33.5q55 0 94 35t39 83v350h49v-500h-47l-2 56q-5 -7 -14.5 -18t-44.5 -29.5t-76 -18.5q-76 0 -121.5 45t-45.5 115zM218 623q0 34 24 57.5t57 23.5t57.5 -24t24.5 -57t-24.5 -56.5t-57.5 -23.5t-57 23.5t-24 56.5zM256 623
q0 -18 12.5 -31t30.5 -13t31 13t13 31q0 19 -12.5 32t-31.5 13q-18 0 -30.5 -13t-12.5 -32z" />
    <glyph glyph-name="Uhungarumlaut" unicode="&#x170;" 
d="M432 700h52v-535q0 -73 -51 -124t-124 -51h-19q-72 0 -123.5 51.5t-51.5 124.5v534h52v-535q0 -53 36.5 -90t90.5 -37h12q53 0 89.5 36.5t36.5 89.5v536zM250 753h-46l94 122h68zM381 753h-46l94 122h68z" />
    <glyph glyph-name="uhungarumlaut" unicode="&#x171;" 
d="M125 150v350h49v-340q0 -61 33 -94.5t87 -33.5q55 0 94 35t39 83v350h49v-500h-47l-2 56q-5 -7 -14.5 -18t-44.5 -29.5t-76 -18.5q-76 0 -121.5 45t-45.5 115zM245 553h-46l94 122h68zM376 553h-46l94 122h68z" />
    <glyph glyph-name="Uogonek" unicode="&#x172;" 
d="M484 700v-535q0 -44 -19.5 -82t-54.5 -61q-24 -16 -56 -55t-32 -70q0 -18 11.5 -27.5t28.5 -9.5h45v-40h-51q-36 0 -58 19.5t-22 51.5q0 51 60 102q-18 -3 -36 -3q-81 0 -133 51t-52 125v534h52v-535q0 -54 36.5 -90.5t96.5 -36.5q59 0 95.5 36t36.5 90v536h52z" />
    <glyph glyph-name="uogonek" unicode="&#x173;" 
d="M125 150v350h49v-340q0 -61 33 -94.5t87 -33.5q55 0 94 35t39 83v350h49v-500q-8 -6 -20 -16.5t-32.5 -38t-20.5 -48.5q0 -18 11.5 -27.5t28.5 -9.5h45v-40h-51q-36 0 -58 19.5t-22 51.5q0 26 18 53t36 42l18 14l-2 56q-5 -7 -14.5 -18t-44.5 -29.5t-76 -18.5
q-76 0 -121.5 45t-45.5 115z" />
    <glyph glyph-name="Wcircumflex" unicode="&#x174;" 
d="M452 425v275h52v-278l-42 -422h-96l-62 315h-9l-63 -315h-95l-42 422v278h52v-275l34 -377h14l69 332h72l68 -332h14zM229 753h-51l87 122h67l88 -122h-50l-71 87z" />
    <glyph glyph-name="wcircumflex" unicode="&#x175;" 
d="M460 318v182h48v-187l-61 -313h-89l-55 271h-7l-54 -271h-89l-61 313v187h48v-182l53 -276h14l58 280h71l59 -280h14zM230 553h-51l87 122h67l88 -122h-50l-71 87z" />
    <glyph glyph-name="Ycircumflex" unicode="&#x176;" 
d="M154 700l147 -309l145 309h57l-177 -367v-333h-52v333l-178 367h58zM229 753h-51l87 122h67l88 -122h-50l-71 87z" />
    <glyph glyph-name="ycircumflex" unicode="&#x177;" 
d="M146 500l152 -425l154 425h55l-257 -680h-50l71 187l-180 493h55zM230 553h-51l87 122h67l88 -122h-50l-71 87z" />
    <glyph glyph-name="Ydieresis" unicode="&#x178;" 
d="M154 700l147 -309l145 309h57l-177 -367v-333h-52v333l-178 367h58zM187 797v70h58v-70h-58zM354 797v70h58v-70h-58z" />
    <glyph glyph-name="Zacute" unicode="&#x179;" 
d="M480 647l-303 -599h302v-48h-359v53l303 599h-288v48h345v-53zM312 753h-54l109 122h72z" />
    <glyph glyph-name="zacute" unicode="&#x17a;" 
d="M456 453l-265 -410h269v-43h-320v48l266 409h-250v43h300v-47zM309 553h-54l109 122h72z" />
    <glyph glyph-name="Zdotaccent" unicode="&#x17b;" 
d="M480 647l-303 -599h302v-48h-359v53l303 599h-288v48h345v-53zM276 797v70h66v-70h-66z" />
    <glyph glyph-name="zdotaccent" unicode="&#x17c;" 
d="M456 453l-265 -410h269v-43h-320v48l266 409h-250v43h300v-47zM274 597v70h66v-70h-66z" />
    <glyph glyph-name="Zcaron" unicode="&#x17d;" 
d="M480 647l-303 -599h302v-48h-359v53l303 599h-288v48h345v-53zM194 875h51l70 -87l71 87h50l-88 -122h-67z" />
    <glyph glyph-name="zcaron" unicode="&#x17e;" 
d="M456 453l-265 -410h269v-43h-320v48l266 409h-250v43h300v-47zM187 675h51l70 -87l71 87h50l-88 -122h-67z" />
    <glyph glyph-name="florin" unicode="&#x192;" 
d="M321 -181h-49v529h-153v44h153v174q0 65 40 104.5t103 39.5q49 0 85 -17l-27 -38q-20 13 -58 13q-43 0 -68.5 -28.5t-25.5 -74.5v-173h198v-44h-198v-529z" />
    <glyph glyph-name="uni01F4" unicode="&#x1f4;" 
d="M489 343v-178q0 -74 -51.5 -124.5t-131.5 -50.5q-82 0 -134 51t-52 125v369q0 74 52 124.5t134 50.5q80 0 129 -50t49 -125h-52q-1 53 -36 89t-90 36q-60 0 -97 -36t-37 -90v-369q0 -54 37 -90.5t97 -36.5q58 0 94.5 36t36.5 90v131h-104v48h156zM295 753h-54l109 122h72
z" />
    <glyph glyph-name="uni01F5" unicode="&#x1f5;" 
d="M410 18h-220q-31 0 -52.5 -22t-21.5 -55t21.5 -54.5t52.5 -21.5h220q31 0 53.5 22t22.5 54q0 33 -22 55t-54 22zM392 296v68q0 43 -31.5 73t-74.5 30q-45 0 -76 -29.5t-31 -73.5v-68q0 -43 31.5 -72.5t75.5 -29.5q42 0 74 30t32 72zM480 513q-31 0 -45 -19l-27 -38
q35 -44 35 -91v-69q0 -59 -46.5 -102.5t-110.5 -43.5l-14 1v-88h149q48 0 82 -35.5t34 -86.5t-34 -86t-82 -35h-243q-48 0 -81.5 35t-33.5 86t33.5 86.5t81.5 35.5h40v102q-29 10 -59.5 44.5t-30.5 86.5v69q0 59 46.5 102t111.5 43q52 0 87 -26l38 46q23 27 69 27h11v-44
h-11zM263 553h-54l109 122h72z" />
    <glyph glyph-name="uni0218" unicode="&#x218;" 
d="M477 535h-51q-2 54 -37.5 90.5t-88.5 36.5q-51 0 -87 -35t-36 -86q0 -41 22.5 -72.5t57 -50.5t74 -42.5t74 -47t57 -65t22.5 -95.5q0 -75 -52.5 -126.5t-131.5 -51.5q-81 0 -133 50.5t-52 124.5v24h52v-24q0 -54 37.5 -90.5t95.5 -36.5t95 35.5t37 89.5q0 55 -31.5 94.5
t-77 63t-90.5 48.5t-76.5 67t-31.5 102q0 72 51.5 122t123.5 50q73 0 124.5 -49t52.5 -126zM264 -173h-41l53 123h71z" />
    <glyph glyph-name="uni0219" unicode="&#x219;" 
d="M460 377h-51q-1 38 -32 64t-74 26q-38 0 -68.5 -23.5t-30.5 -57.5t26.5 -56.5t65 -37t76.5 -31t64.5 -50t26.5 -83.5q0 -58 -46 -98t-114 -40q-76 0 -121 44.5t-45 105.5h49q1 -45 34 -76t83 -31q48 0 79 27t31 68q0 36 -26.5 60t-64.5 38.5t-76 31t-64.5 47t-26.5 75.5
q0 58 44 94t108 36q67 0 108 -42t45 -91zM264 -173h-41l53 123h71z" />
    <glyph glyph-name="uni021A" unicode="&#x21a;" 
d="M101 652v48h398v-48h-173v-652h-52v652h-173zM259 -173h-41l53 123h71z" />
    <glyph glyph-name="uni021B" unicode="&#x21b;" 
d="M111 457v43h77v140h48v-140h242v-43h-242v-316q0 -45 28 -76t79 -31q43 0 71 28.5t29 62.5h44q-1 -53 -43 -94t-102 -41q-72 0 -113 42t-41 111v314h-77zM279 -173h-41l53 123h71z" />
    <glyph glyph-name="uni02BC" unicode="&#x2bc;" 
d="M263 553h-54l90 122h72z" />
    <glyph glyph-name="circumflex" unicode="&#x2c6;" 
d="M229 553h-51l87 122h67l88 -122h-50l-71 87z" />
    <glyph glyph-name="caron" unicode="&#x2c7;" 
d="M178 675h51l70 -87l71 87h50l-88 -122h-67z" />
    <glyph glyph-name="breve" unicode="&#x2d8;" 
d="M300 600q25 0 42 9.5t23.5 23.5t8.5 22.5t2 15.5h49q0 -11 -2.5 -23t-10.5 -29t-20.5 -30t-36.5 -22t-55 -9t-55 9t-36.5 22t-20.5 30t-10.5 29t-2.5 23h49q0 -7 2 -15.5t8.5 -22.5t23.5 -23.5t42 -9.5z" />
    <glyph glyph-name="dotaccent" unicode="&#x2d9;" 
d="M267 597v70h66v-70h-66z" />
    <glyph glyph-name="ring" unicode="&#x2da;" 
d="M218 623q0 34 24 57.5t57 23.5t57.5 -24t24.5 -57t-24.5 -56.5t-57.5 -23.5t-57 23.5t-24 56.5zM256 623q0 -18 12.5 -31t30.5 -13t31 13t13 31q0 19 -12.5 32t-31.5 13q-18 0 -30.5 -13t-12.5 -32z" />
    <glyph glyph-name="ogonek" unicode="&#x2db;" 
d="M365 -180h-51q-36 0 -58 19.5t-22 51.5q0 26 17 53t35 42l17 14h50q-8 -6 -20 -16.5t-32.5 -38t-20.5 -48.5q0 -18 11.5 -27.5t28.5 -9.5h45v-40z" />
    <glyph glyph-name="tilde" unicode="&#x2dc;" 
d="M242 659q26 0 63 -21t54 -21q14 0 23 9.5t9 25.5v7h46v-7q0 -35 -22.5 -57t-55.5 -22q-26 0 -63 21t-54 21q-14 0 -23.5 -9.5t-9.5 -24.5v-8h-46v8q0 35 22.5 56.5t56.5 21.5z" />
    <glyph glyph-name="hungarumlaut" unicode="&#x2dd;" 
d="M200 553h-46l94 122h68zM331 553h-46l94 122h68z" />
    <glyph glyph-name="acutecomb" unicode="&#x301;" 
d="M263 553h-54l109 122h72z" />
    <glyph glyph-name="uni0394" unicode="&#x394;" 
d="M350 700l143 -700h-388l143 700h102zM284 652l-118 -604h266l-118 604h-30z" />
    <glyph glyph-name="uni03A9" unicode="&#x3a9;" 
d="M364 109q31 16 49.5 46t18.5 66v313q0 54 -36.5 90t-95.5 36q-60 0 -96.5 -36t-36.5 -90v-312q0 -37 18 -67t50 -46q12 -6 12 -20v-89h-135v48h87v26q-39 23 -61.5 62.5t-22.5 86.5v312q0 74 52 124.5t133 50.5t132.5 -50.5t51.5 -124.5v-313q0 -46 -22.5 -85.5
t-61.5 -62.5v-26h87v-48h-135v89q0 14 12 20z" />
    <glyph glyph-name="uni03BC" unicode="&#x3bc;" 
d="M174 54v-234h-49v680h49v-343q0 -52 32 -88t79 -36q51 0 89 34.5t38 87.5v345h49v-410q0 -22 10 -35.5t30 -14.5v-44q-61 0 -83 63q-51 -69 -130 -69q-41 0 -71 19.5t-43 44.5z" />
    <glyph glyph-name="pi" unicode="&#x3c0;" 
d="M397 0v457h-196v-457h-50v457h-53v43h402v-43h-52v-457h-51z" />
    <glyph glyph-name="uni0401" unicode="&#x401;" 
d="M147 700h314v-48h-262v-258h238v-48h-238v-298h271v-48h-323v700zM200 797v70h58v-70h-58zM367 797v70h58v-70h-58z" />
    <glyph glyph-name="uni0402" unicode="&#x402;" 
d="M57 700h334v-48h-154v-243q53 32 115 32q69 0 113 -43.5t44 -114.5v-137q0 -61 -39.5 -103.5t-98.5 -42.5h-44v48h41q39 0 64 29t25 70v129q0 54 -31 85.5t-83 31.5q-26 0 -52.5 -9.5t-40.5 -18.5l-13 -9v-356h-52v652h-128v48z" />
    <glyph glyph-name="uni0403" unicode="&#x403;" 
d="M259 0h-52v700h314v-48h-262v-652zM356 753h-54l109 122h72z" />
    <glyph glyph-name="uni0404" unicode="&#x404;" 
d="M355 389v-48h-178v-170q0 -55 36.5 -92t90.5 -37q53 0 89.5 36.5t36.5 89.5v5h52v-4q0 -73 -52 -124t-126 -51q-75 0 -127 51.5t-52 124.5v361q0 73 51 124t128 51q74 0 124 -51t50 -124h-51q-1 53 -36.5 90.5t-87.5 37.5q-54 0 -90 -37.5t-36 -91.5v-141h178z" />
    <glyph glyph-name="uni0405" unicode="&#x405;" 
d="M477 531h-51q-2 54 -37.5 90.5t-88.5 36.5q-51 0 -87 -35t-36 -86q0 -35 17 -62.5t44 -46t59.5 -35.5t65.5 -36t60 -42t44 -59.5t17 -83.5q0 -75 -52.5 -126.5t-131.5 -51.5q-81 0 -133 50.5t-52 124.5v24h52v-24q0 -54 37.5 -90.5t95.5 -36.5t95 35.5t37 89.5
q0 41 -17 72t-44 51t-59.5 37t-65.5 35t-60 39t-44 55t-17 78q0 72 51.5 122t123.5 50q73 0 124.5 -49t52.5 -126z" />
    <glyph glyph-name="uni0406" unicode="&#x406;" 
d="M119 652v48h362v-48h-154v-604h154v-48h-362v48h156v604h-156z" />
    <glyph glyph-name="uni0407" unicode="&#x407;" 
d="M119 652v48h362v-48h-154v-604h154v-48h-362v48h156v604h-156zM187 797v70h58v-70h-58zM354 797v70h58v-70h-58z" />
    <glyph glyph-name="uni0408" unicode="&#x408;" 
d="M116 168v60h52v-61q0 -53 36.5 -89.5t89.5 -36.5q54 0 90.5 37t36.5 90v484h-271v48h323v-531q0 -72 -52.5 -123.5t-124.5 -51.5q-79 0 -129.5 50t-50.5 124z" />
    <glyph glyph-name="uni0409" unicode="&#x409;" horiz-adv-x="599" 
d="M506 147v103q0 40 -27 68t-66 28h-71v-296h71q39 0 66 28.5t27 68.5zM131 700h211v-306h74q60 0 101 -42.5t41 -104.5v-101q0 -61 -41 -103.5t-101 -42.5h-126v652h-109q-14 -283 -27 -495q-5 -71 -38 -114.5t-84 -43.5l-14 1v46q77 0 84 117q12 191 29 537z" />
    <glyph glyph-name="uni040A" unicode="&#x40a;" 
d="M350 700v-306h74q60 0 101 -42.5t41 -104.5v-101q0 -61 -41 -103.5t-101 -42.5h-126v346h-179v-346h-52v700h52v-306h179v306h52zM514 147v103q0 40 -27 68t-66 28h-71v-296h71q39 0 66 28.5t27 68.5z" />
    <glyph glyph-name="uni040B" unicode="&#x40b;" 
d="M509 283v-283h-52v276q0 54 -31 85.5t-83 31.5q-26 0 -52.5 -9.5t-40.5 -18.5l-13 -9v-356h-52v652h-128v48h334v-48h-154v-243q53 32 115 32q69 0 113 -43.5t44 -114.5z" />
    <glyph glyph-name="uni040C" unicode="&#x40c;" 
d="M242 346h-40v-346h-52v700h52v-307h39l211 307h56l-226 -326l240 -374h-59zM320 753h-54l109 122h72z" />
    <glyph glyph-name="uni040E" unicode="&#x40e;" 
d="M313 798q72 0 72 73h51q0 -16 -4 -32.5t-15.5 -36t-38 -32t-65.5 -12.5t-65.5 12.5t-38 32t-15.5 36t-4 32.5h51q0 -73 72 -73zM515 700l-283 -700h-57l109 263l-175 437h60l143 -367l146 367h57z" />
    <glyph glyph-name="uni040F" unicode="&#x40f;" 
d="M274 0h-153v700h52v-652h254v652h52v-700h-153v-149h-52v149z" />
    <glyph glyph-name="uni0410" unicode="&#x410;" 
d="M246 700h108l125 -426v-274h-52v239h-254v-239h-52v274zM422 287l-104 365h-36l-104 -365h244z" />
    <glyph glyph-name="uni0411" unicode="&#x411;" 
d="M148 0v700h282v-48h-230v-258h126q60 0 103 -43.5t43 -104.5v-100q0 -61 -43 -103.5t-103 -42.5h-178zM420 147v102q0 40 -28.5 68.5t-68.5 28.5h-123v-296h123q40 0 68.5 28.5t28.5 68.5z" />
    <glyph glyph-name="uni0412" unicode="&#x412;" 
d="M312 700q65 0 108 -42.5t43 -103.5v-58q0 -24 -7.5 -45.5t-18.5 -35.5t-22.5 -24.5t-18.5 -14.5l-8 -5q3 -2 8.5 -5t20 -15.5t25 -26.5t19.5 -38t9 -51v-76q0 -68 -48.5 -113.5t-113.5 -45.5h-166v700h170zM315 650h-121v-258h121q41 0 70.5 29.5t29.5 70.5v58
q0 41 -29.5 70.5t-70.5 29.5zM194 346v-298h114q48 0 79.5 33t31.5 78v76q0 38 -29 74.5t-82 36.5h-114z" />
    <glyph glyph-name="uni0413" unicode="&#x413;" 
d="M259 0h-52v700h314v-48h-262v-652z" />
    <glyph glyph-name="uni0414" unicode="&#x414;" horiz-adv-x="599" 
d="M260 652l-62 -539q-2 -21 -8 -37t-10 -22l-5 -6h227v604h-142zM69 -149v197h35q16 0 28.5 22.5t16.5 55.5l65 574h240v-652h63v-197h-52v149h-344v-149h-52z" />
    <glyph glyph-name="uni0415" unicode="&#x415;" 
d="M147 700h314v-48h-262v-258h238v-48h-238v-298h271v-48h-323v700z" />
    <glyph glyph-name="uni0416" unicode="&#x416;" 
d="M343 393l139 307h53l-148 -328l158 -372h-53l-149 346h-18v-346h-51v346h-18l-150 -346h-53l159 372l-148 328h54l138 -307h18v307h51v-307h18z" />
    <glyph glyph-name="uni0417" unicode="&#x417;" 
d="M299 706q76 0 123 -50t47 -125v-20q0 -41 -17.5 -74.5t-34.5 -46.5l-17 -14q3 -1 8 -4t18 -14.5t22.5 -25t17.5 -36t8 -48.5v-78q0 -75 -51 -125.5t-130 -50.5q-75 0 -124.5 49.5t-51.5 117.5v12h51v-12q2 -46 37 -82.5t90 -36.5q57 0 91.5 36t34.5 91v72
q0 46 -28.5 75.5t-79.5 29.5h-67v48h60q57 0 83.5 37t26.5 82v19q0 55 -32 90.5t-88 35.5t-87.5 -37t-31.5 -73h-48q0 61 47.5 109.5t122.5 48.5z" />
    <glyph glyph-name="uni0418" unicode="&#x418;" 
d="M434 605l-262 -605h-51v700h48v-364l-3 -244l262 608h51v-700h-48v364z" />
    <glyph glyph-name="uni0419" unicode="&#x419;" 
d="M300 798q72 0 72 73h51q0 -16 -4 -32.5t-15.5 -36t-38 -32t-65.5 -12.5t-65.5 12.5t-38 32t-15.5 36t-4 32.5h51q0 -73 72 -73zM434 605l-262 -605h-51v700h48v-364l-3 -244l262 608h51v-700h-48v364z" />
    <glyph glyph-name="uni041A" unicode="&#x41a;" 
d="M242 346h-40v-346h-52v700h52v-307h39l211 307h56l-226 -326l240 -374h-59z" />
    <glyph glyph-name="uni041B" unicode="&#x41b;" horiz-adv-x="599" 
d="M456 0h-52v652h-143q-36 -350 -57 -511q-8 -57 -40 -99t-97 -42v46q38 0 59.5 27.5t28.5 89.5l59 537h242v-700z" />
    <glyph glyph-name="uni041C" unicode="&#x41c;" 
d="M300 364l148 336h52v-700h-50v359l5 255l-130 -296h-51l-129 296q4 -124 4 -254v-360h-49v700h53z" />
    <glyph glyph-name="uni041D" unicode="&#x41d;" 
d="M427 700h52v-700h-52v346h-254v-346h-52v700h52v-306h254v306z" />
    <glyph glyph-name="uni041E" unicode="&#x41e;" 
d="M484 531v-362q0 -74 -51.5 -124.5t-132.5 -50.5t-133 51t-52 125v361q0 74 52 124.5t133 50.5t132.5 -50.5t51.5 -124.5zM432 168v362q0 54 -36.5 91t-95.5 37q-60 0 -96.5 -37t-36.5 -91v-361q0 -54 36.5 -90.5t96.5 -36.5q59 0 95.5 36t36.5 90z" />
    <glyph glyph-name="uni041F" unicode="&#x41f;" 
d="M479 700v-700h-52v652h-254v-652h-52v700h358z" />
    <glyph glyph-name="uni0420" unicode="&#x420;" 
d="M148 0v700h178q62 0 104 -41.5t42 -104.5v-152q0 -64 -42 -105.5t-104 -41.5h-126v-255h-52zM420 399v154q0 42 -27.5 69.5t-69.5 27.5h-123v-347h123q42 0 69.5 27t27.5 69z" />
    <glyph glyph-name="uni0421" unicode="&#x421;" 
d="M483 173v-4q0 -73 -52 -124t-126 -51q-75 0 -127 51.5t-52 124.5v361q0 73 51 124t128 51q75 0 126 -51t51 -124h-51q-1 53 -38 90.5t-89 37.5q-54 0 -90 -37.5t-36 -91.5v-359q0 -53 38 -91t89 -38q53 0 89.5 36.5t36.5 89.5v5h52z" />
    <glyph glyph-name="uni0422" unicode="&#x422;" 
d="M101 652v48h398v-48h-173v-652h-52v652h-173z" />
    <glyph glyph-name="uni0423" unicode="&#x423;" 
d="M515 700l-283 -700h-57l109 263l-175 437h60l143 -367l146 367h57z" />
    <glyph glyph-name="uni0424" unicode="&#x424;" 
d="M502 461v-206q0 -74 -51.5 -122t-124.5 -52v-81h-52v81q-75 4 -126 52t-51 123v205q0 75 51 123t126 52v64h52v-64q73 -4 124.5 -52.5t51.5 -122.5zM149 255q0 -53 36 -88t89 -37v457q-53 -2 -89 -37t-36 -89v-206zM450 254v207q0 54 -36.5 89t-87.5 37v-457
q51 2 87.5 37t36.5 87z" />
    <glyph glyph-name="uni0425" unicode="&#x425;" 
d="M167 700l132 -283l133 283h59l-161 -336l177 -364h-61l-147 312l-146 -312h-61l176 364l-160 336h59z" />
    <glyph glyph-name="uni0426" unicode="&#x426;" 
d="M470 0h-349v700h52v-652h254v652h52v-652h43v-197h-52v149z" />
    <glyph glyph-name="uni0427" unicode="&#x427;" 
d="M455 700v-700h-52v283q-60 -28 -137 -28q-65 0 -107.5 42.5t-42.5 112.5v290h52v-283q0 -53 31 -83.5t83 -30.5q32 0 62 8.5t44 16.5l15 9v363h52z" />
    <glyph glyph-name="uni0428" unicode="&#x428;" 
d="M510 700v-700h-420v700h52v-652h132v652h52v-652h132v652h52z" />
    <glyph glyph-name="uni0429" unicode="&#x429;" 
d="M498 0h-411v700h52v-652h132v652h52v-652h132v652h52v-652h43v-197h-52v149z" />
    <glyph glyph-name="uni042A" unicode="&#x42a;" 
d="M227 700v-306h146q60 0 103 -43t43 -104v-101q0 -61 -43 -103.5t-103 -42.5h-198v652h-109v48h161zM467 147v103q0 40 -28.5 68t-68.5 28h-143v-296h143q40 0 68.5 28.5t28.5 68.5z" />
    <glyph glyph-name="uni042B" unicode="&#x42b;" 
d="M337 147v103q0 40 -28.5 68t-68.5 28h-111v-296h111q40 0 68.5 28.5t28.5 68.5zM129 700v-306h114q60 0 103 -43t43 -104v-101q0 -61 -43 -103.5t-103 -42.5h-166v700h52zM524 700v-700h-52v700h52z" />
    <glyph glyph-name="uni042C" unicode="&#x42c;" 
d="M455 147v103q0 40 -28.5 68t-68.5 28h-143v-296h143q40 0 68.5 28.5t28.5 68.5zM215 700v-306h146q60 0 103 -43t43 -104v-101q0 -61 -43 -103.5t-103 -42.5h-198v700h52z" />
    <glyph glyph-name="uni042D" unicode="&#x42d;" 
d="M235 341v48h178v141q0 54 -36 91.5t-90 37.5q-52 0 -87.5 -37.5t-36.5 -90.5h-51q0 73 50 124t124 51q77 0 128 -51t51 -124v-361q0 -73 -52 -124.5t-127 -51.5q-74 0 -126 51t-52 124v4h52v-5q0 -53 36.5 -89.5t89.5 -36.5q54 0 90.5 37t36.5 92v170h-178z" />
    <glyph glyph-name="uni042E" unicode="&#x42e;" 
d="M538 530v-359q0 -75 -44 -126t-115 -51t-115.5 51.5t-44.5 126.5v174h-87v-346h-52v700h52v-306h87v136q0 75 44.5 125.5t115.5 50.5t115 -50.5t44 -125.5zM487 170v359q0 56 -29.5 93t-78.5 37q-51 0 -80 -37t-29 -93v-358q0 -56 29 -92.5t80 -36.5q49 0 78.5 36.5
t29.5 91.5z" />
    <glyph glyph-name="uni042F" unicode="&#x42f;" 
d="M278 267l-111 -267h-56l114 275q-44 14 -71.5 52.5t-27.5 86.5v140q0 64 42.5 105t113.5 41h168v-700h-52v267h-120zM178 553v-142q0 -42 27.5 -69t69.5 -27h123v335h-115q-49 0 -77 -27t-28 -70z" />
    <glyph glyph-name="uni0430" unicode="&#x430;" 
d="M420 0v53q-2 -2 -5.5 -6t-16 -14.5t-27.5 -18t-39.5 -14t-51.5 -6.5q-67 0 -113 40t-46 105q0 66 46 106t120 49q43 5 133 9v42q0 52 -30 85t-82 33q-42 0 -71 -24t-38 -62h-49q9 57 51.5 93t106.5 36q77 0 119 -45t42 -117v-344h-49zM286 36q54 0 94 30t40 72v122
q-81 -2 -121 -7q-129 -16 -129 -113q0 -46 32 -75t84 -29z" />
    <glyph glyph-name="uni0431" unicode="&#x431;" 
d="M418 165v150q0 63 -35.5 99t-89.5 36q-53 0 -90.5 -37.5t-37.5 -103.5v-144q0 -59 36 -93.5t91 -34.5q54 0 90 35t36 93zM466 328v-167q0 -74 -48 -121t-126 -47q-80 0 -127.5 46.5t-47.5 121.5v270q0 128 66.5 194t164.5 69q48 3 73 9v-44q-21 -7 -66 -9
q-190 -9 -190 -225l5 7.5t14.5 16.5t26 21t39 16.5t52.5 7.5q71 0 117.5 -46.5t46.5 -119.5z" />
    <glyph glyph-name="uni0432" unicode="&#x432;" 
d="M302 0h-172v500h190q74 0 111.5 -34t37.5 -93q0 -37 -17.5 -64.5t-34.5 -36.5l-17 -9q3 -1 8.5 -3.5t20 -12.5t25 -22.5t19.5 -35t9 -49.5q0 -140 -180 -140zM324 457h-145v-177h141q46 0 73.5 24.5t27.5 67.5q0 37 -25.5 61t-71.5 24zM179 237v-194h138q58 0 86.5 26
t28.5 72q0 43 -27 69.5t-85 26.5h-141z" />
    <glyph glyph-name="uni0433" unicode="&#x433;" 
d="M266 0h-50v500h294v-43h-244v-457z" />
    <glyph glyph-name="uni0434" unicode="&#x434;" 
d="M88 43h26q14 0 27.5 22t18.5 56l50 379h239v-457h48v-148h-48v105h-313v-105h-48v148zM401 457h-147q-33 -254 -48 -353q-3 -19 -9.5 -34t-12.5 -21l-5 -6h222v414z" />
    <glyph glyph-name="uni0435" unicode="&#x435;" 
d="M426 150h48q-4 -68 -51.5 -112t-122.5 -44q-78 0 -126.5 44.5t-48.5 110.5v197q0 66 48.5 113t126.5 47q77 0 125.5 -47t48.5 -113v-115h-301v-74q0 -53 35.5 -86.5t90.5 -33.5t90 31t37 82zM173 337v-63h253v64q0 53 -37 89t-90 36t-89.5 -36t-36.5 -90z" />
    <glyph glyph-name="uni0436" unicode="&#x436;" 
d="M337 244h-14v-244h-46v244h-14l-135 -244h-55l149 265l-141 235h53l127 -214h16v214h46v-214h16l127 214h52l-140 -235l149 -265h-55z" />
    <glyph glyph-name="uni0437" unicode="&#x437;" 
d="M295 37q56 0 90 29.5t34 77.5q0 45 -28 69.5t-73 24.5h-59v44h56q43 0 69.5 25.5t26.5 61.5q0 39 -31.5 66.5t-78.5 27.5q-48 0 -80.5 -26.5t-36.5 -65.5h-45q3 55 47.5 95t115.5 40t113.5 -39.5t42.5 -95.5q0 -32 -16 -58t-32 -36l-15 -10q3 -1 8 -4t17 -13t21.5 -23
t17.5 -35t8 -47q0 -65 -47.5 -108t-123.5 -43q-75 0 -123.5 44.5t-52.5 111.5h47q2 -51 39 -82t89 -31z" />
    <glyph glyph-name="uni0438" unicode="&#x438;" 
d="M429 0v251l3 171l-264 -422h-47v500h49v-250l-3 -172l264 422h47v-500h-49z" />
    <glyph glyph-name="uni0439" unicode="&#x439;" 
d="M300 598q72 0 72 73h51q0 -16 -4 -32.5t-15.5 -36t-38 -32t-65.5 -12.5t-65.5 12.5t-38 32t-15.5 36t-4 32.5h51q0 -73 72 -73zM429 0v251l3 171l-264 -422h-47v500h49v-250l-3 -172l264 422h47v-500h-49z" />
    <glyph glyph-name="uni043A" unicode="&#x43a;" 
d="M248 244h-38v-244h-48v500h48v-214h38l180 214h59l-201 -233l218 -267h-62z" />
    <glyph glyph-name="uni043B" unicode="&#x43b;" 
d="M203 103q-6 -48 -28 -78t-71 -30l-19 1v38h15q16 1 26.5 6.5t16.5 20t8.5 24.5t6.5 34l51 381h261v-500h-49v457h-170z" />
    <glyph glyph-name="uni043C" unicode="&#x43c;" 
d="M278 223l-118 209q2 -69 2 -181v-251h-47v500h55l131 -238l128 238h56v-500h-48v250l2 182l-117 -209h-44z" />
    <glyph glyph-name="uni043D" unicode="&#x43d;" 
d="M174 0h-49v500h49v-213h253v213h49v-500h-49v244h-253v-244z" />
    <glyph glyph-name="uni043E" unicode="&#x43e;" 
d="M474 355v-210q0 -65 -48.5 -110t-125.5 -45q-78 0 -126.5 44.5t-48.5 110.5v210q0 66 48.5 110.5t126.5 44.5q77 0 125.5 -45t48.5 -110zM426 151v198q0 50 -37 84t-90 34t-89.5 -34t-36.5 -84v-198q0 -50 36.5 -84t90.5 -34q53 0 89.5 34t36.5 84z" />
    <glyph glyph-name="uni043F" unicode="&#x43f;" 
d="M125 500h351v-500h-49v457h-253v-457h-49v500z" />
    <glyph glyph-name="uni0440" unicode="&#x440;" 
d="M432 159v182q0 60 -34 93t-86 33q-57 0 -95 -36t-38 -90v-182q0 -54 38 -90t95 -36q51 0 85.5 33.5t34.5 92.5zM179 55v-235h-49v680h47l2 -55q5 7 14.5 18t44 29t74.5 18q75 0 122 -45.5t47 -113.5v-202q0 -68 -47 -113.5t-122 -45.5q-40 0 -73.5 16.5t-46.5 32.5z" />
    <glyph glyph-name="uni0441" unicode="&#x441;" 
d="M173 349v-198q0 -51 36.5 -84.5t90.5 -33.5q52 0 88 31t38 82h47q-4 -67 -51.5 -111.5t-121.5 -44.5q-79 0 -127 46t-48 117v194q0 70 48 116.5t127 46.5q72 0 119 -44t51 -109h-49q-2 48 -36.5 79t-84.5 31q-54 0 -90.5 -33.5t-36.5 -84.5z" />
    <glyph glyph-name="uni0442" unicode="&#x442;" 
d="M98 500h402v-43h-176v-457h-50v457h-176v43z" />
    <glyph glyph-name="uni0443" unicode="&#x443;" 
d="M255 -76l32 83l-179 493h54l153 -423l154 423h53l-223 -594q-33 -87 -134 -87l-19 1v41h15q40 2 60.5 15t33.5 48z" />
    <glyph glyph-name="uni0444" unicode="&#x444;" 
d="M325 700v-198q83 -2 138 -49.5t55 -117.5v-170q0 -71 -55.5 -119t-137.5 -48v-178h-49v178q-83 0 -138 48t-55 119v170q0 70 55 117.5t138 49.5v198h49zM470 329q0 55 -39.5 92t-105.5 38v-418q65 0 105 37.5t40 92.5v158zM131 171q0 -56 39.5 -93t105.5 -37v418
q-66 -1 -105.5 -38t-39.5 -92v-158z" />
    <glyph glyph-name="uni0445" unicode="&#x445;" 
d="M184 500l116 -203l116 203h58l-145 -244l151 -256h-57l-123 214l-123 -214h-58l151 256l-144 244h58z" />
    <glyph glyph-name="uni0446" unicode="&#x446;" 
d="M476 0h-351v500h49v-457h253v457h49v-457h48v-148h-48v105z" />
    <glyph glyph-name="uni0447" unicode="&#x447;" 
d="M114 290v210h49v-200q0 -110 102 -110q34 0 71.5 14t58.5 28l21 15v253h49v-500h-49v198q-8 -6 -23 -14.5t-57 -22.5t-79 -14q-68 0 -105.5 38t-37.5 105z" />
    <glyph glyph-name="uni0448" unicode="&#x448;" 
d="M325 500v-457h124v457h49v-500h-395v500h49v-457h124v457h49z" />
    <glyph glyph-name="uni0449" unicode="&#x449;" 
d="M493 0h-395v500h49v-457h124v457h49v-457h124v457h49v-457h48v-148h-48v105z" />
    <glyph glyph-name="uni044A" unicode="&#x44a;" 
d="M74 500h158v-213h110q71 0 112.5 -42t41.5 -100q0 -59 -41.5 -102t-112.5 -43h-159v457h-109v43zM447 145q0 39 -26.5 69t-75.5 30h-113v-201h113q49 0 75.5 31t26.5 71z" />
    <glyph glyph-name="uni044B" unicode="&#x44b;" 
d="M135 500v-213h110q71 0 112.5 -42t41.5 -100q0 -59 -41.5 -102t-112.5 -43h-159v500h49zM350 145q0 39 -26.5 69t-75.5 30h-113v-201h113q49 0 75.5 31t26.5 71zM513 500v-500h-49v500h49z" />
    <glyph glyph-name="uni044C" unicode="&#x44c;" 
d="M226 500v-213h110q71 0 112.5 -42t41.5 -100q0 -59 -41.5 -102t-112.5 -43h-159v500h49zM441 145q0 39 -26.5 69t-75.5 30h-113v-201h113q49 0 75.5 31t26.5 71z" />
    <glyph glyph-name="uni044D" unicode="&#x44d;" 
d="M259 237v43h163v69q0 51 -36.5 84.5t-90.5 33.5q-50 0 -84.5 -31t-36.5 -79h-49q4 65 51 109t119 44q79 0 127 -46.5t48 -116.5v-194q0 -71 -48 -117t-127 -46q-74 0 -121.5 44.5t-51.5 111.5h47q2 -51 38 -82t88 -31q54 0 90.5 33.5t36.5 84.5v86h-163z" />
    <glyph glyph-name="uni044E" unicode="&#x44e;" 
d="M528 349v-199q0 -67 -41 -113.5t-113 -46.5q-73 0 -113.5 46t-40.5 114v94h-76v-244h-49v500h49v-213h76v62q0 68 40.5 114.5t113.5 46.5q72 0 113 -47t41 -114zM482 156v187q0 53 -29.5 88.5t-78.5 35.5q-50 0 -79 -35.5t-29 -88.5v-187q0 -53 29 -88t79 -35t79 35
t29 88z" />
    <glyph glyph-name="uni044F" unicode="&#x44f;" 
d="M409 0v203h-115l-124 -203h-57l130 209q-51 14 -79.5 53.5t-28.5 87.5q0 59 41.5 104.5t112.5 45.5h169v-500h-49zM184 350q0 -39 26.5 -71.5t75.5 -32.5h123v211h-123q-48 0 -75 -33.5t-27 -73.5z" />
    <glyph glyph-name="uni0451" unicode="&#x451;" 
d="M426 146h48q-4 -68 -51.5 -112t-122.5 -44q-78 0 -126.5 44.5t-48.5 110.5v210q0 66 48.5 110.5t126.5 44.5q77 0 125.5 -45t48.5 -110v-119h-301v-83q0 -53 35.5 -86.5t90.5 -33.5t90 31t37 82zM173 346v-67h253v68q0 53 -36.5 86.5t-90.5 33.5t-90 -34t-36 -87z
M187 597v70h58v-70h-58zM354 597v70h58v-70h-58z" />
    <glyph glyph-name="uni0452" unicode="&#x452;" 
d="M483 342v-342q0 -77 -42.5 -126t-120.5 -50v44q54 0 84 35.5t30 96.5v332q0 59 -33 92.5t-87 33.5t-93.5 -33t-39.5 -78v-347h-49v575h-60v43h60v82h49v-82h128v-43h-128v-136q6 7 16 17t45 27t72 17q77 0 123 -45t46 -113z" />
    <glyph glyph-name="uni0453" unicode="&#x453;" 
d="M266 0h-50v500h294v-43h-244v-457zM378 553h-54l109 122h72z" />
    <glyph glyph-name="uni0454" unicode="&#x454;" 
d="M341 280v-43h-163v-86q0 -51 36.5 -84.5t90.5 -33.5q52 0 88 31t38 82h47q-4 -67 -51.5 -111.5t-121.5 -44.5q-79 0 -127 46t-48 117v194q0 70 48 116.5t127 46.5q72 0 119 -44t51 -109h-49q-2 48 -36.5 79t-84.5 31q-54 0 -90.5 -33.5t-36.5 -84.5v-69h163z" />
    <glyph glyph-name="uni0455" unicode="&#x455;" 
d="M460 377h-51q-1 38 -32 64t-74 26q-38 0 -68.5 -23.5t-30.5 -57.5t26.5 -56.5t65 -37t76.5 -31t64.5 -50t26.5 -83.5q0 -58 -46 -98t-114 -40q-76 0 -121 44.5t-45 105.5h49q1 -45 34 -76t83 -31q48 0 79 27t31 68q0 36 -26.5 60t-64.5 38.5t-76 31t-64.5 47t-26.5 75.5
q0 58 44 94t108 36q67 0 108 -42t45 -91z" />
    <glyph glyph-name="uni0456" unicode="&#x456;" 
d="M119 500h210v-457h142v-43h-352v43h160v414h-160v43zM268 570v70h66v-70h-66z" />
    <glyph glyph-name="uni0457" unicode="&#x457;" 
d="M119 500h210v-457h142v-43h-352v43h160v414h-160v43zM187 570v70h58v-70h-58zM354 570v70h58v-70h-58z" />
    <glyph glyph-name="uni0458" unicode="&#x458;" 
d="M425 500v-540q0 -66 -40.5 -108t-110.5 -42q-67 0 -107 29l25 37q31 -23 82 -23q47 0 74 30t27 79v495h-237v43h287zM363 570v70h64v-70h-64z" />
    <glyph glyph-name="uni0459" unicode="&#x459;" 
d="M159 103q-4 -44 -27 -76t-72 -32l-19 1v41h15q31 1 43 22t15 62q13 150 27 379h213v-213h45q71 0 112.5 -42t41.5 -100q0 -59 -41.5 -102t-112.5 -43h-94v457h-120q-15 -236 -26 -354zM402 244h-48v-201h48q49 0 75.5 31t26.5 71q0 39 -26.5 69t-75.5 30z" />
    <glyph glyph-name="uni045A" unicode="&#x45a;" 
d="M399 0h-94v244h-166v-244h-49v500h49v-213h166v213h49v-213h45q71 0 112.5 -42t41.5 -100q0 -59 -41.5 -102t-112.5 -43zM402 244h-48v-201h48q49 0 75.5 31t26.5 71q0 39 -26.5 69t-75.5 30z" />
    <glyph glyph-name="uni045B" unicode="&#x45b;" 
d="M68 575v43h61v82h49v-82h128v-43h-128v-140q5 7 14.5 18t44.5 29.5t76 18.5q76 0 121.5 -46t45.5 -114v-341h-49v331q0 60 -33 94t-87 34q-55 0 -94 -35t-39 -83v-341h-49v575h-61z" />
    <glyph glyph-name="uni045C" unicode="&#x45c;" 
d="M248 244h-38v-244h-48v500h48v-214h38l180 214h59l-201 -233l218 -267h-62zM320 553h-54l109 122h72z" />
    <glyph glyph-name="uni045E" unicode="&#x45e;" 
d="M255 -76l32 83l-179 493h54l153 -423l154 423h53l-223 -594q-33 -87 -134 -87l-19 1v41h15q40 2 60.5 15t33.5 48zM316 600q25 0 42 9.5t23.5 23.5t8.5 22.5t2 15.5h49q0 -11 -2.5 -23t-10.5 -29t-20.5 -30t-36.5 -22t-55 -9t-55 9t-36.5 22t-20.5 30t-10.5 29t-2.5 23
h49q0 -7 2 -15.5t8.5 -22.5t23.5 -23.5t42 -9.5z" />
    <glyph glyph-name="uni045F" unicode="&#x45f;" 
d="M276 -105v105h-151v500h49v-457h253v457h49v-500h-152v-105h-48z" />
    <glyph glyph-name="uni0462" unicode="&#x462;" 
d="M380 541h-153v-147h146q60 0 103 -43t43 -104v-101q0 -61 -43 -103.5t-103 -42.5h-198v541h-106v47h106v112h52v-112h153v-47zM467 147v103q0 40 -28.5 68t-68.5 28h-143v-296h143q40 0 68.5 28.5t28.5 68.5z" />
    <glyph glyph-name="uni0463" unicode="&#x463;" 
d="M89 457v43h95v200h48v-200h131v-43h-131v-170h110q71 0 112.5 -42t41.5 -100q0 -59 -41.5 -102t-112.5 -43h-158v457h-95zM447 145q0 39 -26.5 69t-75.5 30h-113v-201h113q49 0 75.5 31t26.5 71z" />
    <glyph glyph-name="uni0472" unicode="&#x472;" 
d="M484 535v-370q0 -74 -51.5 -124.5t-132.5 -50.5t-133 51t-52 125v369q0 74 52 124.5t133 50.5t132.5 -50.5t51.5 -124.5zM359 318q-26 0 -63 21t-54 21q-35 0 -75 -40v-155q0 -54 36.5 -90.5t96.5 -36.5q59 0 95.5 36t36.5 90v183q-37 -29 -73 -29zM167 534v-159
q34 31 75 31q26 0 63 -21t54 -21q35 0 73 38v132q0 54 -36.5 90t-95.5 36q-60 0 -96.5 -36t-36.5 -90z" />
    <glyph glyph-name="uni0473" unicode="&#x473;" 
d="M474 355v-210q0 -65 -48.5 -110t-125.5 -45q-78 0 -126.5 44.5t-48.5 110.5v210q0 66 48.5 110.5t126.5 44.5q77 0 125.5 -45t48.5 -110zM173 349v-80q29 24 66 24q26 0 64 -20.5t55 -20.5q20 0 37 11t24 21l7 11v54q0 48 -37 83t-90 35t-89.5 -35t-36.5 -83zM359 207
q-26 0 -64 20.5t-55 20.5q-19 0 -36 -11t-22.5 -18.5t-8.5 -13.5v-54q0 -48 37 -83t90 -35q52 0 89 35t37 83v80q-27 -24 -67 -24z" />
    <glyph glyph-name="uni0474" unicode="&#x474;" 
d="M461 558l-114 -558h-102l-143 700h54l128 -652h26l101 517q14 72 41.5 106.5t76.5 34.5l17 -1v-42q-12 0 -23 -2q-21 -4 -35.5 -25t-26.5 -78z" />
    <glyph glyph-name="uni0475" unicode="&#x475;" 
d="M427 394l-101 -394h-92l-129 500h51l114 -458h19l89 357q7 27 11.5 39.5t15 32.5t28.5 28.5t44 8.5l19 -1v-41h-15q-24 -1 -34 -16.5t-20 -55.5z" />
    <glyph glyph-name="uni0490" unicode="&#x490;" 
d="M259 0h-52v700h268v102h46v-150h-262v-652z" />
    <glyph glyph-name="uni0491" unicode="&#x491;" 
d="M265 0h-50v500h247v95h48v-138h-245v-457z" />
    <glyph glyph-name="uni0492" unicode="&#x492;" 
d="M123 346v48h94v306h314v-48h-262v-258h164v-48h-164v-346h-52v346h-94z" />
    <glyph glyph-name="uni0493" unicode="&#x493;" 
d="M124 241v43h92v216h284v-43h-234v-173h144v-43h-144v-241h-50v241h-92z" />
    <glyph glyph-name="uni0494" unicode="&#x494;" 
d="M209 346v-346h-52v700h282v-48h-230v-258h46q122 0 178 -55.5t56 -184.5q0 -142 -68.5 -237.5t-151.5 -95.5v47q61 0 115 77.5t54 201.5q0 113 -43 156t-145 43h-41z" />
    <glyph glyph-name="uni0495" unicode="&#x495;" 
d="M256 -163l-1 43q55 0 111 66.5t56 159.5q0 45 -14 73.5t-43 42t-58 18t-73 4.5h-29v-244h-48v500h263v-43h-215v-170h51q214 0 214 -180q0 -59 -22.5 -112t-56.5 -86t-70 -52.5t-65 -19.5z" />
    <glyph glyph-name="uni0496" unicode="&#x496;" 
d="M515 0h-23l-149 346h-18v-346h-51v346h-18l-150 -346h-53l159 372l-148 328h54l138 -307h18v307h51v-307h18l139 307h53l-148 -328l137 -324h43v-197h-52v149z" />
    <glyph glyph-name="uni0497" unicode="&#x497;" 
d="M498 0h-31l-135 244h-14v-244h-46v244h-14l-135 -244h-55l149 265l-141 235h53l127 -214h16v214h46v-214h16l127 214h52l-140 -235l125 -222h48v-148h-48v105z" />
    <glyph glyph-name="uni0498" unicode="&#x498;" 
d="M299 706q76 0 123 -50t47 -125v-20q0 -41 -17.5 -74.5t-34.5 -46.5l-17 -14q3 -1 8 -4t18 -14.5t22.5 -25t17.5 -36t8 -48.5v-78q0 -66 -40.5 -114.5t-106.5 -58.5v-146h-52v144q-68 7 -112 55t-46 111v12h51v-12q2 -46 37 -82.5t90 -36.5q57 0 91.5 36t34.5 91v72
q0 46 -28.5 75.5t-79.5 29.5h-67v48h60q57 0 83.5 37t26.5 82v19q0 55 -32 90.5t-88 35.5t-87.5 -37t-31.5 -73h-48q0 61 47.5 109.5t122.5 48.5z" />
    <glyph glyph-name="uni0499" unicode="&#x499;" 
d="M295 37q56 0 90 29.5t34 77.5q0 45 -28 69.5t-73 24.5h-59v44h56q43 0 69.5 25.5t26.5 61.5q0 39 -31.5 66.5t-78.5 27.5q-48 0 -80.5 -26.5t-36.5 -65.5h-45q3 55 47.5 95t115.5 40t113.5 -39.5t42.5 -95.5q0 -31 -16 -57t-27 -34.5t-20 -12.5q4 -2 9 -5t17.5 -14
t21.5 -23.5t16.5 -34t7.5 -45.5q0 -59 -40 -100.5t-105 -48.5v-101h-48v100q-67 7 -109 50t-45 105h47q2 -51 39 -82t89 -31z" />
    <glyph glyph-name="uni049A" unicode="&#x49a;" 
d="M480 0h-17l-221 346h-40v-346h-52v700h52v-307h39l211 307h56l-226 -326l209 -326h41v-197h-52v149z" />
    <glyph glyph-name="uni049B" unicode="&#x49b;" 
d="M456 0h-21l-194 244h-38v-244h-48v500h48v-214h38l180 214h59l-201 -233l183 -224h42v-148h-48v105z" />
    <glyph glyph-name="uni049C" unicode="&#x49c;" 
d="M234 232v114h-32v-346h-52v700h52v-307h32v108h47v-108h16l155 307h56l-168 -326l182 -374h-59l-165 346h-17v-114h-47z" />
    <glyph glyph-name="uni049D" unicode="&#x49d;" 
d="M239 135v109h-29v-244h-48v500h48v-214h29v104h44v-104h10l135 214h59l-151 -233l168 -267h-62l-150 244h-9v-109h-44z" />
    <glyph glyph-name="uni04A0" unicode="&#x4a0;" 
d="M29 655v45h196v-307h39l211 307h56l-226 -326l240 -374h-59l-221 346h-40v-346h-52v655h-144z" />
    <glyph glyph-name="uni04A1" unicode="&#x4a1;" 
d="M28 457v43h191v-214h38l180 214h59l-201 -233l218 -267h-62l-194 244h-38v-244h-48v457h-143z" />
    <glyph glyph-name="uni04A2" unicode="&#x4a2;" 
d="M459 0h-40v346h-254v-346h-52v700h52v-306h254v306h52v-652h40v-197h-52v149z" />
    <glyph glyph-name="uni04A3" unicode="&#x4a3;" 
d="M464 0h-43v244h-253v-244h-49v500h49v-213h253v213h49v-457h42v-148h-48v105z" />
    <glyph glyph-name="uni04A4" unicode="&#x4a4;" 
d="M409 700h171v-47h-119v-653h-52v346h-236v-346h-52v700h52v-306h236v306z" />
    <glyph glyph-name="uni04A5" unicode="&#x4a5;" 
d="M165 0h-49v500h49v-213h242v213h166v-43h-117v-457h-49v244h-242v-244z" />
    <glyph glyph-name="uni04AA" unicode="&#x4aa;" 
d="M483 173v-4q0 -66 -43.5 -115t-108.5 -58v-145h-52v145q-66 9 -109.5 58t-43.5 116v361q0 73 51 124t128 51q75 0 126 -51t51 -124h-51q-1 53 -38 90.5t-89 37.5q-54 0 -90 -37.5t-36 -91.5v-359q0 -53 38 -91t89 -38q53 0 89.5 36.5t36.5 89.5v5h52z" />
    <glyph glyph-name="uni04AB" unicode="&#x4ab;" 
d="M173 349v-198q0 -51 36.5 -84.5t90.5 -33.5q52 0 88 31t38 82h47q-4 -62 -45 -105t-106 -50v-96h-48v97q-68 7 -108.5 51.5t-40.5 109.5v194q0 70 48 116.5t127 46.5q72 0 119 -44t51 -109h-49q-2 48 -36.5 79t-84.5 31q-54 0 -90.5 -33.5t-36.5 -84.5z" />
    <glyph glyph-name="uni04AC" unicode="&#x4ac;" 
d="M312 0h-38v652h-173v48h398v-48h-173v-604h38v-197h-52v149z" />
    <glyph glyph-name="uni04AD" unicode="&#x4ad;" 
d="M309 0h-35v457h-176v43h402v-43h-176v-414h33v-148h-48v105z" />
    <glyph glyph-name="uni04AE" unicode="&#x4ae;" 
d="M154 700l147 -309l145 309h57l-177 -367v-333h-52v333l-178 367h58z" />
    <glyph glyph-name="uni04AF" unicode="&#x4af;" 
d="M155 500l146 -393l145 393h55l-176 -459v-221h-49v221l-176 459h55z" />
    <glyph glyph-name="uni04B0" unicode="&#x4b0;" 
d="M111 270v47h163v16l-178 367h58l147 -309l145 309h57l-177 -367v-16h163v-47h-163v-270h-52v270h-163z" />
    <glyph glyph-name="uni04B1" unicode="&#x4b1;" 
d="M138 11v46h138l-176 443h55l146 -377l145 377h55l-176 -443h139v-46h-139v-191h-49v191h-138z" />
    <glyph glyph-name="uni04B2" unicode="&#x4b2;" 
d="M475 0h-29l-147 312l-146 -312h-61l176 364l-160 336h59l132 -283l133 283h59l-161 -336l154 -316h43v-197h-52v149z" />
    <glyph glyph-name="uni04B3" unicode="&#x4b3;" 
d="M454 0h-31l-123 214l-123 -214h-58l151 256l-144 244h58l116 -203l116 203h58l-145 -244l125 -213h48v-148h-48v105z" />
    <glyph glyph-name="uni04B6" unicode="&#x4b6;" 
d="M441 0h-38v283q-60 -28 -137 -28q-65 0 -107.5 42.5t-42.5 112.5v290h52v-283q0 -53 31 -83.5t83 -30.5q32 0 62 8.5t44 16.5l15 9v363h52v-652h38v-197h-52v149z" />
    <glyph glyph-name="uni04B7" unicode="&#x4b7;" 
d="M452 0h-36v198q-8 -6 -23 -14.5t-57 -22.5t-79 -14q-68 0 -105.5 38t-37.5 105v210h49v-200q0 -110 102 -110q34 0 71.5 14t58.5 28l21 15v253h49v-457h35v-148h-48v105z" />
    <glyph glyph-name="uni04B8" unicode="&#x4b8;" 
d="M263 149v106q-64 1 -105.5 43t-41.5 112v290h52v-283q0 -48 25.5 -78t69.5 -35v114h49v-113q24 3 47 11t33 14l11 7v363h52v-700h-52v283q-38 -18 -91 -25v-109h-49z" />
    <glyph glyph-name="uni04B9" unicode="&#x4b9;" 
d="M264 50v97h-7q-68 0 -105.5 38t-37.5 105v210h49v-200q0 -110 101 -110v115h46v-109q26 6 52.5 19t39.5 23l14 9v253h49v-500h-49v198q-47 -31 -106 -45v-103h-46z" />
    <glyph glyph-name="uni04BA" unicode="&#x4ba;" 
d="M491 341v-341h-52v329q0 64 -33.5 99t-87.5 35q-51 0 -92 -36.5t-41 -83.5v-343h-52v700h52v-256q5 7 14.5 18t44.5 29.5t76 18.5q77 0 124 -47.5t47 -121.5z" />
    <glyph glyph-name="uni04BB" unicode="&#x4bb;" 
d="M480 316v-316h-49v306q0 60 -33 94t-87 34q-55 0 -94 -35t-39 -83v-316h-49v700h49v-290q5 7 14.5 18t44.5 29.5t76 18.5q76 0 121.5 -46t45.5 -114z" />
    <glyph glyph-name="uni04C0" unicode="&#x4c0;" 
d="M119 652v48h362v-48h-154v-604h154v-48h-362v48h156v604h-156z" />
    <glyph glyph-name="uni04C3" unicode="&#x4c3;" 
d="M503 700l-193 -311q182 -29 182 -235q0 -142 -69.5 -237.5t-152.5 -95.5v44q61 0 116 79t55 203q0 111 -52.5 155t-157.5 44h-29v-346h-52v700h52v-306h53l192 306h56z" />
    <glyph glyph-name="uni04C4" unicode="&#x4c4;" 
d="M260 -171l-1 41q64 0 115.5 61t51.5 161q0 48 -13 79.5t-39.5 46.5t-55.5 20.5t-71 5.5h-37v-244h-48v500h48v-213h57l158 213h59l-165 -217q155 -27 155 -192q0 -118 -70 -190t-144 -72z" />
    <glyph glyph-name="uni04C7" unicode="&#x4c7;" 
d="M479 700v-700q0 -78 -46.5 -126.5t-125.5 -49.5v44q55 0 87.5 34.5t32.5 97.5v346h-254v-346h-52v700h52v-306h254v306h52z" />
    <glyph glyph-name="uni04C8" unicode="&#x4c8;" 
d="M476 500v-500q0 -77 -42.5 -126t-120.5 -50v42q54 0 84 37t30 103v238h-253v-244h-49v500h49v-213h253v213h49z" />
    <glyph glyph-name="uni04D0" unicode="&#x4d0;" 
d="M246 700h108l125 -426v-274h-52v239h-254v-239h-52v274zM422 287l-104 365h-36l-104 -365h244zM300 793q72 0 72 73h51q0 -16 -4 -32.5t-15.5 -36t-38 -32t-65.5 -12.5t-65.5 12.5t-38 32t-15.5 36t-4 32.5h51q0 -73 72 -73z" />
    <glyph glyph-name="uni04D1" unicode="&#x4d1;" 
d="M420 0v53q-2 -2 -5.5 -6t-16 -14.5t-27.5 -18t-39.5 -14t-51.5 -6.5q-67 0 -113 40t-46 105q0 66 46 106t120 49q43 5 133 9v42q0 52 -30 85t-82 33q-42 0 -71 -24t-38 -62h-49q9 57 51.5 93t106.5 36q77 0 119 -45t42 -117v-344h-49zM286 36q54 0 94 30t40 72v122
q-81 -2 -121 -7q-129 -16 -129 -113q0 -46 32 -75t84 -29zM300 598q72 0 72 73h51q0 -16 -4 -32.5t-15.5 -36t-38 -32t-65.5 -12.5t-65.5 12.5t-38 32t-15.5 36t-4 32.5h51q0 -73 72 -73z" />
    <glyph glyph-name="uni04D2" unicode="&#x4d2;" 
d="M246 700h108l125 -426v-274h-52v239h-254v-239h-52v274zM422 287l-104 365h-36l-104 -365h244zM187 797v70h58v-70h-58zM354 797v70h58v-70h-58z" />
    <glyph glyph-name="uni04D3" unicode="&#x4d3;" 
d="M420 0v53q-2 -3 -5.5 -7t-16 -15t-27.5 -19t-39.5 -15t-51.5 -7q-66 0 -112.5 42t-46.5 107q0 67 47 108.5t119 46.5l133 9v46q0 52 -30 85t-82 33q-42 0 -71 -24t-38 -62h-49q9 57 51.5 93t106.5 36q77 0 119 -45t42 -117v-348h-49zM286 32q53 0 93.5 32t40.5 74v122
l-121 -7q-60 -4 -94.5 -33.5t-34.5 -79.5q0 -46 32 -77t84 -31zM197 597v70h58v-70h-58zM364 597v70h58v-70h-58z" />
    <glyph glyph-name="uni04D4" unicode="&#x4d4;" 
d="M215 700h305v-48h-176v-258h152v-48h-152v-298h183v-48h-235v239h-150v-239h-52v278zM249 652l-104 -365h147v365h-43z" />
    <glyph glyph-name="uni04D5" unicode="&#x4d5;" 
d="M199 -10q-55 0 -88.5 34.5t-33.5 86.5v51q0 58 34 92.5t84 34.5h82v100q0 32 -21.5 55t-50.5 23q-32 0 -49 -23t-17 -63h-48q0 57 33 93t81 36q20 0 38 -6.5t28.5 -15t18.5 -17.5t12 -15l3 -7q1 2 3 6.5t10 15t18.5 18.5t29 14.5t40.5 6.5q50 0 83 -34.5t33 -85.5v-143
h-194v-131q0 -38 19.5 -60.5t58.5 -22.5q30 0 50 21t20 54v38h45v-38q0 -49 -34 -83.5t-84 -34.5q-22 0 -41 6t-29.5 14t-18.5 16t-10 14l-3 6q-3 -6 -10.5 -15.5t-33.5 -25t-58 -15.5zM406 467q-32 0 -55 -23t-23 -56v-99h149v95q0 36 -20.5 59.5t-50.5 23.5zM199 33
q34 0 56 23.5t22 59.5v131h-79q-31 0 -52 -23t-21 -62v-52q0 -33 20.5 -55t53.5 -22z" />
    <glyph glyph-name="uni04D6" unicode="&#x4d6;" 
d="M147 700h314v-48h-262v-258h238v-48h-238v-298h271v-48h-323v700zM304 800q25 0 42 9.5t23.5 23.5t8.5 22.5t2 15.5h49q0 -11 -2.5 -23t-10.5 -29t-20.5 -30t-36.5 -22t-55 -9t-55 9t-36.5 22t-20.5 30t-10.5 29t-2.5 23h49q0 -7 2 -15.5t8.5 -22.5t23.5 -23.5t42 -9.5z
" />
    <glyph glyph-name="uni04D7" unicode="&#x4d7;" 
d="M426 146h48q-4 -68 -51.5 -112t-122.5 -44q-78 0 -126.5 44.5t-48.5 110.5v210q0 66 48.5 110.5t126.5 44.5q77 0 125.5 -45t48.5 -110v-119h-301v-83q0 -53 35.5 -86.5t90.5 -33.5t90 31t37 82zM173 346v-67h253v68q0 53 -36.5 86.5t-90.5 33.5t-90 -34t-36 -87z
M300 600q25 0 42 9.5t23.5 23.5t8.5 22.5t2 15.5h49q0 -11 -2.5 -23t-10.5 -29t-20.5 -30t-36.5 -22t-55 -9t-55 9t-36.5 22t-20.5 30t-10.5 29t-2.5 23h49q0 -7 2 -15.5t8.5 -22.5t23.5 -23.5t42 -9.5z" />
    <glyph glyph-name="uni04D8" unicode="&#x4d8;" 
d="M121 169v178q0 15 10 26t26 11h269v146q0 54 -36 91.5t-90 37.5q-52 0 -87.5 -37.5t-36.5 -90.5h-51q0 73 50 124t124 51q77 0 128 -51t51 -124v-361q0 -73 -52 -124.5t-127 -51.5q-74 0 -126 51t-52 124zM426 336h-253v-168q0 -53 36.5 -89.5t89.5 -36.5q54 0 90.5 37
t36.5 92v165z" />
    <glyph glyph-name="uni04D9" unicode="&#x4d9;" 
d="M429 151v70h-260v-70q0 -47 38.5 -82.5t91.5 -35.5t91.5 35.5t38.5 82.5zM300 510q79 0 128 -45t49 -110v-210q0 -65 -50 -110t-129 -45q-77 0 -127 45t-50 110v102q0 7 5 12t12 5h291v85q0 52 -37 85t-91 33q-56 0 -90.5 -29t-36.5 -80h-48q4 68 51.5 110t122.5 42z" />
    <glyph glyph-name="uni04DA" unicode="&#x4da;" 
d="M121 169v178q0 15 10 26t26 11h269v146q0 54 -36 91.5t-90 37.5q-52 0 -87.5 -37.5t-36.5 -90.5h-51q0 73 50 124t124 51q77 0 128 -51t51 -124v-361q0 -73 -52 -124.5t-127 -51.5q-74 0 -126 51t-52 124zM426 336h-253v-168q0 -53 36.5 -89.5t89.5 -36.5q54 0 90.5 37
t36.5 92v165zM187 797v70h58v-70h-58zM354 797v70h58v-70h-58z" />
    <glyph glyph-name="uni04DB" unicode="&#x4db;" 
d="M429 151v70h-260v-70q0 -47 38.5 -82.5t91.5 -35.5t91.5 35.5t38.5 82.5zM300 510q79 0 128 -45t49 -110v-210q0 -65 -50 -110t-129 -45q-77 0 -127 45t-50 110v102q0 7 5 12t12 5h291v85q0 52 -37 85t-91 33q-56 0 -90.5 -29t-36.5 -80h-48q4 68 51.5 110t122.5 42z
M187 597v70h58v-70h-58zM354 597v70h58v-70h-58z" />
    <glyph glyph-name="uni04DC" unicode="&#x4dc;" 
d="M343 393l139 307h53l-148 -328l158 -372h-53l-149 346h-18v-346h-51v346h-18l-150 -346h-53l159 372l-148 328h54l138 -307h18v307h51v-307h18zM188 797v70h58v-70h-58zM355 797v70h58v-70h-58z" />
    <glyph glyph-name="uni04DD" unicode="&#x4dd;" 
d="M337 244h-14v-244h-46v244h-14l-135 -244h-55l149 265l-141 235h53l127 -214h16v214h46v-214h16l127 214h52l-140 -235l149 -265h-55zM187 597v70h58v-70h-58zM354 597v70h58v-70h-58z" />
    <glyph glyph-name="uni04DE" unicode="&#x4de;" 
d="M299 706q76 0 123 -50t47 -125v-20q0 -41 -17.5 -74.5t-34.5 -46.5l-17 -14q3 -1 8 -4t18 -14.5t22.5 -25t17.5 -36t8 -48.5v-78q0 -75 -51 -125.5t-130 -50.5q-75 0 -124.5 49.5t-51.5 117.5v12h51v-12q2 -46 37 -82.5t90 -36.5q57 0 91.5 36t34.5 91v72
q0 46 -28.5 75.5t-79.5 29.5h-67v48h60q57 0 83.5 37t26.5 82v19q0 55 -32 90.5t-88 35.5t-87.5 -37t-31.5 -73h-48q0 61 47.5 109.5t122.5 48.5zM187 797v70h58v-70h-58zM354 797v70h58v-70h-58z" />
    <glyph glyph-name="uni04DF" unicode="&#x4df;" 
d="M295 37q56 0 90 29.5t34 77.5q0 45 -28 69.5t-73 24.5h-59v44h56q43 0 69.5 25.5t26.5 61.5q0 39 -31.5 66.5t-78.5 27.5q-48 0 -80.5 -26.5t-36.5 -65.5h-45q3 55 47.5 95t115.5 40t113.5 -39.5t42.5 -95.5q0 -32 -16 -58t-32 -36l-15 -10q3 -1 8 -4t17 -13t21.5 -23
t17.5 -35t8 -47q0 -65 -47.5 -108t-123.5 -43q-75 0 -123.5 44.5t-52.5 111.5h47q2 -51 39 -82t89 -31zM187 597v70h58v-70h-58zM354 597v70h58v-70h-58z" />
    <glyph glyph-name="uni04E2" unicode="&#x4e2;" 
d="M434 605l-262 -605h-51v700h48v-364l-3 -244l262 608h51v-700h-48v364zM170 790v45h260v-45h-260z" />
    <glyph glyph-name="uni04E3" unicode="&#x4e3;" 
d="M429 0v251l3 171l-264 -422h-47v500h49v-250l-3 -172l264 422h47v-500h-49zM170 590v45h260v-45h-260z" />
    <glyph glyph-name="uni04E4" unicode="&#x4e4;" 
d="M434 605l-262 -605h-51v700h48v-364l-3 -244l262 608h51v-700h-48v364zM188 797v70h58v-70h-58zM355 797v70h58v-70h-58z" />
    <glyph glyph-name="uni04E5" unicode="&#x4e5;" 
d="M429 0v251l3 171l-264 -422h-47v500h49v-250l-3 -172l264 422h47v-500h-49zM187 597v70h58v-70h-58zM354 597v70h58v-70h-58z" />
    <glyph glyph-name="uni04E6" unicode="&#x4e6;" 
d="M484 535v-370q0 -74 -51.5 -124.5t-132.5 -50.5t-133 51t-52 125v369q0 74 52 124.5t133 50.5t132.5 -50.5t51.5 -124.5zM432 164v370q0 54 -36.5 91t-95.5 37q-60 0 -96.5 -37t-36.5 -91v-369q0 -54 36.5 -90.5t96.5 -36.5q59 0 95.5 36t36.5 90zM187 797v70h58v-70h-58
zM354 797v70h58v-70h-58z" />
    <glyph glyph-name="uni04E7" unicode="&#x4e7;" 
d="M474 145v210q0 65 -48.5 110t-125.5 45q-78 0 -126.5 -44.5t-48.5 -110.5v-210q0 -66 48.5 -110.5t126.5 -44.5q77 0 125.5 45t48.5 110zM426 349v-198q0 -50 -36.5 -84t-89.5 -34q-54 0 -90.5 34t-36.5 84v198q0 50 36.5 84t89.5 34t90 -34t37 -84zM187 597v70h58v-70
h-58zM354 597v70h58v-70h-58z" />
    <glyph glyph-name="uni04E8" unicode="&#x4e8;" 
d="M484 535v-370q0 -74 -51.5 -124.5t-132.5 -50.5t-133 51t-52 125v369q0 74 52 124.5t133 50.5t132.5 -50.5t51.5 -124.5zM359 318q-26 0 -63 21t-54 21q-35 0 -75 -40v-155q0 -54 36.5 -90.5t96.5 -36.5q59 0 95.5 36t36.5 90v183q-37 -29 -73 -29zM167 534v-159
q34 31 75 31q26 0 63 -21t54 -21q35 0 73 38v132q0 54 -36.5 90t-95.5 36q-60 0 -96.5 -36t-36.5 -90z" />
    <glyph glyph-name="uni04E9" unicode="&#x4e9;" 
d="M474 355v-210q0 -65 -48.5 -110t-125.5 -45q-78 0 -126.5 44.5t-48.5 110.5v210q0 66 48.5 110.5t126.5 44.5q77 0 125.5 -45t48.5 -110zM173 349v-80q29 24 66 24q26 0 64 -20.5t55 -20.5q20 0 37 11t24 21l7 11v54q0 48 -37 83t-90 35t-89.5 -35t-36.5 -83zM359 207
q-26 0 -64 20.5t-55 20.5q-19 0 -36 -11t-22.5 -18.5t-8.5 -13.5v-54q0 -48 37 -83t90 -35q52 0 89 35t37 83v80q-27 -24 -67 -24z" />
    <glyph glyph-name="uni04EA" unicode="&#x4ea;" 
d="M484 535v-370q0 -74 -51.5 -124.5t-132.5 -50.5t-133 51t-52 125v369q0 74 52 124.5t133 50.5t132.5 -50.5t51.5 -124.5zM359 318q-26 0 -63 21t-54 21q-35 0 -75 -40v-155q0 -54 36.5 -90.5t96.5 -36.5q59 0 95.5 36t36.5 90v183q-37 -29 -73 -29zM167 534v-159
q34 31 75 31q26 0 63 -21t54 -21q35 0 73 38v132q0 54 -36.5 90t-95.5 36q-60 0 -96.5 -36t-36.5 -90zM187 797v70h58v-70h-58zM354 797v70h58v-70h-58z" />
    <glyph glyph-name="uni04EB" unicode="&#x4eb;" 
d="M474 355v-210q0 -65 -48.5 -110t-125.5 -45q-78 0 -126.5 44.5t-48.5 110.5v210q0 66 48.5 110.5t126.5 44.5q77 0 125.5 -45t48.5 -110zM173 349v-80q29 24 66 24q26 0 64 -20.5t55 -20.5q20 0 37 11t24 21l7 11v54q0 48 -37 83t-90 35t-89.5 -35t-36.5 -83zM359 207
q-26 0 -64 20.5t-55 20.5q-19 0 -36 -11t-22.5 -18.5t-8.5 -13.5v-54q0 -48 37 -83t90 -35q52 0 89 35t37 83v80q-27 -24 -67 -24zM187 597v70h58v-70h-58zM354 597v70h58v-70h-58z" />
    <glyph glyph-name="uni04EC" unicode="&#x4ec;" 
d="M235 341v48h178v141q0 54 -36 91.5t-90 37.5q-52 0 -87.5 -37.5t-36.5 -90.5h-51q0 73 50 124t124 51q77 0 128 -51t51 -124v-361q0 -73 -52 -124.5t-127 -51.5q-74 0 -126 51t-52 124v4h52v-5q0 -53 36.5 -89.5t89.5 -36.5q54 0 90.5 37t36.5 92v170h-178zM187 797v70
h58v-70h-58zM354 797v70h58v-70h-58z" />
    <glyph glyph-name="uni04ED" unicode="&#x4ed;" 
d="M259 237v43h163v69q0 51 -36.5 84.5t-90.5 33.5q-50 0 -84.5 -31t-36.5 -79h-49q4 65 51 109t119 44q79 0 127 -46.5t48 -116.5v-194q0 -71 -48 -117t-127 -46q-74 0 -121.5 44.5t-51.5 111.5h47q2 -51 38 -82t88 -31q54 0 90.5 33.5t36.5 84.5v86h-163zM187 597v70h58
v-70h-58zM354 597v70h58v-70h-58z" />
    <glyph glyph-name="uni04EE" unicode="&#x4ee;" 
d="M515 700l-283 -700h-57l109 263l-175 437h60l143 -367l146 367h57zM185 790v45h260v-45h-260z" />
    <glyph glyph-name="uni04EF" unicode="&#x4ef;" 
d="M255 -76l32 83l-179 493h54l153 -423l154 423h53l-223 -594q-33 -87 -134 -87l-19 1v41h15q40 2 60.5 15t33.5 48zM188 590v45h260v-45h-260z" />
    <glyph glyph-name="uni04F0" unicode="&#x4f0;" 
d="M515 700l-283 -700h-57l109 263l-175 437h60l143 -367l146 367h57zM201 797v70h58v-70h-58zM368 797v70h58v-70h-58z" />
    <glyph glyph-name="uni04F1" unicode="&#x4f1;" 
d="M255 -76l32 83l-179 493h54l153 -423l154 423h53l-223 -594q-33 -87 -134 -87l-19 1v41h15q40 2 60.5 15t33.5 48zM197 597v70h58v-70h-58zM364 597v70h58v-70h-58z" />
    <glyph glyph-name="uni04F2" unicode="&#x4f2;" 
d="M515 700l-283 -700h-57l109 263l-175 437h60l143 -367l146 367h57zM263 753h-46l94 122h68zM394 753h-46l94 122h68z" />
    <glyph glyph-name="uni04F3" unicode="&#x4f3;" 
d="M255 -76l32 83l-179 493h54l153 -423l154 423h53l-223 -594q-33 -87 -134 -87l-19 1v41h15q40 2 60.5 15t33.5 48zM253 553h-46l94 122h68zM384 553h-46l94 122h68z" />
    <glyph glyph-name="uni04F4" unicode="&#x4f4;" 
d="M455 700v-700h-52v283q-60 -28 -137 -28q-65 0 -107.5 42.5t-42.5 112.5v290h52v-283q0 -53 31 -83.5t83 -30.5q32 0 62 8.5t44 16.5l15 9v363h52zM172 797v70h58v-70h-58zM339 797v70h58v-70h-58z" />
    <glyph glyph-name="uni04F5" unicode="&#x4f5;" 
d="M114 290v210h49v-200q0 -110 102 -110q34 0 71.5 14t58.5 28l21 15v253h49v-500h-49v198q-8 -6 -23 -14.5t-57 -22.5t-79 -14q-68 0 -105.5 38t-37.5 105zM180 597v70h58v-70h-58zM347 597v70h58v-70h-58z" />
    <glyph glyph-name="uni04F8" unicode="&#x4f8;" 
d="M337 147v103q0 40 -28.5 68t-68.5 28h-111v-296h111q40 0 68.5 28.5t28.5 68.5zM129 700v-306h114q60 0 103 -43t43 -104v-101q0 -61 -43 -103.5t-103 -42.5h-166v700h52zM524 700v-700h-52v700h52zM188 797v70h58v-70h-58zM355 797v70h58v-70h-58z" />
    <glyph glyph-name="uni04F9" unicode="&#x4f9;" 
d="M135 500v-213h110q71 0 112.5 -42t41.5 -100q0 -59 -41.5 -102t-112.5 -43h-159v500h49zM350 145q0 39 -26.5 69t-75.5 30h-113v-201h113q49 0 75.5 31t26.5 71zM513 500v-500h-49v500h49zM187 597v70h58v-70h-58zM354 597v70h58v-70h-58z" />
    <glyph glyph-name="Wgrave" unicode="&#x1e80;" 
d="M452 425v275h52v-278l-42 -422h-96l-62 315h-9l-63 -315h-95l-42 422v278h52v-275l34 -377h14l69 332h72l68 -332h14zM348 753h-54l-127 122h72z" />
    <glyph glyph-name="wgrave" unicode="&#x1e81;" 
d="M460 318v182h48v-187l-61 -313h-89l-55 271h-7l-54 -271h-89l-61 313v187h48v-182l53 -276h14l58 280h71l59 -280h14zM356 553h-54l-127 122h72z" />
    <glyph glyph-name="Wacute" unicode="&#x1e82;" 
d="M452 425v275h52v-278l-42 -422h-96l-62 315h-9l-63 -315h-95l-42 422v278h52v-275l34 -377h14l69 332h72l68 -332h14zM311 753h-54l109 122h72z" />
    <glyph glyph-name="wacute" unicode="&#x1e83;" 
d="M460 318v182h48v-187l-61 -313h-89l-55 271h-7l-54 -271h-89l-61 313v187h48v-182l53 -276h14l58 280h71l59 -280h14zM304 553h-54l109 122h72z" />
    <glyph glyph-name="Wdieresis" unicode="&#x1e84;" 
d="M452 425v275h52v-278l-42 -422h-96l-62 315h-9l-63 -315h-95l-42 422v278h52v-275l34 -377h14l69 332h72l68 -332h14zM187 797v70h58v-70h-58zM354 797v70h58v-70h-58z" />
    <glyph glyph-name="wdieresis" unicode="&#x1e85;" 
d="M460 318v182h48v-187l-61 -313h-89l-55 271h-7l-54 -271h-89l-61 313v187h48v-182l53 -276h14l58 280h71l59 -280h14zM187 597v70h58v-70h-58zM354 597v70h58v-70h-58z" />
    <glyph glyph-name="endash" unicode="&#x2013;" 
d="M489 320v-48h-378v48h378z" />
    <glyph glyph-name="emdash" unicode="&#x2014;" horiz-adv-x="599" 
d="M599 320v-48h-599v48h599z" />
    <glyph glyph-name="quoteleft" unicode="&#x2018;" 
d="M351 700l-34 -191h-68l67 191h35z" />
    <glyph glyph-name="quoteright" unicode="&#x2019;" 
d="M249 509l34 191h68l-68 -191h-34z" />
    <glyph glyph-name="quotesinglbase" unicode="&#x201a;" 
d="M249 -120l34 190h68l-68 -190h-34z" />
    <glyph glyph-name="quotedblleft" unicode="&#x201c;" 
d="M419 700l-34 -191h-68l67 191h35zM282 700l-34 -191h-68l67 191h35z" />
    <glyph glyph-name="quotedblright" unicode="&#x201d;" 
d="M180 509l34 191h68l-68 -191h-34zM317 509l34 191h68l-68 -191h-34z" />
    <glyph glyph-name="quotedblbase" unicode="&#x201e;" 
d="M180 -120l34 190h68l-68 -190h-34zM317 -120l34 190h68l-68 -190h-34z" />
    <glyph glyph-name="dagger" unicode="&#x2020;" 
d="M445 500v-49h-120v-641h-53v641h-117v49h117v200h53v-200h120z" />
    <glyph glyph-name="daggerdbl" unicode="&#x2021;" 
d="M445 49v-49h-120v-190h-53v190h-117v49h117v402h-117v49h117v200h53v-200h120v-49h-120v-402h120z" />
    <glyph glyph-name="bullet" unicode="&#x2022;" 
d="M156 366q0 59 42.5 101.5t101.5 42.5t101.5 -42.5t42.5 -101.5t-42.5 -101.5t-101.5 -42.5t-101.5 42.5t-42.5 101.5z" />
    <glyph glyph-name="ellipsis" unicode="&#x2026;" 
d="M65 0v70h70v-70h-70zM265 0v70h70v-70h-70zM465 0v70h70v-70h-70z" />
    <glyph glyph-name="perthousand" unicode="&#x2030;" 
d="M286 610v-101q0 -43 -31.5 -73t-76.5 -30q-44 0 -75 30t-31 73v101q0 43 31 71t75 28q46 0 77 -28t31 -71zM241 512v90q0 27 -18 45.5t-45 18.5t-44.5 -18.5t-17.5 -45.5v-89q0 -27 18 -45.5t46 -18.5q25 0 43 18.5t18 44.5zM531 194v-101q0 -43 -31.5 -73t-76.5 -30
q-44 0 -75 30t-31 73v101q0 43 31 71t75 28q46 0 77 -28t31 -71zM486 96v90q0 27 -18 45.5t-45 18.5t-44.5 -18.5t-17.5 -45.5v-89q0 -27 18 -45.5t46 -18.5q25 0 43 18.5t18 44.5zM286 194v-101q0 -43 -31.5 -73t-76.5 -30q-44 0 -75 30t-31 73v101q0 43 31 71t75 28
q46 0 77 -28t31 -71zM241 96v90q0 27 -18 45.5t-45 18.5t-44.5 -18.5t-17.5 -45.5v-89q0 -27 18 -45.5t46 -18.5q25 0 43 18.5t18 44.5zM49 335l501 170v-47l-501 -170v47z" />
    <glyph glyph-name="guilsinglleft" unicode="&#x2039;" 
d="M385 140h-54l-117 152l117 152h54l-119 -152z" />
    <glyph glyph-name="guilsinglright" unicode="&#x203a;" 
d="M267 140h-53l118 152l-118 152h53l118 -152z" />
    <glyph glyph-name="fraction" unicode="&#x2044;" 
d="M104 0l351 700h41l-351 -700h-41z" />
    <glyph glyph-name="foursuperior" unicode="&#x2074;" 
d="M179 409v42l123 249h48l-125 -249h116v85h45v-85h37v-42h-37v-78h-45v78h-162z" />
    <glyph glyph-name="uni2081" unicode="&#x2081;" 
d="M242 353l73 16h47v-369h-47v330l-73 -15v38z" />
    <glyph glyph-name="uni2082" unicode="&#x2082;" 
d="M411 0h-222v35q0 41 27.5 75.5t60 55t60 50t27.5 62.5q0 28 -17 44.5t-43 16.5q-27 0 -46 -19.5t-20 -48.5h-42q0 43 30 75.5t80 32.5q44 0 73.5 -29t29.5 -72q0 -34 -18 -62.5t-43.5 -48t-51 -37.5t-43.5 -40.5t-18 -47.5h176v-42z" />
    <glyph glyph-name="uni2083" unicode="&#x2083;" 
d="M194 87h42q0 -23 17.5 -39.5t44.5 -16.5q32 0 49.5 18.5t17.5 49.5v49q0 22 -14 37.5t-35 15.5h-41v40l73 86h-135v40h186v-38l-73 -87q37 -6 60 -32.5t23 -61.5v-49q0 -47 -31.5 -77.5t-79.5 -30.5q-46 0 -75 27.5t-29 68.5z" />
    <glyph glyph-name="uni2084" unicode="&#x2084;" 
d="M179 78v42l123 249h48l-125 -249h116v85h45v-85h37v-42h-37v-78h-45v78h-162z" />
    <glyph glyph-name="Euro" unicode="&#x20ac;" 
d="M419 433v-48h-222v-75h190v-48h-190v-95q0 -54 36.5 -91.5t90.5 -37.5t91 37t37 91v5h51v-4q0 -74 -51.5 -125.5t-124.5 -51.5h-6q-73 0 -125 52t-52 126v94h-59v48h59v75h-59v48h59v100q0 73 52 125t125 52h6q73 0 124.5 -51.5t51.5 -125.5h-51q-1 53 -38 90t-90 37
q-54 0 -90.5 -37t-36.5 -91v-99h222z" />
    <glyph glyph-name="trademark" unicode="&#x2122;" 
d="M165 669v-302h-36v302h-77v31h190v-31h-77zM478 367v283l-62 -134h-33l-62 134v-283h-36v333h48l67 -150l66 150h48v-333h-36z" />
    <glyph glyph-name="Omega" unicode="&#x2126;" 
d="M364 109q31 16 49.5 46t18.5 66v313q0 54 -36.5 90t-95.5 36q-60 0 -96.5 -36t-36.5 -90v-312q0 -37 18 -67t50 -46q12 -6 12 -20v-89h-135v48h87v26q-39 23 -61.5 62.5t-22.5 86.5v312q0 74 52 124.5t133 50.5t132.5 -50.5t51.5 -124.5v-313q0 -46 -22.5 -85.5
t-61.5 -62.5v-26h87v-48h-135v89q0 14 12 20z" />
    <glyph glyph-name="Delta" unicode="&#x2206;" 
d="M350 700l143 -700h-388l143 700h102zM284 652l-118 -604h266l-118 604h-30z" />
    <glyph glyph-name="product" unicode="&#x220f;" 
d="M479 700v-789h-52v741h-254v-741h-52v789h358z" />
    <glyph glyph-name="summation" unicode="&#x2211;" 
d="M336 307l-151 -348h304v-48h-359v50l155 359l-155 337v43h349v-48h-288l145 -320v-25z" />
    <glyph glyph-name="minus" unicode="&#x2212;" 
d="M93 308h414v-50h-414v50z" />
    <glyph glyph-name="uni2215" unicode="&#x2215;" 
d="M104 0l351 700h41l-351 -700h-41z" />
    <glyph glyph-name="uni2219" unicode="&#x2219;" 
d="M265 258v70h70v-70h-70z" />
    <glyph glyph-name="radical" unicode="&#x221a;" 
d="M220 -92l-95 389q-8 33 -23.5 42.5t-43.5 9.5v45q52 0 79 -19t37 -63l84 -365h13l262 864h52l-277 -903h-88z" />
    <glyph glyph-name="infinity" unicode="&#x221e;" 
d="M418 186q-52 0 -117 69q-59 -69 -117 -69q-44 0 -76.5 31t-32.5 73q0 44 31.5 75t77.5 31q57 0 116 -70q63 70 118 70q43 0 75 -30.5t32 -72.5q0 -44 -31 -75.5t-76 -31.5zM417 353q-37 0 -91 -62q53 -62 92 -62q26 0 45.5 18.5t19.5 43.5t-20 43.5t-46 18.5zM185 231
q39 0 88 62q-54 62 -89 62q-27 0 -46 -19.5t-19 -44.5q0 -26 19 -43t47 -17z" />
    <glyph glyph-name="integral" unicode="&#x222b;" 
d="M144 -135h46q37 0 60.5 24.5t23.5 62.5v617q0 56 39 93.5t97 37.5h45v-46h-46q-37 0 -60.5 -24.5t-23.5 -62.5v-617q0 -56 -39 -93t-97 -37h-45v45z" />
    <glyph glyph-name="approxequal" unicode="&#x2248;" 
d="M203 409q38 0 103.5 -29.5t90.5 -29.5q31 0 48.5 15t17.5 36h45q0 -40 -31 -69t-80 -29q-38 0 -103.5 29.5t-90.5 29.5q-31 0 -48.5 -15t-17.5 -36h-45q0 40 31 69t80 29zM203 280q38 0 103.5 -29.5t90.5 -29.5q31 0 48.5 15t17.5 36h45q0 -40 -31 -69t-80 -29
q-38 0 -103.5 29.5t-90.5 29.5q-31 0 -48.5 -15t-17.5 -36h-45q0 40 31 69t80 29z" />
    <glyph glyph-name="notequal" unicode="&#x2260;" 
d="M506 389v-50h-170l-42 -110h212v-50h-231l-53 -140h-39l53 140h-143v50h162l42 110h-204v50h223l59 154h39l-59 -154h151z" />
    <glyph glyph-name="lessequal" unicode="&#x2264;" 
d="M93 291v61l414 162v-54l-366 -138l366 -136v-56zM507 95v-50h-414v50h414z" />
    <glyph glyph-name="greaterequal" unicode="&#x2265;" 
d="M93 45v50h414v-50h-414zM507 352v-61l-414 -161v56l366 136l-366 138v54z" />
    <glyph glyph-name="lozenge" unicode="&#x25ca;" 
d="M488 350l-155 -350h-62l-158 350l156 350h62zM294 652l-127 -302l127 -302h13l127 302l-127 302h-13z" />
    <glyph glyph-name="commaaccent" unicode="&#xf6c3;" 
d="M279 -173h-41l53 123h71z" />
    <glyph glyph-name="cyrbreve" unicode="&#xf6d4;" 
d="M300 598q72 0 72 73h51q0 -16 -4 -32.5t-15.5 -36t-38 -32t-65.5 -12.5t-65.5 12.5t-38 32t-15.5 36t-4 32.5h51q0 -73 72 -73z" />
  </font>
</defs>
</svg>
